<svg width="27" height="27" viewBox="0 0 27 27" fill="none" xmlns="http://www.w3.org/2000/svg">
<path d="M1.08252 22.4147L22.2955 1.20067C22.5273 0.966892 22.803 0.7812 23.1068 0.654256C23.4106 0.527312 23.7364 0.461617 24.0656 0.460943C24.3949 0.460269 24.721 0.524636 25.0253 0.650335C25.3296 0.776034 25.606 0.960595 25.8388 1.19343C26.0715 1.42626 26.256 1.70277 26.3816 2.00709C26.5072 2.31141 26.5715 2.63753 26.5708 2.96676C26.57 3.29598 26.5042 3.62181 26.3772 3.92554C26.2501 4.22927 26.0644 4.50493 25.8305 4.73667L4.61752 25.9507C4.14862 26.4196 3.51265 26.683 2.84952 26.683C2.18639 26.683 1.55042 26.4196 1.08151 25.9507C0.61261 25.4818 0.349197 24.8458 0.349197 24.1827C0.349197 23.5195 0.61261 22.8836 1.08151 22.4147H1.08252Z" fill="white"/>
<path d="M25.8315 22.4147L4.61852 1.20067C4.38671 0.966892 4.11101 0.7812 3.80724 0.654256C3.50347 0.527312 3.17764 0.461617 2.84841 0.460943C2.51919 0.460269 2.19307 0.524636 1.88879 0.650335C1.5845 0.776034 1.30803 0.960595 1.07526 1.19343C0.842499 1.42626 0.658014 1.70277 0.532401 2.00709C0.406788 2.31141 0.342532 2.63753 0.343299 2.96676C0.344066 3.29598 0.409842 3.62181 0.536872 3.92554C0.663902 4.22927 0.849686 4.50493 1.08353 4.73667L22.2965 25.9507C22.7654 26.4196 23.4014 26.683 24.0645 26.683C24.7276 26.683 25.3636 26.4196 25.8325 25.9507C26.3014 25.4818 26.5649 24.8458 26.5649 24.1827C26.5649 23.5195 26.3014 22.8836 25.8325 22.4147H25.8315Z" fill="white"/>
</svg>
