<svg width="17" height="17" viewBox="0 0 17 17" fill="none" xmlns="http://www.w3.org/2000/svg">
<path d="M15.2119 6.82422H10.1494V1.76172C10.1494 1.16406 9.62207 0.636719 9.02441 0.636719H7.89941C7.2666 0.636719 6.77441 1.16406 6.77441 1.76172V6.82422H1.71191C1.0791 6.82422 0.586914 7.35156 0.586914 7.94922V9.07422C0.586914 9.70703 1.0791 10.1992 1.71191 10.1992H6.77441V15.2617C6.77441 15.8945 7.2666 16.3867 7.89941 16.3867H9.02441C9.62207 16.3867 10.1494 15.8945 10.1494 15.2617V10.1992H15.2119C15.8096 10.1992 16.3369 9.70703 16.3369 9.07422V7.94922C16.3369 7.35156 15.8096 6.82422 15.2119 6.82422Z" fill="black"/>
</svg>
