<svg width="26" height="21" viewBox="0 0 26 21" fill="none" xmlns="http://www.w3.org/2000/svg">
<path d="M25.1691 14.6506H24.5441V10.4318C24.5441 9.96306 24.3097 9.45525 23.9581 9.10368L20.0909 5.2365C19.7394 4.88493 19.2316 4.65056 18.7628 4.65056H17.0441V2.77556C17.0441 1.75993 16.1847 0.900558 15.1691 0.900558H2.66907C1.61438 0.900558 0.794067 1.75993 0.794067 2.77556V15.2756C0.794067 16.3302 1.61438 17.1506 2.66907 17.1506H3.29407C3.29407 19.2209 4.97375 20.9006 7.04407 20.9006C9.11438 20.9006 10.7941 19.2209 10.7941 17.1506H15.7941C15.7941 19.2209 17.4738 20.9006 19.5441 20.9006C21.6144 20.9006 23.2941 19.2209 23.2941 17.1506H25.1691C25.4816 17.1506 25.7941 16.8771 25.7941 16.5256V15.2756C25.7941 14.9631 25.4816 14.6506 25.1691 14.6506ZM7.04407 19.0256C5.98938 19.0256 5.16907 18.2052 5.16907 17.1506C5.16907 16.1349 5.98938 15.2756 7.04407 15.2756C8.05969 15.2756 8.91907 16.1349 8.91907 17.1506C8.91907 18.2052 8.05969 19.0256 7.04407 19.0256ZM19.5441 19.0256C18.4894 19.0256 17.6691 18.2052 17.6691 17.1506C17.6691 16.1349 18.4894 15.2756 19.5441 15.2756C20.5597 15.2756 21.4191 16.1349 21.4191 17.1506C21.4191 18.2052 20.5597 19.0256 19.5441 19.0256ZM22.6691 10.9006H17.0441V6.52556H18.7628L22.6691 10.4318V10.9006Z" fill="#440005"/>
</svg>
