<svg width="46" height="45" viewBox="0 0 46 45" fill="none" xmlns="http://www.w3.org/2000/svg">
<path d="M45.0273 23.0545H44.1212V21.4022C44.625 21.2716 45.0637 20.9613 45.3545 20.5297C45.6454 20.0981 45.7683 19.575 45.7002 19.059C45.632 18.5431 45.3774 18.0698 44.9845 17.7286C44.5915 17.3873 44.0873 17.2016 43.5669 17.2063H42.4198C42.4873 16.8723 42.5216 16.5323 42.5222 16.1915C42.5207 15.0458 42.1329 13.9341 41.4214 13.0362C40.7099 12.1382 39.7164 11.5065 38.6014 11.2431C38.8972 9.78666 38.8277 8.27965 38.3991 6.85663C37.9705 5.43362 37.1962 4.13889 36.1453 3.08808C35.1471 2.08326 33.9235 1.33115 32.5763 0.894223C32.458 0.856808 32.3319 0.852322 32.2113 0.881247C32.0907 0.910172 31.9803 0.971414 31.8919 1.05839C31.8038 1.14606 31.7415 1.25627 31.7118 1.37697C31.682 1.49767 31.6861 1.62422 31.7235 1.74277C32.1643 3.08332 32.2241 4.51998 31.8962 5.89253C31.5683 7.26509 30.8656 8.51959 29.8665 9.51613L29.8387 9.54598C28.8128 10.5482 27.4353 11.1091 26.0011 11.1088H8.64428C7.29677 11.1104 6.00494 11.6465 5.05211 12.5993C4.09927 13.5522 3.56323 14.844 3.56154 16.1915C3.5621 16.5323 3.59638 16.8723 3.66387 17.2063H2.51471C1.99427 17.2016 1.49005 17.3873 1.09709 17.7286C0.704131 18.0698 0.449577 18.5431 0.381409 19.059C0.313241 19.575 0.436167 20.0981 0.727018 20.5297C1.01787 20.9613 1.45655 21.2716 1.96038 21.4022V23.0545H1.05641C0.967853 23.0542 0.880118 23.0714 0.798252 23.1052C0.716385 23.139 0.642003 23.1886 0.579386 23.2512C0.516769 23.3138 0.467154 23.3882 0.433396 23.4701C0.399639 23.5519 0.382405 23.6397 0.382686 23.7282V32.1753C0.377532 32.2668 0.391107 32.3584 0.422582 32.4445C0.454057 32.5306 0.502769 32.6094 0.565737 32.676C0.628705 32.7426 0.704604 32.7957 0.78879 32.8319C0.872975 32.8682 0.963675 32.8869 1.05534 32.8869C1.147 32.8869 1.23771 32.8682 1.32189 32.8319C1.40608 32.7957 1.48198 32.7426 1.54494 32.676C1.60791 32.6094 1.65662 32.5306 1.6881 32.4445C1.71957 32.3584 1.73315 32.2668 1.72799 32.1753V28.8728H44.3557V35.8637C44.3529 37.8626 43.5574 39.7788 42.1438 41.1921C40.7301 42.6054 38.8137 43.4003 36.8147 43.4025H9.26897C7.27004 43.4003 5.3536 42.6054 3.93994 41.1921C2.52628 39.7788 1.73082 37.8626 1.72799 35.8637V34.868C1.73315 34.7765 1.71957 34.6849 1.6881 34.5988C1.65662 34.5127 1.60791 34.434 1.54494 34.3674C1.48198 34.3007 1.40608 34.2477 1.32189 34.2114C1.23771 34.1751 1.147 34.1564 1.05534 34.1564C0.963675 34.1564 0.872975 34.1751 0.78879 34.2114C0.704604 34.2477 0.628705 34.3007 0.565737 34.3674C0.502769 34.434 0.454057 34.5127 0.422582 34.5988C0.391107 34.6849 0.377532 34.7765 0.382686 34.868V35.8637C0.385507 38.2196 1.32264 40.4782 2.98853 42.1441C4.65442 43.81 6.91304 44.7472 9.26897 44.75H36.8147C39.1707 44.7472 41.4293 43.81 43.0952 42.1441C44.7611 40.4782 45.6982 38.2196 45.701 35.8637V23.7282C45.7013 23.6397 45.6841 23.5519 45.6503 23.4701C45.6165 23.3882 45.5669 23.3138 45.5043 23.2512C45.4417 23.1886 45.3673 23.139 45.2854 23.1052C45.2036 23.0714 45.1158 23.0542 45.0273 23.0545ZM1.72799 19.3426C1.72912 19.1345 1.81243 18.9353 1.95979 18.7883C2.10714 18.6414 2.3066 18.5586 2.51471 18.5581H33.0389C33.1274 18.5581 33.215 18.5406 33.2967 18.5068C33.3785 18.4729 33.4528 18.4233 33.5153 18.3607C33.5779 18.2982 33.6275 18.2239 33.6614 18.1422C33.6952 18.0604 33.7126 17.9728 33.7126 17.8843C33.7126 17.7959 33.6952 17.7083 33.6614 17.6265C33.6275 17.5448 33.5779 17.4705 33.5153 17.4079C33.4528 17.3454 33.3785 17.2958 33.2967 17.2619C33.215 17.228 33.1274 17.2106 33.0389 17.2106H5.04969C4.95569 16.8805 4.90833 16.539 4.90898 16.1958C4.9087 15.7047 5.00515 15.2183 5.19282 14.7645C5.38049 14.3107 5.65571 13.8983 6.00276 13.5509C6.34982 13.2034 6.76191 12.9277 7.21551 12.7395C7.6691 12.5513 8.15533 12.4543 8.64641 12.4541H25.9947C26.8836 12.4595 27.7648 12.2897 28.5879 11.9542C29.4111 11.6187 30.16 11.1242 30.7918 10.499L30.8024 10.4883V10.4755C31.8161 9.47016 32.5747 8.23697 33.0149 6.87882C33.4552 5.52067 33.5643 4.07695 33.3331 2.66807C34.0204 3.0274 34.6482 3.49051 35.1944 4.04109C36.1059 4.95246 36.7723 6.07942 37.1316 7.3173C37.4909 8.55517 37.5315 9.86378 37.2497 11.1215H35.8596C35.6809 11.1215 35.5095 11.1925 35.3832 11.3189C35.2568 11.4452 35.1859 11.6166 35.1859 11.7953C35.1859 11.9739 35.2568 12.1453 35.3832 12.2717C35.5095 12.398 35.6809 12.469 35.8596 12.469H37.74C38.6755 12.5445 39.5483 12.9694 40.1847 13.6592C40.8211 14.3489 41.1746 15.253 41.1747 16.1915C41.1754 16.5347 41.128 16.8763 41.034 17.2063H35.7317C35.553 17.2063 35.3816 17.2773 35.2553 17.4037C35.1289 17.53 35.0579 17.7014 35.0579 17.8801C35.0579 18.0588 35.1289 18.2301 35.2553 18.3565C35.3816 18.4828 35.553 18.5538 35.7317 18.5538H43.5669C43.7761 18.5538 43.9767 18.6369 44.1247 18.7848C44.2726 18.9328 44.3557 19.1334 44.3557 19.3426C44.3557 19.5519 44.2726 19.7525 44.1247 19.9004C43.9767 20.0484 43.7761 20.1315 43.5669 20.1315H2.51471C2.30587 20.1309 2.10577 20.0476 1.95829 19.8997C1.81081 19.7518 1.72799 19.5515 1.72799 19.3426ZM3.30782 21.4747H42.7759V23.0524H3.30782V21.4747ZM1.72799 27.5254V24.3998H44.3557V27.5254H1.72799Z" fill="#EC1C23"/>
</svg>
