<svg width="53" height="29" viewBox="0 0 53 29" fill="none" xmlns="http://www.w3.org/2000/svg">
<path d="M25.3738 9.28284C25.2725 9.25352 25.1665 9.24447 25.0618 9.25619C24.957 9.26792 24.8556 9.30019 24.7634 9.35117C24.6711 9.40214 24.5898 9.47082 24.5242 9.55326C24.4585 9.6357 24.4097 9.73028 24.3807 9.8316L23.7858 11.8664C23.7264 12.0695 23.75 12.288 23.8515 12.4738C23.9531 12.6595 24.1242 12.7974 24.3273 12.8571C24.428 12.8875 24.5338 12.8976 24.6385 12.8868C24.7432 12.876 24.8447 12.8445 24.9371 12.7941C25.0295 12.7438 25.111 12.6755 25.1768 12.5933C25.2426 12.5112 25.2914 12.4168 25.3204 12.3156L25.9153 10.2784C25.9454 10.1775 25.9553 10.0716 25.9444 9.96682C25.9335 9.86206 25.9019 9.7605 25.8516 9.66797C25.8013 9.57545 25.7332 9.49379 25.6512 9.42769C25.5691 9.36159 25.4749 9.31237 25.3738 9.28284Z" fill="#EC1C23"/>
<path d="M16.1226 9.83159C16.0936 9.73067 16.045 9.63645 15.9795 9.55432C15.9141 9.47218 15.8331 9.40374 15.7413 9.3529C15.6494 9.30205 15.5484 9.2698 15.444 9.25799C15.3397 9.24618 15.234 9.25503 15.1331 9.28405C15.0322 9.31307 14.938 9.36168 14.8558 9.42711C14.7737 9.49253 14.7053 9.5735 14.6544 9.66538C14.6036 9.75726 14.5713 9.85826 14.5595 9.9626C14.5477 10.0669 14.5566 10.1726 14.5856 10.2735L15.1805 12.3107C15.2292 12.4766 15.3302 12.6222 15.4685 12.7259C15.6068 12.8296 15.7749 12.8859 15.9478 12.8862C16.0235 12.8858 16.0987 12.8743 16.1711 12.8522C16.2721 12.8232 16.3663 12.7745 16.4484 12.7089C16.5304 12.6433 16.5987 12.5621 16.6493 12.47C16.6998 12.378 16.7317 12.2768 16.743 12.1724C16.7542 12.0679 16.7448 11.9623 16.7151 11.8615L16.1226 9.83159Z" fill="#EC1C23"/>
<path d="M34.0252 16.0816C33.9785 15.9877 33.9137 15.9039 33.8345 15.8352C33.7553 15.7665 33.6632 15.7141 33.5637 15.6812C33.4641 15.6482 33.359 15.6353 33.2544 15.6432C33.1498 15.6511 33.0479 15.6796 32.9544 15.7271L31.058 16.6814C30.897 16.7622 30.7681 16.8951 30.6922 17.0584C30.6162 17.2217 30.5977 17.4059 30.6396 17.5811C30.6815 17.7562 30.7813 17.9121 30.923 18.0234C31.0646 18.1347 31.2397 18.1948 31.4198 18.1941C31.5437 18.1931 31.6657 18.1641 31.7767 18.1091L33.6731 17.1548C33.8621 17.0592 34.0053 16.8924 34.0713 16.6911C34.1374 16.4899 34.1208 16.2706 34.0252 16.0816Z" fill="#EC1C23"/>
<path d="M9.44516 16.6814L7.54393 15.7271C7.3546 15.6305 7.13465 15.6131 6.93247 15.6786C6.73029 15.7442 6.56244 15.8874 6.46584 16.0768C6.36924 16.2661 6.35182 16.486 6.41739 16.6882C6.48296 16.8904 6.62616 17.0582 6.81549 17.1548L8.71187 18.1091C8.80542 18.1563 8.90737 18.1846 9.01187 18.1923C9.11637 18.2 9.22137 18.187 9.32084 18.1541C9.42032 18.1211 9.51232 18.0689 9.59156 18.0004C9.67081 17.9318 9.73576 17.8483 9.78267 17.7546C9.87934 17.5674 9.8981 17.3495 9.83489 17.1485C9.77167 16.9475 9.6316 16.7796 9.44516 16.6814Z" fill="#EC1C23"/>
<path d="M6.40273 24.4004L4.29026 24.5849C4.08385 24.601 3.89174 24.6965 3.75441 24.8515C3.61708 25.0064 3.54525 25.2086 3.55407 25.4154C3.56288 25.6222 3.65165 25.8176 3.80167 25.9603C3.95168 26.1029 4.15122 26.1818 4.35824 26.1802H4.42866L6.54357 25.9933C6.75479 25.9746 6.94995 25.8728 7.0861 25.7102C7.22225 25.5476 7.28825 25.3376 7.26958 25.1264C7.2509 24.9152 7.14908 24.72 6.98652 24.5839C6.82395 24.4477 6.61396 24.3817 6.40273 24.4004Z" fill="#EC1C23"/>
<path d="M48.3706 18.2087L46.2581 18.0217C46.0469 18.003 45.8369 18.069 45.6744 18.2052C45.5118 18.3413 45.41 18.5365 45.3913 18.7477C45.3726 18.9589 45.4386 19.1689 45.5748 19.3315C45.7109 19.4941 45.9061 19.5959 46.1173 19.6145L48.2322 19.7991H48.3026C48.5054 19.7945 48.6989 19.7129 48.8437 19.5709C48.9886 19.4289 49.074 19.2372 49.0827 19.0345C49.0913 18.8318 49.0225 18.6335 48.8903 18.4797C48.7581 18.3258 48.5723 18.2281 48.3706 18.2062V18.2087Z" fill="#EC1C23"/>
<path d="M50.8838 16.2904C49.711 15.0764 48.9194 12.6482 49.1549 10.968C49.3066 9.8334 49.016 8.68397 48.3434 7.75778C47.6708 6.83158 46.6677 6.19959 45.5419 5.99272C43.8786 5.70134 41.805 4.19347 41.0134 2.7026C40.4687 1.69553 39.5575 0.936611 38.4685 0.583111C37.3796 0.229611 36.1963 0.308632 35.164 0.803798C33.6464 1.54438 31.0848 1.54438 29.5793 0.803798C28.5457 0.304958 27.3596 0.22395 26.2677 0.577638C25.1759 0.931325 24.2626 1.69246 23.7178 2.7026C22.9262 4.1959 20.8526 5.70377 19.199 5.99272C18.442 6.12425 17.7337 6.45533 17.1473 6.95183C16.1347 6.5592 15.0136 6.54951 13.9943 6.92458C12.9751 7.29964 12.1277 8.03369 11.6111 8.98904C10.8195 10.4799 8.74592 11.9854 7.08508 12.2767C5.95748 12.4814 4.95202 13.1125 4.27742 14.0389C3.60283 14.9654 3.31092 16.116 3.4623 17.252C3.70511 18.925 2.90626 21.3628 1.73347 22.5769C0.937141 23.4013 0.495247 24.5047 0.502405 25.6509C0.503048 26.2895 0.757028 26.9018 1.20861 27.3534C1.66019 27.805 2.27248 28.059 2.91111 28.0596H37.5922C38.2306 28.0583 38.8425 27.8041 39.294 27.3527C39.7454 26.9012 39.9996 26.2893 40.0009 25.6509C40.008 24.5047 39.5661 23.4013 38.7698 22.5769C38.5367 22.3313 38.3299 22.0619 38.1531 21.7732H49.7061C50.3449 21.7732 50.9576 21.5194 51.4093 21.0677C51.861 20.6159 52.1148 20.0033 52.1148 19.3645C52.1209 18.2185 51.6792 17.1154 50.8838 16.2904ZM38.4032 25.6509C38.4025 25.8658 38.3169 26.0717 38.1649 26.2236C38.013 26.3756 37.807 26.4613 37.5922 26.4619H2.91111C2.69622 26.4613 2.49031 26.3756 2.33836 26.2236C2.18641 26.0717 2.10076 25.8658 2.10012 25.6509C2.09397 24.9191 2.37463 24.214 2.88198 23.6865C4.39956 22.1155 5.35867 19.1921 5.04302 17.0286C4.94688 16.304 5.13298 15.5702 5.5628 14.9791C5.99263 14.3879 6.63327 13.9846 7.35217 13.8526C9.5035 13.4738 11.9923 11.6673 13.017 9.72476C13.3644 9.08142 13.946 8.59644 14.6413 8.3704C15.3366 8.14436 16.0922 8.1946 16.7515 8.5107C18.7134 9.48195 21.7874 9.48195 23.7518 8.5107C24.4111 8.19521 25.1666 8.14529 25.8617 8.37128C26.5568 8.59727 27.1385 9.08186 27.4863 9.72476C28.5109 11.6673 30.9998 13.4617 33.1511 13.8526C33.8713 13.9829 34.5138 14.3855 34.9451 14.9769C35.3764 15.5683 35.5635 16.303 35.4675 17.0286C35.1616 19.1921 36.111 22.1277 37.6286 23.6865C38.1328 24.2154 38.4107 24.9202 38.4032 25.6509ZM50.2792 19.9399C50.2046 20.0165 50.1155 20.0774 50.0171 20.119C49.9187 20.1607 49.813 20.1824 49.7061 20.1827H37.41C37.0726 19.2508 36.9474 18.2554 37.0434 17.269C37.1949 16.1343 36.9039 14.9849 36.2308 14.0591C35.5576 13.1332 34.554 12.5019 33.4279 12.2962C31.7671 12.0024 29.6934 10.4969 28.9019 9.00603C28.3605 7.99495 27.4502 7.23141 26.3604 6.87416C25.2705 6.5169 24.0849 6.59342 23.0501 7.08781C22.0642 7.57344 20.6365 7.73855 19.3423 7.59286L19.4661 7.56615C21.6175 7.18979 24.1063 5.38083 25.131 3.45289C25.4779 2.80911 26.0595 2.32374 26.755 2.09765C27.4504 1.87155 28.2063 1.92211 28.8654 2.23883C30.8274 3.19794 33.9014 3.19794 35.8658 2.23883C36.5249 1.92211 37.2808 1.87155 37.9762 2.09765C38.6717 2.32374 39.2533 2.80911 39.6002 3.45289C40.6249 5.38083 43.1137 7.18979 45.2651 7.56615C45.9844 7.69814 46.6255 8.1018 47.0554 8.69351C47.4852 9.28522 47.671 10.0196 47.5742 10.7446C47.2658 12.908 48.2177 15.8437 49.7353 17.4025C50.2448 17.9289 50.5273 18.6343 50.522 19.3669C50.5215 19.4737 50.4998 19.5794 50.4581 19.6778C50.4164 19.7762 50.3556 19.8653 50.2792 19.9399Z" fill="#EC1C23"/>
<path d="M46.1853 9.7029C46.09 9.51354 45.9236 9.36966 45.7224 9.30276C45.5213 9.23586 45.3018 9.2514 45.1121 9.34597L43.2157 10.3002C43.0548 10.3811 42.9258 10.5139 42.8499 10.6772C42.7739 10.8406 42.7554 11.0247 42.7973 11.1999C42.8392 11.3751 42.9391 11.531 43.0807 11.6423C43.2223 11.7535 43.3974 11.8137 43.5775 11.813C43.7015 11.8132 43.8238 11.784 43.9344 11.728L45.8308 10.7737C46.0191 10.678 46.162 10.5118 46.2284 10.3113C46.2948 10.1107 46.2793 9.89208 46.1853 9.7029Z" fill="#EC1C23"/>
<path d="M37.5314 2.90657C37.3279 2.84708 37.1091 2.87066 36.923 2.97215C36.7369 3.07364 36.5985 3.24476 36.5383 3.44804L35.9531 5.48524C35.8939 5.68874 35.9179 5.90744 36.0199 6.09323C36.1219 6.27902 36.2935 6.41668 36.497 6.47592C36.7005 6.53517 36.9192 6.51115 37.105 6.40915C37.2908 6.30715 37.4285 6.13552 37.4877 5.93202L38.0826 3.89724C38.1118 3.79601 38.1208 3.68998 38.1088 3.58528C38.0969 3.48058 38.0644 3.37927 38.0132 3.28719C37.962 3.1951 37.893 3.11407 37.8103 3.04874C37.7276 2.98342 37.6329 2.9351 37.5314 2.90657Z" fill="#EC1C23"/>
<path d="M28.2803 3.44804C28.2207 3.24454 28.0827 3.07304 27.8967 2.97127C27.8046 2.92087 27.7035 2.88912 27.5991 2.87781C27.4947 2.8665 27.3892 2.87586 27.2884 2.90535C27.1876 2.93485 27.0937 2.9839 27.0119 3.04971C26.9301 3.11552 26.862 3.1968 26.8116 3.2889C26.7098 3.47492 26.6861 3.69375 26.7457 3.89724L27.3406 5.93202C27.3699 6.03278 27.4188 6.12678 27.4845 6.20865C27.5501 6.29051 27.6313 6.35864 27.7233 6.40915C27.8153 6.45965 27.9163 6.49155 28.0206 6.503C28.125 6.51446 28.2305 6.50526 28.3313 6.47592C28.432 6.44659 28.526 6.39769 28.6079 6.33203C28.6898 6.26637 28.7579 6.18522 28.8084 6.09323C28.8589 6.00124 28.8908 5.9002 28.9023 5.79588C28.9137 5.69156 28.9045 5.58601 28.8752 5.48524L28.2803 3.44804Z" fill="#EC1C23"/>
<path d="M36.213 24.5849L34.1005 24.4004C33.994 24.387 33.8859 24.3953 33.7826 24.4247C33.6794 24.454 33.5831 24.5039 33.4995 24.5713C33.416 24.6387 33.3469 24.7223 33.2963 24.817C33.2458 24.9117 33.2149 25.0157 33.2054 25.1226C33.1959 25.2295 33.2081 25.3373 33.2412 25.4394C33.2743 25.5415 33.3277 25.6359 33.3981 25.717C33.4685 25.798 33.5545 25.864 33.651 25.9111C33.7475 25.9581 33.8525 25.9853 33.9597 25.9908L36.0746 26.1778H36.145C36.352 26.1794 36.5516 26.1005 36.7016 25.9578C36.8516 25.8152 36.9404 25.6198 36.9492 25.413C36.958 25.2061 36.8862 25.004 36.7489 24.849C36.6115 24.6941 36.4194 24.5986 36.213 24.5825V24.5849Z" fill="#EC1C23"/>
</svg>
