<svg width="64" height="59" viewBox="0 0 64 59" fill="none" xmlns="http://www.w3.org/2000/svg">
<path d="M23.4531 10.0219C24.2345 9.50254 24.8753 8.79809 25.3186 7.97121C25.7619 7.14433 25.9938 6.22068 25.9938 5.28247C25.9938 4.34427 25.7619 3.42062 25.3186 2.59374C24.8753 1.76686 24.2345 1.0624 23.4531 0.543073C23.1801 0.367936 22.8492 0.307026 22.5317 0.37346C22.2143 0.439894 21.9356 0.628358 21.7557 0.898265C21.5758 1.16817 21.5091 1.49793 21.57 1.81652C21.6309 2.13512 21.8144 2.41706 22.0811 2.60164C22.5259 2.89241 22.8906 3.29027 23.1415 3.75869C23.3925 4.22711 23.5218 4.75108 23.5174 5.28247C23.5218 5.81387 23.3925 6.33784 23.1415 6.80626C22.8906 7.27468 22.5259 7.67254 22.0811 7.96331C21.3013 8.4838 20.662 9.18865 20.2199 10.0154C19.7777 10.8421 19.5464 11.7652 19.5464 12.7027C19.5464 13.6402 19.7777 14.5633 20.2199 15.39C20.662 16.2168 21.3013 16.9216 22.0811 17.4421C22.2161 17.537 22.3687 17.6039 22.5299 17.6389C22.6911 17.674 22.8577 17.6764 23.0199 17.6461C23.182 17.6158 23.3365 17.5533 23.4742 17.4624C23.6118 17.3716 23.73 17.254 23.8215 17.1168C23.9131 16.9796 23.9763 16.8255 24.0075 16.6634C24.0386 16.5014 24.037 16.3348 24.0028 16.1735C23.9686 16.0121 23.9024 15.8591 23.8082 15.7237C23.7141 15.5883 23.5937 15.473 23.4543 15.3848C23.0132 15.0903 22.6514 14.6915 22.4013 14.2238C22.1511 13.756 22.0203 13.2338 22.0203 12.7033C22.0203 12.1729 22.1511 11.6506 22.4013 11.1829C22.6514 10.7152 23.0132 10.3164 23.4543 10.0219H23.4531Z" fill="#EC1C23"/>
<path d="M32.7291 10.0219C33.5105 9.50254 34.1513 8.79809 34.5946 7.97121C35.0379 7.14433 35.2698 6.22068 35.2698 5.28247C35.2698 4.34427 35.0379 3.42062 34.5946 2.59374C34.1513 1.76686 33.5105 1.0624 32.7291 0.543073C32.4561 0.367936 32.1252 0.307026 31.8077 0.37346C31.4903 0.439894 31.2116 0.628358 31.0317 0.898265C30.8518 1.16817 30.7851 1.49793 30.846 1.81652C30.9069 2.13512 31.0904 2.41706 31.3571 2.60164C31.8019 2.89241 32.1666 3.29027 32.4175 3.75869C32.6685 4.22711 32.7978 4.75108 32.7934 5.28247C32.7978 5.81387 32.6685 6.33784 32.4175 6.80626C32.1666 7.27468 31.8019 7.67254 31.3571 7.96331C30.5773 8.4838 29.938 9.18865 29.4959 10.0154C29.0537 10.8421 28.8224 11.7652 28.8224 12.7027C28.8224 13.6402 29.0537 14.5633 29.4959 15.39C29.938 16.2168 30.5773 16.9216 31.3571 17.4421C31.4921 17.537 31.6447 17.6039 31.8059 17.6389C31.9671 17.674 32.1337 17.6764 32.2959 17.6461C32.458 17.6158 32.6125 17.5533 32.7502 17.4624C32.8878 17.3716 33.006 17.254 33.0975 17.1168C33.1891 16.9796 33.2523 16.8255 33.2835 16.6634C33.3146 16.5014 33.313 16.3348 33.2788 16.1735C33.2446 16.0121 33.1784 15.8591 33.0842 15.7237C32.9901 15.5883 32.8697 15.473 32.7303 15.3848C32.2892 15.0903 31.9275 14.6915 31.6773 14.2238C31.4271 13.756 31.2963 13.2338 31.2963 12.7033C31.2963 12.1729 31.4271 11.6506 31.6773 11.1829C31.9275 10.7152 32.2892 10.3164 32.7303 10.0219H32.7291Z" fill="#EC1C23"/>
<path d="M42.005 10.0219C42.7863 9.50254 43.4272 8.79809 43.8705 7.97121C44.3137 7.14433 44.5457 6.22068 44.5457 5.28247C44.5457 4.34427 44.3137 3.42062 43.8705 2.59374C43.4272 1.76686 42.7863 1.0624 42.005 0.543073C41.732 0.367936 41.4011 0.307026 41.0836 0.37346C40.7661 0.439894 40.4874 0.628358 40.3076 0.898265C40.1277 1.16817 40.061 1.49793 40.1219 1.81652C40.1827 2.13512 40.3663 2.41706 40.633 2.60164C41.0778 2.89241 41.4425 3.29027 41.6934 3.75869C41.9444 4.22711 42.0736 4.75108 42.0693 5.28247C42.0736 5.81387 41.9444 6.33784 41.6934 6.80626C41.4425 7.27468 41.0778 7.67254 40.633 7.96331C39.8532 8.4838 39.2139 9.18865 38.7718 10.0154C38.3296 10.8421 38.0983 11.7652 38.0983 12.7027C38.0983 13.6402 38.3296 14.5633 38.7718 15.39C39.2139 16.2168 39.8532 16.9216 40.633 17.4421C40.768 17.537 40.9206 17.6039 41.0818 17.6389C41.243 17.674 41.4096 17.6764 41.5717 17.6461C41.7339 17.6158 41.8884 17.5533 42.0261 17.4624C42.1637 17.3716 42.2818 17.254 42.3734 17.1168C42.465 16.9796 42.5282 16.8255 42.5594 16.6634C42.5905 16.5014 42.5889 16.3348 42.5547 16.1735C42.5205 16.0121 42.4543 15.8591 42.3601 15.7237C42.2659 15.5883 42.1456 15.473 42.0062 15.3848C41.565 15.0903 41.2033 14.6915 40.9532 14.2238C40.703 13.756 40.5721 13.2338 40.5721 12.7033C40.5721 12.1729 40.703 11.6506 40.9532 11.1829C41.2033 10.7152 41.565 10.3164 42.0062 10.0219H42.005Z" fill="#EC1C23"/>
<path d="M32.2713 25.0418C32.9545 25.0418 33.5084 24.4879 33.5084 23.8047C33.5084 23.1214 32.9545 22.5676 32.2713 22.5676C31.5881 22.5676 31.0342 23.1214 31.0342 23.8047C31.0342 24.4879 31.5881 25.0418 32.2713 25.0418Z" fill="#EC1C23"/>
<path d="M62.4483 22.5737H48.7089L63.6941 2.2775C63.7906 2.14664 63.8604 1.99805 63.8995 1.84022C63.9385 1.68239 63.9462 1.51841 63.9219 1.35764C63.8976 1.19687 63.8418 1.04246 63.7579 0.903222C63.6739 0.763988 63.5633 0.642656 63.4325 0.546154C63.3016 0.449653 63.153 0.379871 62.9952 0.340794C62.8373 0.301717 62.6734 0.294109 62.5126 0.318406C62.3518 0.342702 62.1974 0.398427 62.0582 0.482398C61.9189 0.566369 61.7976 0.676943 61.7011 0.807805L45.6322 22.5737H37.8383C37.5102 22.5737 37.1956 22.704 36.9636 22.936C36.7315 23.168 36.6012 23.4827 36.6012 23.8108C36.6012 24.1389 36.7315 24.4536 36.9636 24.6856C37.1956 24.9176 37.5102 25.0479 37.8383 25.0479H61.3436C62.4805 36.9044 55.1258 44.7292 43.6887 48.5532H20.8477C8.36151 44.3766 2.13015 36.0583 3.19902 25.0479H26.7043C27.0324 25.0479 27.347 24.9176 27.579 24.6856C27.811 24.4536 27.9414 24.1389 27.9414 23.8108C27.9414 23.4827 27.811 23.168 27.579 22.936C27.347 22.704 27.0324 22.5737 26.7043 22.5737H2.09303C1.79423 22.5739 1.50559 22.6822 1.28046 22.8787C1.05533 23.0752 0.908925 23.3465 0.868288 23.6425C-0.950276 36.9131 6.66295 46.2026 19.4053 50.6637V57.1981C19.4053 57.5262 19.5356 57.8409 19.7676 58.0729C19.9996 58.3049 20.3143 58.4353 20.6424 58.4353H43.9002C44.2283 58.4353 44.543 58.3049 44.775 58.0729C45.007 57.8409 45.1373 57.5262 45.1373 57.1981V50.6637C57.7497 46.2348 65.5127 37.0319 63.678 23.6364C63.6374 23.3401 63.4908 23.0686 63.2654 22.8721C63.04 22.6756 62.7511 22.5674 62.452 22.5675L62.4483 22.5737ZM21.8795 55.961V51.0125H42.6631V55.961H21.8795Z" fill="#EC1C23"/>
</svg>
