<svg width="87" height="55" viewBox="0 0 87 55" fill="none" xmlns="http://www.w3.org/2000/svg">
<path d="M80.0204 23.471L77.7999 14.5958C78.1007 14.5321 78.3703 14.3668 78.5636 14.1277C78.7569 13.8887 78.8621 13.5904 78.8616 13.283V11.8462C78.8603 10.3513 78.2658 8.91796 77.2087 7.86088C76.1516 6.80379 74.7183 6.20934 73.2234 6.20801H63.1108V3.2541C63.1103 2.51833 62.8178 1.81283 62.2976 1.29256C61.7773 0.772293 61.0718 0.479814 60.336 0.47937L8.78661 0.47937C8.05098 0.480256 7.34573 0.772878 6.82556 1.29305C6.30539 1.81322 6.01277 2.51847 6.01188 3.2541V27.5971C6.01188 27.9524 6.15302 28.2931 6.40425 28.5443C6.65548 28.7956 6.99623 28.9367 7.35152 28.9367C7.70682 28.9367 8.04756 28.7956 8.29879 28.5443C8.55002 28.2931 8.69116 27.9524 8.69116 27.5971V3.2541C8.69116 3.23041 8.70046 3.20766 8.71705 3.19075C8.73365 3.17384 8.75622 3.16412 8.77991 3.16368H60.336C60.3479 3.16368 60.3597 3.16602 60.3706 3.17056C60.3816 3.1751 60.3916 3.18177 60.4 3.19016C60.4084 3.19856 60.415 3.20853 60.4196 3.2195C60.4241 3.23047 60.4264 3.24223 60.4264 3.2541V27.5971C60.4264 27.9524 60.5676 28.2931 60.8188 28.5443C61.07 28.7956 61.4108 28.9367 61.7661 28.9367C62.1214 28.9367 62.4621 28.7956 62.7134 28.5443C62.9646 28.2931 63.1057 27.9524 63.1057 27.5971V26.0749H78.9487C79.8766 26.0754 80.7805 26.3698 81.5308 26.9158C82.2811 27.4618 82.8392 28.2314 83.125 29.1142H78.952C78.5967 29.1142 78.256 29.2553 78.0047 29.5066C77.7535 29.7578 77.6124 30.0986 77.6124 30.4538V33.3173C77.6137 34.4326 78.0573 35.5017 78.8459 36.2903C79.6345 37.0789 80.7036 37.5225 81.8188 37.5238H83.3427V43.43H79.8261C79.2504 41.756 78.1664 40.3036 76.7254 39.2754C75.2845 38.2473 73.5585 37.6946 71.7883 37.6946C70.0181 37.6946 68.2921 38.2473 66.8511 39.2754C65.4102 40.3036 64.3262 41.756 63.7504 43.43H63.1041V33.324C63.1041 32.9687 62.9629 32.628 62.7117 32.3768C62.4604 32.1255 62.1197 31.9844 61.7644 31.9844C61.4091 31.9844 61.0684 32.1255 60.8171 32.3768C60.5659 32.628 60.4248 32.9687 60.4248 33.324V43.4367H32.5736C31.9979 41.7627 30.9139 40.3103 29.4729 39.2821C28.032 38.254 26.3059 37.7013 24.5358 37.7013C22.7656 37.7013 21.0396 38.254 19.5986 39.2821C18.1577 40.3103 17.0737 41.7627 16.4979 43.4367H8.78661C8.76307 43.4367 8.7405 43.4273 8.72386 43.4107C8.70721 43.394 8.69786 43.3714 8.69786 43.3479V40.394H14.5186C14.8739 40.394 15.2146 40.2528 15.4659 40.0016C15.7171 39.7504 15.8582 39.4096 15.8582 39.0543C15.8582 38.6991 15.7171 38.3583 15.4659 38.1071C15.2146 37.8558 14.8739 37.7147 14.5186 37.7147H1.62455C1.26926 37.7147 0.928516 37.8558 0.677284 38.1071C0.426053 38.3583 0.284912 38.6991 0.284912 39.0543C0.284912 39.4096 0.426053 39.7504 0.677284 40.0016C0.928516 40.2528 1.26926 40.394 1.62455 40.394H6.01355V43.3479C6.01444 44.0832 6.30683 44.7882 6.82664 45.3084C7.34645 45.8285 8.05127 46.1213 8.78661 46.1226H16.0391C16.0391 46.1511 16.0391 46.1812 16.0391 46.2114C16.0705 48.4457 16.9801 50.5779 18.5712 52.1469C20.1623 53.7158 22.3071 54.5954 24.5416 54.5954C26.7762 54.5954 28.921 53.7158 30.5121 52.1469C32.1032 50.5779 33.0128 48.4457 33.0442 46.2114C33.0442 46.1812 33.0442 46.1511 33.0442 46.1226H63.2916C63.2916 46.1511 63.2916 46.1812 63.2916 46.2114C63.2916 48.4662 64.1873 50.6286 65.7817 52.223C67.3761 53.8174 69.5385 54.7131 71.7933 54.7131C74.0481 54.7131 76.2105 53.8174 77.8049 52.223C79.3993 50.6286 80.295 48.4662 80.295 46.2114C80.295 46.1812 80.295 46.1511 80.295 46.1226H84.6823C85.0376 46.1226 85.3784 45.9815 85.6296 45.7303C85.8808 45.479 86.022 45.1383 86.022 44.783V30.4538C86.0178 28.7657 85.4109 27.1345 84.3105 25.8542C83.2102 24.574 81.6887 23.7288 80.0204 23.471ZM63.1074 8.89232H73.22C74.0032 8.89321 74.754 9.20471 75.3078 9.75848C75.8615 10.3123 76.173 11.0631 76.1739 11.8462V11.935H63.1124L63.1074 8.89232ZM63.1074 23.3906V14.6193H75.0369L77.2289 23.3906H63.1074ZM24.5358 52.0254C23.3851 52.0258 22.2602 51.6849 21.3033 51.0458C20.3465 50.4068 19.6006 49.4984 19.16 48.4354C18.7194 47.3725 18.604 46.2027 18.8283 45.0741C19.0526 43.9456 19.6065 42.9089 20.42 42.0951C21.2335 41.2814 22.2701 40.7271 23.3986 40.5025C24.5271 40.2779 25.6968 40.3931 26.7599 40.8333C27.823 41.2736 28.7317 42.0192 29.371 42.9759C30.0103 43.9326 30.3515 45.0574 30.3515 46.208C30.3511 47.7502 29.7388 49.2292 28.6491 50.3205C27.5594 51.4117 26.0813 52.0261 24.5391 52.0288L24.5358 52.0254ZM71.7883 52.0254C70.6377 52.0254 69.513 51.6842 68.5563 51.045C67.5996 50.4058 66.854 49.4972 66.4137 48.4343C65.9734 47.3713 65.8582 46.2016 66.0827 45.0731C66.3071 43.9447 66.8612 42.9081 67.6748 42.0945C68.4883 41.2809 69.5249 40.7269 70.6534 40.5024C71.7818 40.278 72.9515 40.3932 74.0145 40.8335C75.0775 41.2738 75.986 42.0194 76.6253 42.9761C77.2645 43.9327 77.6057 45.0575 77.6057 46.208C77.6048 47.7509 76.9917 49.2304 75.901 50.3218C74.8103 51.4131 73.3312 52.027 71.7883 52.0288V52.0254ZM83.3427 34.8429H81.8205C81.4171 34.8424 81.0304 34.6818 80.7453 34.3964C80.4602 34.111 80.3 33.7241 80.3 33.3207V31.8002H83.3427V34.8429Z" fill="#EC1C23"/>
<path d="M24.5391 43.4366C23.9902 43.4363 23.4536 43.5987 22.9971 43.9034C22.5406 44.2081 22.1847 44.6413 21.9744 45.1483C21.7641 45.6553 21.7089 46.2133 21.8158 46.7516C21.9227 47.29 22.1868 47.7845 22.5748 48.1728C22.9628 48.561 23.4572 48.8254 23.9955 48.9326C24.5338 49.0398 25.0918 48.985 25.5989 48.775C26.106 48.565 26.5395 48.2094 26.8444 47.753C27.1494 47.2967 27.3122 46.7602 27.3122 46.2113C27.3113 45.476 27.0189 44.771 26.4991 44.2509C25.9793 43.7307 25.2744 43.4379 24.5391 43.4366Z" fill="#EC1C23"/>
<path d="M71.7883 43.4366C71.2395 43.4366 70.703 43.5993 70.2467 43.9042C69.7904 44.2091 69.4348 44.6425 69.2248 45.1495C69.0148 45.6565 68.9598 46.2144 69.0669 46.7526C69.1739 47.2909 69.4382 47.7853 69.8263 48.1734C70.2143 48.5614 70.7087 48.8257 71.247 48.9327C71.7852 49.0398 72.3431 48.9848 72.8501 48.7748C73.3571 48.5648 73.7905 48.2092 74.0954 47.7529C74.4003 47.2966 74.563 46.7601 74.563 46.2113C74.5621 45.4757 74.2695 44.7704 73.7493 44.2503C73.2292 43.7301 72.5239 43.4375 71.7883 43.4366Z" fill="#EC1C23"/>
<path d="M56.0475 37.7097H35.9931C35.6378 37.7097 35.297 37.8508 35.0458 38.102C34.7946 38.3533 34.6534 38.694 34.6534 39.0493C34.6534 39.4046 34.7946 39.7453 35.0458 39.9966C35.297 40.2478 35.6378 40.3889 35.9931 40.3889H56.0475C56.4028 40.3889 56.7436 40.2478 56.9948 39.9966C57.246 39.7453 57.3872 39.4046 57.3872 39.0493C57.3872 38.694 57.246 38.3533 56.9948 38.102C56.7436 37.8508 56.4028 37.7097 56.0475 37.7097Z" fill="#EC1C23"/>
<path d="M21.674 31.9827H4.49137C4.13608 31.9827 3.79534 32.1239 3.54411 32.3751C3.29287 32.6263 3.15173 32.9671 3.15173 33.3224C3.15173 33.6777 3.29287 34.0184 3.54411 34.2696C3.79534 34.5209 4.13608 34.662 4.49137 34.662H21.674C22.0292 34.662 22.37 34.5209 22.6212 34.2696C22.8725 34.0184 23.0136 33.6777 23.0136 33.3224C23.0136 32.9671 22.8725 32.6263 22.6212 32.3751C22.37 32.1239 22.0292 31.9827 21.674 31.9827Z" fill="#EC1C23"/>
<path d="M46.9665 13.7602C46.842 13.6351 46.694 13.5359 46.5311 13.4682C46.3682 13.4005 46.1934 13.3656 46.017 13.3656C45.8405 13.3656 45.6658 13.4005 45.5029 13.4682C45.34 13.5359 45.192 13.6351 45.0675 13.7602L33.1296 25.6981L26.9187 19.4871C26.6669 19.2356 26.3255 19.0943 25.9695 19.0945C25.6135 19.0946 25.2722 19.2362 25.0206 19.488C24.769 19.7398 24.6278 20.0812 24.6279 20.4372C24.6281 20.7932 24.7696 21.1345 25.0215 21.3861L32.1802 28.5465C32.3046 28.6715 32.4526 28.7708 32.6155 28.8385C32.7785 28.9062 32.9532 28.9411 33.1296 28.9411C33.3061 28.9411 33.4808 28.9062 33.6437 28.8385C33.8067 28.7708 33.9546 28.6715 34.0791 28.5465L46.9732 15.6524C47.2228 15.4004 47.3623 15.0597 47.361 14.7049C47.3598 14.3502 47.2179 14.0104 46.9665 13.7602Z" fill="#EC1C23"/>
</svg>
