<svg width="34" height="50" viewBox="0 0 34 50" fill="none" xmlns="http://www.w3.org/2000/svg">
<path d="M33.1895 13.7754L28.4122 5.81245V1.14567C28.4125 1.03838 28.3916 0.932076 28.3508 0.832856C28.31 0.733636 28.2499 0.643451 28.1742 0.567468C28.0984 0.491486 28.0084 0.4312 27.9093 0.390066C27.8102 0.348932 27.704 0.327758 27.5967 0.327759L6.38744 0.327759C6.17117 0.327759 5.96375 0.413673 5.81083 0.566601C5.6579 0.719529 5.57198 0.926943 5.57198 1.14322V5.80999L0.792225 13.7754C0.715553 13.902 0.675584 14.0474 0.676784 14.1954V48.4692C0.676784 48.6855 0.762698 48.8929 0.915626 49.0458C1.06855 49.1988 1.27597 49.2847 1.49224 49.2847H32.4919C32.7082 49.2847 32.9156 49.1988 33.0685 49.0458C33.2214 48.8929 33.3074 48.6855 33.3074 48.4692V14.1954C33.3078 14.0472 33.267 13.9018 33.1895 13.7754ZM26.1574 6.85387L22.2397 13.38H2.93403L6.84921 6.85387H26.1574ZM27.5967 7.62266L31.0501 13.38H24.1433L27.5967 7.62266ZM23.5194 15.0109H31.6789V19.9061H23.5194V15.0109ZM26.7812 1.95867V5.22296H7.2029V1.95867H26.7812ZM2.3077 15.0109H21.886V19.9061H19.4298C18.7784 19.9061 18.1537 20.1649 17.6931 20.6255C17.2324 21.0861 16.9736 21.7109 16.9736 22.3623C17.0041 22.702 16.9635 23.0443 16.8544 23.3674C16.7453 23.6906 16.5701 23.9874 16.34 24.2392C16.1099 24.4909 15.8298 24.6919 15.5177 24.8294C15.2056 24.9669 14.8683 25.038 14.5273 25.038C14.1862 25.038 13.8489 24.9669 13.5368 24.8294C13.2247 24.6919 12.9447 24.4909 12.7146 24.2392C12.4844 23.9874 12.3092 23.6906 12.2001 23.3674C12.091 23.0443 12.0504 22.702 12.0809 22.3623C12.0294 21.7486 11.7493 21.1766 11.2959 20.7597C10.8426 20.3428 10.2492 20.1114 9.63331 20.1114C9.01742 20.1114 8.42402 20.3428 7.97069 20.7597C7.51736 21.1766 7.23719 21.7486 7.18571 22.3623V23.9957C7.13422 24.6094 6.85405 25.1814 6.40072 25.5983C5.94739 26.0152 5.35399 26.2465 4.73811 26.2465C4.12222 26.2465 3.52882 26.0152 3.07549 25.5983C2.62216 25.1814 2.34199 24.6094 2.29051 23.9957L2.3077 15.0109ZM2.3077 47.6415V27.255C2.9137 27.7114 3.63508 27.9896 4.3906 28.0581C5.14612 28.1267 5.90579 27.983 6.58407 27.6433C7.26235 27.3035 7.83231 26.7811 8.22978 26.1349C8.62725 25.4888 8.83645 24.7445 8.83381 23.9858V22.3525C8.83381 22.1362 8.91973 21.9288 9.07266 21.7759C9.22558 21.6229 9.433 21.537 9.64927 21.537C9.86554 21.537 10.073 21.6229 10.2259 21.7759C10.3788 21.9288 10.4647 22.1362 10.4647 22.3525C10.4647 22.8882 10.5703 23.4188 10.7753 23.9137C10.9803 24.4087 11.2808 24.8585 11.6597 25.2373C12.0385 25.6161 12.4882 25.9166 12.9832 26.1217C13.4782 26.3267 14.0087 26.4322 14.5445 26.4322C15.0802 26.4322 15.6107 26.3267 16.1057 26.1217C16.6007 25.9166 17.0504 25.6161 17.4293 25.2373C17.8081 24.8585 18.1086 24.4087 18.3137 23.9137C18.5187 23.4188 18.6242 22.8882 18.6242 22.3525C18.6242 22.1362 18.7101 21.9288 18.8631 21.7759C19.016 21.6229 19.2234 21.537 19.4397 21.537H21.8959V47.6415H2.3077ZM23.517 47.6415V21.537H31.6764V47.6415H23.517Z" fill="#EC1C23"/>
<path d="M17.8088 32.9583V30.5021C17.8088 30.2852 17.7226 30.0772 17.5692 29.9238C17.4158 29.7704 17.2078 29.6842 16.9909 29.6842H15.36C14.7085 29.6842 14.0838 29.943 13.6232 30.4036C13.1625 30.8642 12.9038 31.489 12.9038 32.1404V32.9559H11.2827V32.1404C11.2827 31.8179 11.2191 31.4985 11.0957 31.2005C10.9723 30.9025 10.7913 30.6317 10.5633 30.4036C10.3352 30.1755 10.0644 29.9946 9.76642 29.8712C9.46842 29.7478 9.14903 29.6842 8.82647 29.6842H7.20293C6.98643 29.6849 6.77902 29.7713 6.62616 29.9246C6.4733 30.078 6.38747 30.2856 6.38747 30.5021V32.9583C6.0488 32.9299 5.70792 32.9721 5.3864 33.0822C5.06487 33.1923 4.76969 33.3679 4.51953 33.598C4.26937 33.8281 4.06968 34.1075 3.93308 34.4187C3.79648 34.7299 3.72595 35.0661 3.72595 35.4059C3.72595 35.7458 3.79648 36.0819 3.93308 36.3931C4.06968 36.7043 4.26937 36.9838 4.51953 37.2139C4.76969 37.4439 5.06487 37.6195 5.3864 37.7297C5.70792 37.8398 6.0488 37.8819 6.38747 37.8535H7.20293V37.9935C6.72677 38.1634 6.31463 38.476 6.02275 38.8888C5.73087 39.3016 5.57346 39.7944 5.57201 40.2999V41.9308C5.57201 42.5822 5.83079 43.207 6.29142 43.6676C6.75204 44.1282 7.37679 44.387 8.02821 44.387H16.1754C16.8268 44.387 17.4516 44.1282 17.9122 43.6676C18.3728 43.207 18.6316 42.5822 18.6316 41.9308V40.2999C18.63 39.7941 18.4722 39.3011 18.1799 38.8883C17.8875 38.4755 17.4749 38.163 16.9982 37.9935V37.8535H17.8162C18.4299 37.802 19.0019 37.5219 19.4188 37.0685C19.8357 36.6152 20.067 36.0218 20.067 35.4059C20.067 34.7901 19.8357 34.1966 19.4188 33.7433C19.0019 33.29 18.4299 33.0098 17.8162 32.9583H17.8088ZM14.5445 32.1429C14.5445 31.9266 14.6304 31.7192 14.7833 31.5663C14.9363 31.4133 15.1437 31.3274 15.36 31.3274H16.1754V32.9583H14.5445V32.1429ZM15.36 37.8535H8.83384V34.5892H15.36V37.8535ZM8.01838 31.3274H8.83384C9.05011 31.3274 9.25753 31.4133 9.41046 31.5663C9.56339 31.7192 9.6493 31.9266 9.6493 32.1429V32.9583H8.01838V31.3274ZM6.38747 36.2202C6.1712 36.2202 5.96378 36.1342 5.81085 35.9813C5.65793 35.8284 5.57201 35.621 5.57201 35.4047C5.57201 35.1884 5.65793 34.981 5.81085 34.8281C5.96378 34.6752 6.1712 34.5892 6.38747 34.5892H7.20293V36.2202H6.38747ZM16.9909 41.9308C16.9912 42.038 16.9703 42.1442 16.9295 42.2433C16.8886 42.3423 16.8285 42.4324 16.7528 42.5082C16.677 42.5839 16.5869 42.644 16.4879 42.6849C16.3888 42.7257 16.2826 42.7466 16.1754 42.7463H8.01838C7.80211 42.7463 7.5947 42.6604 7.44177 42.5074C7.28884 42.3545 7.20293 42.1471 7.20293 41.9308V40.2999C7.20293 40.0836 7.28884 39.8762 7.44177 39.7233C7.5947 39.5704 7.80211 39.4844 8.01838 39.4844H16.1754C16.3917 39.4844 16.5991 39.5704 16.752 39.7233C16.905 39.8762 16.9909 40.0836 16.9909 40.2999V41.9308ZM17.8088 36.2202H16.9909V34.5892H17.8088C18.0251 34.5892 18.2325 34.6752 18.3854 34.8281C18.5383 34.981 18.6242 35.1884 18.6242 35.4047C18.6242 35.621 18.5383 35.8284 18.3854 35.9813C18.2325 36.1342 18.0251 36.2202 17.8088 36.2202Z" fill="#EC1C23"/>
<path d="M9.6492 42.7463C10.0996 42.7463 10.4647 42.3812 10.4647 41.9308C10.4647 41.4805 10.0996 41.1154 9.6492 41.1154C9.19883 41.1154 8.83374 41.4805 8.83374 41.9308C8.83374 42.3812 9.19883 42.7463 9.6492 42.7463Z" fill="#EC1C23"/>
<path d="M14.5445 42.7463C14.9948 42.7463 15.3599 42.3812 15.3599 41.9308C15.3599 41.4805 14.9948 41.1154 14.5445 41.1154C14.0941 41.1154 13.729 41.4805 13.729 41.9308C13.729 42.3812 14.0941 42.7463 14.5445 42.7463Z" fill="#EC1C23"/>
<path d="M29.2276 23.1704H25.9756C25.8683 23.1704 25.7621 23.1916 25.663 23.2327C25.5639 23.2738 25.4739 23.3341 25.3981 23.4101C25.3224 23.4861 25.2624 23.5763 25.2215 23.6755C25.1807 23.7747 25.1598 23.881 25.1602 23.9883V43.5568C25.1602 43.7731 25.2461 43.9805 25.399 44.1334C25.5519 44.2864 25.7593 44.3723 25.9756 44.3723H29.2374C29.4537 44.3723 29.6611 44.2864 29.8141 44.1334C29.967 43.9805 30.0529 43.7731 30.0529 43.5568V23.9858C30.0529 23.8779 30.0315 23.7711 29.9899 23.6715C29.9483 23.5719 29.8874 23.4816 29.8106 23.4057C29.7338 23.3299 29.6428 23.27 29.5427 23.2296C29.4426 23.1892 29.3355 23.1691 29.2276 23.1704ZM28.4122 42.7487H26.7812V24.8013H28.4122V42.7487Z" fill="#EC1C23"/>
</svg>
