<svg width="47" height="53" viewBox="0 0 47 53" fill="none" xmlns="http://www.w3.org/2000/svg">
<path d="M12.5971 25.1277C11.4496 24.3063 10.0291 23.9602 8.63235 24.1618L7.88395 24.268C7.36066 24.3427 6.85113 24.4936 6.3716 24.716L5.33575 22.6443C5.27112 22.515 5.17493 22.404 5.05607 22.3217C4.93721 22.2395 4.79952 22.1885 4.65574 22.1735C4.51195 22.1585 4.36671 22.1801 4.23345 22.2361C4.10019 22.2921 3.9832 22.3808 3.89332 22.4941L0.456876 26.7929C0.367242 26.9057 0.307295 27.0391 0.28251 27.181C0.257725 27.323 0.268892 27.4688 0.314992 27.6053C0.361091 27.7418 0.440653 27.8646 0.546412 27.9624C0.652171 28.0602 0.780755 28.13 0.920421 28.1654L3.25109 28.748C3.25109 28.8076 3.23296 28.8672 3.22261 28.9267C3.09365 29.8623 3.2066 30.8153 3.5507 31.6948C3.89479 32.5743 4.45854 33.3509 5.18814 33.9506C8.51621 36.6677 12.4274 38.5785 16.6162 39.5339V41.0876C16.6197 42.2942 16.9389 43.4789 17.5423 44.5238C18.1456 45.5688 19.012 46.4376 20.0552 47.0438V51.4255C20.0552 51.6535 20.1458 51.8722 20.307 52.0334C20.4683 52.1946 20.687 52.2852 20.915 52.2852H26.0709C26.1847 52.2866 26.2976 52.2654 26.4031 52.2228C26.5087 52.1802 26.6047 52.1171 26.6856 52.0371C26.7665 51.9571 26.8308 51.8619 26.8746 51.7569C26.9185 51.6519 26.9411 51.5392 26.9411 51.4255V47.049C27.9843 46.4425 28.8507 45.5737 29.4545 44.5289C30.0582 43.4841 30.3782 42.2995 30.3827 41.0928V39.539C34.5705 38.5832 38.4807 36.6723 41.8082 33.9558C42.5365 33.3554 43.0989 32.5784 43.4417 31.6989C43.7844 30.8195 43.896 29.8668 43.7659 28.9319L43.7348 28.7558L46.0655 28.1705C46.2851 28.1148 46.4739 27.9749 46.5912 27.7811C46.7085 27.5873 46.7447 27.3551 46.6922 27.1347C46.6612 27.0149 46.6057 26.9029 46.5291 26.8058L43.09 22.507C42.9996 22.3945 42.8823 22.3065 42.749 22.2511C42.6157 22.1957 42.4707 22.1746 42.3271 22.1898C42.1836 22.205 42.0461 22.256 41.9274 22.3381C41.8087 22.4202 41.7125 22.5309 41.6476 22.6598L40.6117 24.7315C40.1322 24.5091 39.6227 24.3582 39.0994 24.2835L38.351 24.1773C36.9531 23.9758 35.5315 24.3229 34.3837 25.1459C33.1503 26.0276 31.8014 26.7352 30.3749 27.2486V24.918C34.5627 23.9621 38.473 22.0513 41.8004 19.3347C42.5286 18.7342 43.0908 17.9572 43.4335 17.0777C43.7763 16.1983 43.888 15.2457 43.7581 14.3108L43.7271 14.1321L46.0577 13.5495C46.2773 13.4937 46.4662 13.3538 46.5834 13.16C46.7007 12.9662 46.737 12.734 46.6844 12.5136C46.6535 12.3939 46.5979 12.2819 46.5213 12.1847L43.0823 7.88595C43.0119 7.79734 42.9248 7.72351 42.8258 7.66874C42.7269 7.61396 42.618 7.57932 42.5056 7.5668C42.3932 7.55428 42.2794 7.56414 42.1708 7.5958C42.0622 7.62747 41.961 7.68031 41.8729 7.75129C41.7761 7.82882 41.6966 7.92588 41.6398 8.03615L40.604 10.1079C40.1244 9.88547 39.6149 9.73453 39.0916 9.65985L38.3432 9.55367C36.9488 9.35091 35.5298 9.69313 34.3811 10.5092C31.5966 12.5063 28.2545 13.5771 24.8279 13.5702H22.1528C18.7255 13.5768 15.3827 12.506 12.5971 10.5092C11.45 9.68693 10.0294 9.33991 8.63235 9.54072L7.88395 9.6469C7.36066 9.72158 6.85113 9.87252 6.3716 10.0949L5.33575 8.0232C5.2335 7.81912 5.0545 7.6639 4.838 7.59157C4.6215 7.51924 4.38516 7.5357 4.18077 7.63734C4.06871 7.69252 3.97047 7.77217 3.89332 7.87041L0.456876 12.1718C0.367242 12.2846 0.307295 12.418 0.28251 12.56C0.257725 12.7019 0.268892 12.8477 0.314992 12.9842C0.361091 13.1207 0.440653 13.2435 0.546412 13.3413C0.652171 13.4392 0.780755 13.509 0.920421 13.5443L3.25109 14.127C3.25109 14.1865 3.23037 14.2461 3.22002 14.3031C3.09115 15.2393 3.2044 16.1928 3.54895 17.0728C3.8935 17.9528 4.45786 18.7297 5.18814 19.3295C8.51471 22.0459 12.4241 23.9567 16.611 24.9128V27.2435C15.1818 26.727 13.8309 26.0149 12.5971 25.1277ZM3.8234 27.1192L2.63735 26.8239L4.41125 24.6176L4.92917 25.6819C4.48268 26.0963 4.10813 26.582 3.82081 27.1192H3.8234ZM28.6502 41.1032C28.6477 42.0791 28.3695 43.0345 27.8476 43.8592C27.3258 44.6839 26.5815 45.3444 25.7006 45.7645C25.5542 45.8348 25.4305 45.945 25.3439 46.0824C25.2573 46.2199 25.2113 46.379 25.2112 46.5414V50.5631H21.7618V46.5311C21.7617 46.3686 21.7157 46.2095 21.6291 46.072C21.5425 45.9346 21.4188 45.8244 21.2724 45.7542C20.3915 45.334 19.6472 44.6735 19.1254 43.8488C18.6035 43.0241 18.3253 42.0688 18.3228 41.0928V39.8705C18.8925 39.9637 19.4657 40.0388 20.0423 40.0958V41.0928C20.0669 41.9889 20.4401 42.84 21.0826 43.4652C21.7251 44.0903 22.5862 44.44 23.4826 44.44C24.379 44.44 25.2401 44.0903 25.8826 43.4652C26.5251 42.84 26.8983 41.9889 26.9229 41.0928V40.0958C27.5013 40.0388 28.0745 39.9637 28.6425 39.8705L28.6502 41.1032ZM21.7618 41.0928V40.2123C22.0984 40.2253 22.4377 40.2331 22.7743 40.2331H24.1909C24.5275 40.2331 24.8668 40.2331 25.2034 40.2123V41.0928C25.1862 41.5377 24.9973 41.9585 24.6765 42.2671C24.3557 42.5758 23.9278 42.7482 23.4826 42.7482C23.0374 42.7482 22.6096 42.5758 22.2887 42.2671C21.9679 41.9585 21.7791 41.5377 21.7618 41.0928ZM42.5721 24.6176L44.3434 26.8239L43.1573 27.1217C42.87 26.5846 42.4955 26.0989 42.049 25.6845L42.5721 24.6176ZM42.5721 9.9965L44.3356 12.2003L43.1496 12.4955C42.8615 11.9589 42.486 11.4741 42.0386 11.0608L42.5721 9.9965ZM3.8234 12.4981L2.63735 12.2003L4.41125 9.99132L4.92917 11.0608C4.4836 11.4754 4.10994 11.9611 3.8234 12.4981ZM6.27319 17.9985C5.70645 17.5352 5.28694 16.9168 5.06591 16.219C4.84487 15.5211 4.8319 14.774 5.02857 14.0689C5.22524 13.3638 5.62303 12.7313 6.17334 12.2486C6.72366 11.7659 7.40266 11.454 8.12737 11.3509L8.87578 11.2421C9.83489 11.1048 10.81 11.3432 11.5975 11.9076C12.1124 12.276 12.6466 12.6166 13.1979 12.928C13.2132 12.9851 13.234 13.0406 13.26 13.0937L14.9795 16.5353C15.0294 16.6373 15.0988 16.7286 15.1839 16.8037C15.2689 16.8789 15.368 16.9366 15.4754 16.9736C15.5827 17.0105 15.6963 17.0259 15.8096 17.0189C15.923 17.0119 16.0338 16.9827 16.1358 16.9328C16.2378 16.883 16.329 16.8136 16.4042 16.7285C16.4794 16.6434 16.5371 16.5444 16.574 16.437C16.611 16.3297 16.6264 16.2161 16.6194 16.1027C16.6124 15.9894 16.5831 15.8786 16.5333 15.7766L15.7046 14.114C16.6068 14.4548 17.5352 14.7216 18.4807 14.9116L20.208 17.5013C20.3356 17.6887 20.5321 17.8182 20.7547 17.8614C20.9773 17.9047 21.208 17.8583 21.3966 17.7322C21.5851 17.6062 21.7162 17.4108 21.7613 17.1886C21.8064 16.9663 21.7619 16.7353 21.6375 16.5457L20.7751 15.2509C21.2361 15.2845 21.6996 15.3027 22.1658 15.3027H24.007L26.3377 17.6333C26.4176 17.7132 26.5125 17.7766 26.6169 17.8199C26.7213 17.8631 26.8332 17.8854 26.9462 17.8854C27.0593 17.8854 27.1712 17.8631 27.2756 17.8199C27.38 17.7766 27.4749 17.7132 27.5548 17.6333C27.6347 17.5534 27.6981 17.4585 27.7414 17.3541C27.7846 17.2497 27.8069 17.1378 27.8069 17.0248C27.8069 16.9117 27.7846 16.7998 27.7414 16.6954C27.6981 16.591 27.6347 16.4961 27.5548 16.4162L26.3791 15.2405C27.4133 15.1561 28.4382 14.9828 29.4427 14.7226L31.4988 16.7788C31.6607 16.9374 31.8787 17.0258 32.1054 17.0245C32.3321 17.0233 32.5491 16.9325 32.7093 16.7721C32.8694 16.6116 32.9597 16.3944 32.9604 16.1677C32.9612 15.941 32.8724 15.7232 32.7134 15.5616L31.2865 14.1347C32.7415 13.5702 34.1183 12.8217 35.3833 11.9076C36.1708 11.3432 37.1459 11.1048 38.105 11.2421L38.8534 11.3509C39.5781 11.454 40.2571 11.7659 40.8074 12.2486C41.3577 12.7313 41.7555 13.3638 41.9522 14.0689C42.1489 14.774 42.1359 15.5211 41.9148 16.219C41.6938 16.9168 41.2743 17.5352 40.7076 17.9985C36.046 21.8027 30.2154 23.8834 24.1986 23.8899H22.7821C16.7653 23.8834 10.9347 21.8027 6.27319 17.9985ZM28.6502 25.2494V27.7458C28.0831 27.8812 27.5091 27.9858 26.9307 28.0592V25.4696C27.5091 25.4143 28.0822 25.3401 28.6502 25.2469V25.2494ZM25.2112 25.5913V28.1809H21.7618V25.5913C22.0984 25.6042 22.4377 25.612 22.7743 25.612H24.1909C24.5353 25.612 24.8694 25.6042 25.2112 25.5913ZM20.05 25.4747V28.0644C19.4716 27.991 18.8976 27.8864 18.3305 27.751V25.2469C18.9003 25.3401 19.4734 25.416 20.05 25.4747ZM17.5536 29.3229C18.5581 29.5831 19.583 29.7564 20.6172 29.8409L19.4311 31.0243C19.2724 31.1862 19.1841 31.4042 19.1854 31.6309C19.1866 31.8576 19.2773 32.0746 19.4378 32.2348C19.5983 32.3949 19.8155 32.4852 20.0422 32.4859C20.2689 32.4867 20.4867 32.3979 20.6483 32.2389L22.9789 29.9082H24.8202C25.2863 29.9082 25.7498 29.8901 26.2108 29.8564L25.3484 31.1512C25.2221 31.3401 25.1757 31.5713 25.2194 31.7944C25.263 32.0174 25.3932 32.214 25.5814 32.3413C25.7697 32.4686 26.0006 32.5163 26.2239 32.4738C26.4471 32.4313 26.6444 32.3021 26.7727 32.1146L28.4871 29.5456C29.4381 29.3493 30.3716 29.0765 31.2787 28.7299L30.45 30.3925C30.3907 30.4936 30.3527 30.6059 30.3384 30.7223C30.3241 30.8387 30.3337 30.9568 30.3667 31.0694C30.3997 31.1819 30.4554 31.2865 30.5304 31.3767C30.6053 31.4669 30.698 31.5409 30.8025 31.5939C30.9071 31.647 31.0215 31.6782 31.1385 31.6854C31.2556 31.6927 31.3729 31.6759 31.4832 31.6361C31.5936 31.5963 31.6946 31.5344 31.7801 31.4541C31.8656 31.3739 31.9338 31.277 31.9805 31.1693L33.7 27.7277C33.7265 27.6748 33.7473 27.6193 33.7622 27.562C34.3134 27.2506 34.8476 26.91 35.3626 26.5417C36.1499 25.9769 37.1254 25.7393 38.0843 25.8787L38.8327 25.9849C39.5574 26.088 40.2364 26.3999 40.7867 26.8826C41.337 27.3653 41.7348 27.9979 41.9315 28.7029C42.1281 29.408 42.1152 30.1552 41.8941 30.853C41.6731 31.5508 41.2536 32.1692 40.6868 32.6325C37.416 35.3024 33.5474 37.1407 29.4116 37.9904C29.3472 37.9955 29.2837 38.0085 29.2225 38.0293C27.5611 38.3582 25.8716 38.5238 24.1779 38.5239H22.7821C16.7653 38.5174 10.9347 36.4367 6.27319 32.6325C5.70645 32.1692 5.28694 31.5508 5.06591 30.853C4.84487 30.1552 4.8319 29.408 5.02857 28.7029C5.22524 27.9979 5.62303 27.3653 6.17334 26.8826C6.72366 26.3999 7.40266 26.088 8.12737 25.9849L8.87578 25.8787C9.05329 25.8528 9.23244 25.8398 9.41183 25.8399C10.1958 25.8401 10.96 26.0855 11.5975 26.5417C12.8681 27.4502 14.2502 28.1917 15.7098 28.748L14.2803 30.1775C14.1217 30.3394 14.0333 30.5574 14.0346 30.7841C14.0358 31.0108 14.1266 31.2278 14.287 31.388C14.4475 31.5481 14.6647 31.6383 14.8914 31.6391C15.1181 31.6399 15.3359 31.5511 15.4975 31.3921L17.5536 29.3229Z" fill="#EC1C23"/>
<path d="M30.4189 21.5773C30.4976 21.5774 30.576 21.5669 30.652 21.5463C30.8488 21.4919 31.0456 21.4323 31.2424 21.3728C31.3513 21.3405 31.4527 21.2871 31.5408 21.2155C31.629 21.1438 31.702 21.0555 31.7558 20.9555C31.8096 20.8555 31.843 20.7458 31.8542 20.6328C31.8653 20.5198 31.854 20.4057 31.8208 20.2971C31.7876 20.1885 31.7333 20.0876 31.6609 20.0001C31.5885 19.9126 31.4994 19.8404 31.399 19.7875C31.2985 19.7346 31.1885 19.7021 31.0754 19.692C30.9623 19.6818 30.8483 19.6942 30.74 19.7283C30.5562 19.7853 30.3723 19.8371 30.1884 19.8889C29.9878 19.9443 29.8142 20.0707 29.6996 20.2445C29.5851 20.4182 29.5375 20.6277 29.5656 20.8339C29.5938 21.0401 29.6958 21.2291 29.8527 21.3658C30.0096 21.5025 30.2108 21.5777 30.4189 21.5773Z" fill="#EC1C23"/>
<path d="M33.814 20.3783C33.9307 20.3786 34.0462 20.3548 34.1533 20.3084C35.0454 19.9228 35.9167 19.4906 36.7636 19.0136C36.9604 18.901 37.1048 18.7151 37.1653 18.4965C37.2257 18.2779 37.1973 18.0443 37.0863 17.8465C36.9753 17.6488 36.7907 17.5029 36.5726 17.4406C36.3545 17.3784 36.1206 17.4048 35.922 17.5142C35.127 17.9605 34.3093 18.365 33.4722 18.7261C33.2902 18.8044 33.1408 18.9431 33.0493 19.1188C32.9577 19.2945 32.9297 19.4964 32.9699 19.6904C33.0101 19.8844 33.1161 20.0586 33.2699 20.1835C33.4237 20.3083 33.6159 20.3763 33.814 20.3757V20.3783Z" fill="#EC1C23"/>
<path d="M30.4189 36.447C30.4976 36.4471 30.576 36.4366 30.652 36.4159C30.8488 36.3615 31.0456 36.302 31.2424 36.245C31.4608 36.1784 31.6438 36.0277 31.7512 35.8262C31.8585 35.6247 31.8814 35.3887 31.8147 35.1703C31.7481 34.9519 31.5975 34.7689 31.3959 34.6616C31.1944 34.5543 30.9584 34.5314 30.74 34.598C30.5562 34.655 30.3723 34.7068 30.1884 34.7586C29.9878 34.814 29.8142 34.9403 29.6996 35.1141C29.5851 35.2879 29.5375 35.4973 29.5656 35.7035C29.5938 35.9097 29.6958 36.0987 29.8527 36.2355C30.0096 36.3722 30.2108 36.4474 30.4189 36.447Z" fill="#EC1C23"/>
<path d="M33.814 35.248C33.9307 35.2483 34.0462 35.2245 34.1533 35.1781C35.0454 34.7925 35.9167 34.3603 36.7636 33.8833C36.9604 33.7706 37.1048 33.5848 37.1653 33.3662C37.2257 33.1476 37.1973 32.914 37.0863 32.7162C36.9753 32.5184 36.7907 32.3725 36.5726 32.3103C36.3545 32.2481 36.1206 32.2745 35.922 32.3839C35.1264 32.8291 34.3088 33.2336 33.4722 33.5958C33.2902 33.6741 33.1408 33.8128 33.0493 33.9885C32.9577 34.1642 32.9297 34.3661 32.9699 34.5601C33.0101 34.7541 33.1161 34.9283 33.2699 35.0531C33.4237 35.178 33.6159 35.2459 33.814 35.2454V35.248Z" fill="#EC1C23"/>
<path d="M22.0933 10.9883C22.0933 11.2163 22.1839 11.435 22.3451 11.5963C22.5064 11.7575 22.725 11.8481 22.9531 11.8481C23.1811 11.8481 23.3998 11.7575 23.561 11.5963C23.7222 11.435 23.8128 11.2163 23.8128 10.9883C23.803 10.5894 23.9414 10.201 24.2013 9.89809C24.657 9.30459 24.8988 8.57455 24.8875 7.82638C24.8994 7.07812 24.6575 6.34789 24.2013 5.75467C23.9412 5.45089 23.8029 5.0616 23.8128 4.66185C23.8029 4.2621 23.9412 3.87281 24.2013 3.56902C24.6575 2.97581 24.8994 2.24558 24.8875 1.49732C24.8875 1.26929 24.7969 1.05061 24.6357 0.889375C24.4745 0.728139 24.2558 0.637558 24.0278 0.637558C23.7997 0.637558 23.5811 0.728139 23.4198 0.889375C23.2586 1.05061 23.168 1.26929 23.168 1.49732C23.178 1.89707 23.0396 2.28636 22.7796 2.59014C22.3233 3.18335 22.0814 3.91358 22.0933 4.66185C22.0814 5.41012 22.3233 6.14035 22.7796 6.73356C23.0396 7.03734 23.178 7.42663 23.168 7.82638C23.1778 8.22533 23.0394 8.61376 22.7796 8.91662C22.3242 9.51031 22.0825 10.2402 22.0933 10.9883Z" fill="#EC1C23"/>
<path d="M27.459 7.83674C27.4673 8.23622 27.3291 8.62492 27.0706 8.92956C26.8649 9.208 26.6976 9.51286 26.5733 9.83594C26.4954 10.0502 26.5058 10.2867 26.6022 10.4933C26.6986 10.7 26.8731 10.8599 27.0874 10.9378C27.3017 11.0158 27.5382 11.0054 27.7448 10.909C27.9514 10.8126 28.1113 10.6381 28.1893 10.4238C28.2674 10.2387 28.3692 10.0646 28.4923 9.90585C28.9485 9.31264 29.1904 8.58241 29.1785 7.83415C29.1904 7.08588 28.9485 6.35565 28.4923 5.76244C28.2322 5.45866 28.0939 5.06937 28.1038 4.66962C28.0939 4.26986 28.2322 3.88057 28.4923 3.57679C28.9485 2.98358 29.1904 2.25335 29.1785 1.50508C29.1785 1.27706 29.0879 1.05838 28.9267 0.897142C28.7655 0.735906 28.5468 0.645325 28.3188 0.645325C28.0907 0.645325 27.8721 0.735906 27.7108 0.897142C27.5496 1.05838 27.459 1.27706 27.459 1.50508C27.4677 1.90464 27.3295 2.29351 27.0706 2.59791C26.6134 3.19078 26.3706 3.92104 26.3817 4.66962C26.3706 5.41819 26.6134 6.14845 27.0706 6.74132C27.3301 7.0464 27.4684 7.4363 27.459 7.83674Z" fill="#EC1C23"/>
<path d="M18.8666 7.83674C18.876 8.23641 18.7377 8.62553 18.4781 8.92956C18.2733 9.20809 18.1069 9.51296 17.9835 9.83593C17.9056 10.0502 17.9159 10.2867 18.0123 10.4933C18.1087 10.7 18.2833 10.8599 18.4975 10.9378C18.7118 11.0158 18.9483 11.0054 19.155 10.909C19.3616 10.8126 19.5215 10.6381 19.5994 10.4238C19.6776 10.2393 19.7785 10.0653 19.8998 9.90585C20.357 9.31298 20.5998 8.58272 20.5887 7.83415C20.5998 7.08557 20.357 6.35531 19.8998 5.76244C19.6409 5.45804 19.5026 5.06917 19.5114 4.66961C19.5026 4.27006 19.6409 3.88119 19.8998 3.57679C20.357 2.98392 20.5998 2.25366 20.5887 1.50508C20.5766 1.28488 20.4806 1.07768 20.3205 0.926069C20.1603 0.774461 19.9482 0.689972 19.7276 0.689972C19.5071 0.689972 19.2949 0.774461 19.1348 0.926069C18.9746 1.07768 18.8786 1.28488 18.8666 1.50508C18.876 1.9043 18.7387 2.29313 18.4807 2.59791C18.0236 3.19078 17.7807 3.92104 17.7919 4.66961C17.7812 5.41769 18.023 6.14753 18.4781 6.74132C18.7388 7.04577 18.8772 7.4361 18.8666 7.83674Z" fill="#EC1C23"/>
</svg>
