<svg width="52" height="51" viewBox="0 0 52 51" fill="none" xmlns="http://www.w3.org/2000/svg">
<path d="M51.3414 33.9606C51.363 33.9259 51.3919 33.8987 51.4135 33.864C51.5976 33.5748 51.7232 33.2503 51.7826 32.91C51.8421 32.5696 51.8343 32.2204 51.7597 31.8832C51.6109 31.2026 51.2064 30.6104 50.6347 30.2364C50.063 29.8624 49.3706 29.7369 48.7093 29.8876L17.9608 36.9664C17.56 37.0543 17.186 37.2412 16.871 37.511C16.556 37.7809 16.3095 38.1257 16.1526 38.5156C15.9958 38.9054 15.9333 39.3288 15.9707 39.7491C16.0081 40.1693 16.1441 40.574 16.3671 40.928L3.33887 43.9339C2.94791 44.0119 2.5761 44.17 2.24541 44.3985C1.91472 44.6271 1.63185 44.9216 1.41351 45.2647C1.19518 45.6078 1.04581 45.9925 0.974215 46.396C0.902624 46.7995 0.910267 47.2138 0.996693 47.6142C1.08312 48.0147 1.24658 48.3932 1.47741 48.7275C1.70824 49.0618 2.00177 49.345 2.34065 49.5605C2.67954 49.776 3.05691 49.9193 3.45047 49.982C3.84404 50.0448 4.24582 50.0256 4.63208 49.9257L18.9102 46.6352C19.4646 47.3712 20.1748 47.967 20.9867 48.3772C21.7986 48.7875 22.6908 49.0012 23.5951 49.0022C24.0366 49.0025 24.4767 48.9527 24.9076 48.8536L47.344 43.6788C48.8854 43.3205 50.2261 42.3474 51.0723 40.9727C51.9184 39.598 52.2011 37.9339 51.8582 36.345L51.3414 33.9606ZM4.26191 48.2148C4.01624 48.2709 3.75998 48.251 3.52523 48.1577C3.29047 48.0644 3.08765 47.9019 2.94215 47.6904C2.79665 47.479 2.71495 47.228 2.70727 46.9689C2.6996 46.7099 2.76629 46.4542 2.89899 46.234C3.08381 45.9417 3.3717 45.7349 3.70184 45.6571L17.4031 42.5003L17.7757 44.2112C17.8354 44.4967 17.9158 44.7773 18.0161 45.0505L4.26191 48.2148ZM46.9714 41.963L24.535 47.1403C23.4338 47.3938 22.28 47.1871 21.3265 46.5656C20.373 45.9441 19.6977 44.9585 19.4487 43.8249L19.0785 42.114L22.3933 41.3489C22.5037 41.3242 22.6084 41.2773 22.7013 41.2109C22.7942 41.1446 22.8735 41.06 22.9346 40.962C22.9958 40.8641 23.0376 40.7547 23.0578 40.6401C23.0779 40.5255 23.0759 40.408 23.0519 40.2942C23.0279 40.1804 22.9824 40.0725 22.9179 39.9769C22.8535 39.8812 22.7714 39.7995 22.6763 39.7365C22.5812 39.6735 22.475 39.6304 22.3638 39.6097C22.2525 39.589 22.1384 39.591 22.0279 39.6157L18.7083 40.3808C18.4882 40.4304 18.2579 40.3885 18.0675 40.2643C17.8772 40.1401 17.7421 39.9435 17.6916 39.7173C17.6658 39.6033 17.6632 39.4851 17.6839 39.3701C17.7046 39.255 17.7481 39.1456 17.8117 39.0487C17.8695 38.9522 17.9458 38.8689 18.0359 38.8037C18.126 38.7386 18.228 38.6931 18.3358 38.6699L49.0747 31.5911C49.2948 31.5415 49.5251 31.5833 49.7155 31.7076C49.9059 31.8318 50.041 32.0284 50.0915 32.2546C50.1173 32.3687 50.1198 32.4871 50.0987 32.6022C50.0775 32.7173 50.0333 32.8266 49.9689 32.9232C49.9116 33.0196 49.8358 33.1029 49.7461 33.1681C49.6564 33.2332 49.5547 33.2788 49.4473 33.302L25.3547 38.8729C25.2454 38.898 25.1421 38.9449 25.0505 39.0111C24.9589 39.0773 24.8808 39.1614 24.8208 39.2587C24.6995 39.4551 24.659 39.6931 24.7081 39.9203C24.7571 40.1475 24.8918 40.3453 25.0825 40.4702C25.2732 40.5951 25.5043 40.6369 25.7248 40.5863L49.8246 35.0302L50.1972 36.7436C50.4423 37.8779 50.2402 39.0661 49.6354 40.0471C49.0305 41.0281 48.0724 41.7216 46.9714 41.9754V41.963Z" fill="#EC1C23"/>
<path d="M19.2684 13.9126C19.8116 13.9126 20.3525 13.8828 20.8957 13.8531C21.6955 13.7887 22.4986 13.7804 23.2994 13.8284C26.8425 14.1255 29.0684 16.8862 30.9529 19.8252C33.9311 24.5122 37.2964 26.8322 41.4981 27.164C41.7601 27.1838 42.0293 27.1962 42.3034 27.1962C45.5724 27.1962 49.5819 25.7354 51.2164 23.0415C51.9952 21.7614 52.5865 19.6395 50.976 16.8194C50.4322 15.8704 49.8054 14.9745 49.1035 14.1428C46.3873 10.8943 42.5966 8.41835 39.2554 6.25682L38.5079 5.76162C28.3353 -0.866584 20.6818 -1.7827 15.7661 3.04795C14.9531 3.86475 14.252 4.79187 13.6821 5.80371C13.1883 6.54479 12.9009 7.41092 12.8509 8.30827C12.8009 9.20561 12.9902 10.0999 13.3985 10.8943C14.4128 12.729 16.7156 13.915 19.2636 13.915L19.2684 13.9126ZM15.146 6.68516C15.6364 5.81153 16.2415 5.01169 16.944 4.30822C21.2178 0.0990495 28.1694 1.08944 37.6161 7.24226L38.3636 7.73746C41.6063 9.84204 45.2792 12.2289 47.8415 15.2867C48.4717 16.0377 49.0349 16.8457 49.5242 17.7008C50.4592 19.3597 50.5506 20.8428 49.779 22.1105C48.368 24.4355 44.4595 25.6363 41.6327 25.411C37.9406 25.1213 35.0801 23.1009 32.3663 18.8571C30.3472 15.7052 27.7079 12.4369 23.4292 12.0779C23.0975 12.0481 22.7658 12.0382 22.4389 12.0382C21.886 12.0382 21.338 12.068 20.8044 12.0977C20.2707 12.1274 19.7828 12.1546 19.2708 12.1571C17.3478 12.1571 15.5907 11.2979 14.8792 10.0178C14.6184 9.49171 14.5053 8.90112 14.5524 8.31241C14.5995 7.7237 14.8051 7.16018 15.146 6.68516Z" fill="#EC1C23"/>
<path d="M17.9415 18.4238V31.5812C17.9415 31.8136 18.0312 32.0366 18.1908 32.2009C18.3503 32.3653 18.5668 32.4577 18.7924 32.4577C19.0181 32.4577 19.2346 32.3653 19.3941 32.2009C19.5537 32.0366 19.6434 31.8136 19.6434 31.5812V18.4238C19.6434 18.1913 19.5537 17.9684 19.3941 17.804C19.2346 17.6396 19.0181 17.5473 18.7924 17.5473C18.5668 17.5473 18.3503 17.6396 18.1908 17.804C18.0312 17.9684 17.9415 18.1913 17.9415 18.4238Z" fill="#EC1C23"/>
<path d="M23.0495 21.9323V29.8257C23.0434 29.9449 23.0609 30.0641 23.1009 30.1761C23.141 30.2881 23.2027 30.3905 23.2825 30.4772C23.3622 30.5638 23.4582 30.6327 23.5647 30.6799C23.6711 30.727 23.7858 30.7513 23.9017 30.7513C24.0175 30.7513 24.1322 30.727 24.2386 30.6799C24.3451 30.6327 24.4411 30.5638 24.5209 30.4772C24.6006 30.3905 24.6624 30.2881 24.7024 30.1761C24.7425 30.0641 24.7599 29.9449 24.7538 29.8257V21.9323C24.7422 21.7075 24.6474 21.496 24.4888 21.3411C24.3303 21.1862 24.1201 21.0999 23.9017 21.0999C23.6832 21.0999 23.473 21.1862 23.3145 21.3411C23.156 21.496 23.0611 21.7075 23.0495 21.9323Z" fill="#EC1C23"/>
<path d="M28.1622 24.5642V28.0727C28.1622 28.3052 28.2519 28.5281 28.4115 28.6925C28.571 28.8569 28.7875 28.9492 29.0132 28.9492C29.2388 28.9492 29.4553 28.8569 29.6149 28.6925C29.7744 28.5281 29.8641 28.3052 29.8641 28.0727V24.5642C29.8641 24.3318 29.7744 24.1088 29.6149 23.9445C29.4553 23.7801 29.2388 23.6877 29.0132 23.6877C28.7875 23.6877 28.571 23.7801 28.4115 23.9445C28.2519 24.1088 28.1622 24.3318 28.1622 24.5642Z" fill="#EC1C23"/>
<path d="M37.2435 17.9236C37.4617 17.9117 37.6671 17.814 37.8174 17.6507C37.9677 17.4874 38.0515 17.271 38.0515 17.0459C38.0515 16.8209 37.9677 16.6044 37.8174 16.4411C37.6671 16.2778 37.4617 16.1801 37.2435 16.1682C36.8664 16.1524 36.5099 15.9871 36.2486 15.7067C35.9872 15.4263 35.8413 15.0527 35.8413 14.664C35.8413 14.2753 35.9872 13.9017 36.2486 13.6213C36.5099 13.341 36.8664 13.1756 37.2435 13.1599C37.4878 13.1626 37.7272 13.231 37.9379 13.3582C38.1487 13.4854 38.3236 13.6671 38.4453 13.8853C38.5022 13.9845 38.5774 14.0712 38.6667 14.1404C38.7561 14.2096 38.8578 14.26 38.966 14.2888C39.0743 14.3175 39.187 14.324 39.2977 14.3079C39.4084 14.2918 39.5149 14.2533 39.6112 14.1948C39.7074 14.1363 39.7916 14.0588 39.8588 13.9668C39.926 13.8748 39.9749 13.77 40.0028 13.6585C40.0307 13.547 40.037 13.4309 40.0214 13.3169C40.0057 13.2029 39.9684 13.0931 39.9116 12.994C39.6233 12.5208 39.2204 12.1331 38.7426 11.8689C38.2647 11.6047 37.7284 11.4732 37.1862 11.4873C36.644 11.5013 36.1148 11.6605 35.6504 11.9491C35.1861 12.2377 34.8027 12.6458 34.5379 13.1334C34.273 13.6209 34.136 14.171 34.1401 14.7296C34.1442 15.2882 34.2894 15.8361 34.5614 16.3194C34.8334 16.8027 35.2229 17.2047 35.6914 17.486C36.16 17.7673 36.6916 17.9181 37.2339 17.9236H37.2435Z" fill="#EC1C23"/>
<path d="M42.6351 17.5448C43.1051 17.5448 43.486 17.1524 43.486 16.6683C43.486 16.1842 43.1051 15.7918 42.6351 15.7918C42.1652 15.7918 41.7842 16.1842 41.7842 16.6683C41.7842 17.1524 42.1652 17.5448 42.6351 17.5448Z" fill="#EC1C23"/>
<path d="M39.229 21.0533C39.6989 21.0533 40.0799 20.6609 40.0799 20.1768C40.0799 19.6927 39.6989 19.3003 39.229 19.3003C38.759 19.3003 38.3781 19.6927 38.3781 20.1768C38.3781 20.6609 38.759 21.0533 39.229 21.0533Z" fill="#EC1C23"/>
<path d="M17.9415 9.65139C18.4114 9.65139 18.7924 9.25897 18.7924 8.77489C18.7924 8.29081 18.4114 7.89839 17.9415 7.89839C17.4715 7.89839 17.0906 8.29081 17.0906 8.77489C17.0906 9.25897 17.4715 9.65139 17.9415 9.65139Z" fill="#EC1C23"/>
<path d="M19.6434 6.14293C20.1134 6.14293 20.4943 5.7505 20.4943 5.26643C20.4943 4.78235 20.1134 4.38993 19.6434 4.38993C19.1735 4.38993 18.7925 4.78235 18.7925 5.26643C18.7925 5.7505 19.1735 6.14293 19.6434 6.14293Z" fill="#EC1C23"/>
<path d="M22.1986 9.65139C22.6685 9.65139 23.0495 9.25897 23.0495 8.77489C23.0495 8.29081 22.6685 7.89839 22.1986 7.89839C21.7286 7.89839 21.3477 8.29081 21.3477 8.77489C21.3477 9.25897 21.7286 9.65139 22.1986 9.65139Z" fill="#EC1C23"/>
<path d="M46.8945 20.1768C47.3644 20.1768 47.7454 19.7844 47.7454 19.3003C47.7454 18.8162 47.3644 18.4238 46.8945 18.4238C46.4245 18.4238 46.0436 18.8162 46.0436 19.3003C46.0436 19.7844 46.4245 20.1768 46.8945 20.1768Z" fill="#EC1C23"/>
<path d="M43.4884 22.8088C43.9583 22.8088 44.3393 22.4163 44.3393 21.9323C44.3393 21.4482 43.9583 21.0558 43.4884 21.0558C43.0184 21.0558 42.6375 21.4482 42.6375 21.9323C42.6375 22.4163 43.0184 22.8088 43.4884 22.8088Z" fill="#EC1C23"/>
<path d="M28.5348 8.79718C28.694 8.63686 28.9083 8.54786 29.131 8.54958C29.2465 8.55002 29.3609 8.5741 29.4673 8.62043C29.5738 8.66676 29.6702 8.73442 29.7511 8.81947C29.833 8.89979 29.8986 8.99598 29.9442 9.10251C29.9899 9.20904 30.0147 9.32381 30.0171 9.44023C30.0196 9.55665 29.9997 9.67242 29.9586 9.78089C29.9175 9.88937 29.8559 9.9884 29.7776 10.0723C29.6732 10.1783 29.5438 10.2544 29.4022 10.2931C29.2605 10.3317 29.1115 10.3316 28.9699 10.2927C28.7512 10.2346 28.5191 10.2683 28.3246 10.3865C28.1301 10.5046 27.9891 10.6976 27.9327 10.9228C27.8763 11.1481 27.909 11.3872 28.0238 11.5875C28.1385 11.7879 28.3258 11.9331 28.5444 11.9912C28.9777 12.0983 29.4305 12.087 29.8582 11.9584C30.2859 11.8297 30.6735 11.5883 30.9827 11.2579C31.2919 10.9275 31.5119 10.5196 31.621 10.0747C31.7301 9.62971 31.7245 9.16314 31.6047 8.72112C31.4849 8.27911 31.2551 7.877 30.938 7.55462C30.621 7.23223 30.2276 7.00075 29.797 6.8831C29.3664 6.76545 28.9134 6.76572 28.4829 6.88387C28.0524 7.00202 27.6593 7.23396 27.3426 7.55671C27.1962 7.72349 27.1176 7.94183 27.1231 8.1666C27.1286 8.39137 27.2177 8.60538 27.372 8.76437C27.5264 8.92335 27.7341 9.01516 27.9524 9.02081C28.1706 9.02646 28.3825 8.94551 28.5444 8.79471L28.5348 8.79718Z" fill="#EC1C23"/>
</svg>
