<svg width="58" height="62" viewBox="0 0 58 62" fill="none" xmlns="http://www.w3.org/2000/svg">
<path d="M56.4505 0.958252H22.42C22.0908 0.958565 21.7753 1.08944 21.5426 1.32215C21.3099 1.55487 21.179 1.8704 21.1787 2.19951V4.97756H18.4006C18.0715 4.97787 17.756 5.10875 17.5233 5.34146C17.2906 5.57417 17.1597 5.88971 17.1594 6.21882V17.1017L4.13919 23.6094C3.7946 23.78 3.50472 24.0438 3.30245 24.3708C3.10019 24.6978 2.99363 25.075 2.99487 25.4595V32.2852C2.99487 34.5999 3.26795 36.6592 3.78928 38.5376C2.28866 39.8303 1.29501 41.6131 0.984944 43.5693C0.674879 45.5255 1.06849 47.5283 2.09581 49.2216C3.12314 50.915 4.71762 52.1892 6.59583 52.8178C8.47404 53.4464 10.5143 53.3887 12.354 52.6548V57.4106C12.3541 57.6693 12.4292 57.9225 12.5704 58.1393C12.7115 58.3562 12.9125 58.5274 13.149 58.6323C13.3856 58.7372 13.6474 58.7711 13.9029 58.7301C14.1583 58.6891 14.3964 58.5749 14.5882 58.4013L17.8391 55.4553L21.09 58.4013C21.2819 58.5749 21.5199 58.6891 21.7754 58.7301C22.0308 58.7711 22.2927 58.7372 22.5292 58.6323C22.7657 58.5274 22.9668 58.3562 23.1079 58.1393C23.249 57.9225 23.3242 57.6693 23.3243 57.4106V50.4229H29.9928C30.2279 50.4229 30.4535 50.3295 30.6197 50.1632C30.786 49.997 30.8794 49.7715 30.8794 49.5363C30.8794 49.3012 30.786 49.0757 30.6197 48.9094C30.4535 48.7431 30.2279 48.6497 29.9928 48.6497H25.1011C26.9795 47.042 28.5494 45.3172 29.7635 43.3702H45.3028C45.538 43.3702 45.7635 43.2768 45.9298 43.1105C46.096 42.9443 46.1894 42.7188 46.1894 42.4836C46.1894 42.2485 46.096 42.023 45.9298 41.8567C45.7635 41.6904 45.538 41.597 45.3028 41.597H30.7387C31.0936 40.8585 31.3985 40.0971 31.6514 39.3178H34.6067C34.8419 39.3178 35.0674 39.2244 35.2337 39.0581C35.3999 38.8919 35.4933 38.6664 35.4933 38.4312C35.4933 38.1961 35.3999 37.9706 35.2337 37.8043C35.0674 37.638 34.8419 37.5446 34.6067 37.5446H32.1372C32.3042 36.7922 32.4308 36.0313 32.5167 35.2654H45.3028C45.538 35.2654 45.7635 35.172 45.9298 35.0057C46.096 34.8395 46.1894 34.6139 46.1894 34.3788C46.1894 34.1437 46.096 33.9181 45.9298 33.7519C45.7635 33.5856 45.538 33.4922 45.3028 33.4922H32.6538C32.6716 33.0962 32.6822 32.6942 32.6822 32.2817V31.2177H45.3028C45.538 31.2177 45.7635 31.1243 45.9298 30.958C46.096 30.7918 46.1894 30.5663 46.1894 30.3311C46.1894 30.096 46.096 29.8705 45.9298 29.7042C45.7635 29.5379 45.538 29.4445 45.3028 29.4445H32.6822V27.1606H37.2039C37.4391 27.1606 37.6646 27.0672 37.8308 26.9009C37.9971 26.7346 38.0905 26.5091 38.0905 26.274C38.0905 26.0388 37.9971 25.8133 37.8308 25.6471C37.6646 25.4808 37.4391 25.3874 37.2039 25.3874H32.6751C32.6629 25.0163 32.5504 24.6555 32.3495 24.3433C32.1487 24.031 31.8669 23.7791 31.5343 23.6141L30.5342 23.1141H45.3028C45.538 23.1141 45.7635 23.0207 45.9298 22.8544C46.096 22.6881 46.1894 22.4626 46.1894 22.2275C46.1894 21.9923 46.096 21.7668 45.9298 21.6006C45.7635 21.4343 45.538 21.3409 45.3028 21.3409H26.9901L18.9326 17.3133V6.75078H51.8992V19.057C51.8992 19.2921 51.9926 19.5176 52.1589 19.6839C52.3252 19.8502 52.5507 19.9436 52.7858 19.9436C53.021 19.9436 53.2465 19.8502 53.4128 19.6839C53.579 19.5176 53.6724 19.2921 53.6724 19.057V6.21882C53.6721 5.88971 53.5413 5.57417 53.3085 5.34146C53.0758 5.10875 52.7603 4.97787 52.4312 4.97756H22.9519V2.73148H55.9185V44.6316H53.6724V17.5083C53.6724 17.2732 53.579 17.0477 53.4128 16.8814C53.2465 16.7151 53.021 16.6217 52.7858 16.6217C52.5507 16.6217 52.3252 16.7151 52.1589 16.8814C51.9926 17.0477 51.8992 17.2732 51.8992 17.5083V48.6509H29.7268C29.4917 48.6509 29.2662 48.7443 29.0999 48.9106C28.9336 49.0768 28.8402 49.3024 28.8402 49.5375C28.8402 49.7726 28.9336 49.9982 29.0999 50.1644C29.2662 50.3307 29.4917 50.4241 29.7268 50.4241H52.4312C52.7603 50.4238 53.0758 50.2929 53.3085 50.0602C53.5413 49.8275 53.6721 49.512 53.6724 49.1829V46.4048H56.4505C56.7796 46.4045 57.0951 46.2736 57.3278 46.0409C57.5606 45.8082 57.6914 45.4927 57.6917 45.1636V2.19951C57.6914 1.8704 57.5606 1.55487 57.3278 1.32215C57.0951 1.08944 56.7796 0.958565 56.4505 0.958252V0.958252ZM2.6485 44.8775C2.6485 43.5717 3.03572 42.2952 3.76119 41.2094C4.48666 40.1237 5.5178 39.2774 6.72422 38.7777C7.93063 38.278 9.25813 38.1473 10.5389 38.402C11.8196 38.6568 12.996 39.2856 13.9193 40.2089C14.8427 41.1323 15.4715 42.3087 15.7263 43.5894C15.981 44.8701 15.8503 46.1977 15.3505 47.4041C14.8508 48.6105 14.0046 49.6416 12.9189 50.3671C11.8331 51.0926 10.5566 51.4798 9.25081 51.4798C7.50034 51.4779 5.82211 50.7817 4.58435 49.5439C3.34658 48.3062 2.65038 46.6279 2.6485 44.8775ZM18.7352 53.8807C18.4898 53.6578 18.1701 53.5342 17.8385 53.5342C17.507 53.5342 17.1873 53.6578 16.9419 53.8807L14.1272 56.4271V51.6807C15.5187 50.6867 16.5718 49.2896 17.1443 47.6782C17.7168 46.0667 17.781 44.3184 17.3284 42.6692C17.4975 42.6799 17.6677 42.6858 17.8391 42.6858C19.1184 42.6864 20.3833 42.4153 21.5499 41.8902V56.4306L18.7352 53.8807ZM30.9113 25.4595V32.2852C30.9113 36.9535 29.7481 40.643 27.2467 43.8963C26.2028 45.2546 24.9368 46.5348 23.3231 47.8388V40.8369C25.0342 39.5426 26.231 37.6836 26.7011 35.5903C27.1712 33.497 26.8841 31.3048 25.8907 29.4031C25.8381 29.2978 25.7649 29.204 25.6756 29.1273C25.5862 29.0505 25.4825 28.9923 25.3704 28.9561C25.2584 28.9199 25.1402 28.9063 25.0228 28.9163C24.9055 28.9263 24.7913 28.9595 24.6869 29.0141C24.5826 29.0687 24.4901 29.1435 24.415 29.2342C24.3398 29.3249 24.2835 29.4297 24.2494 29.5424C24.2152 29.6551 24.2038 29.7735 24.2158 29.8906C24.2279 30.0078 24.2632 30.1214 24.3197 30.2247C24.8667 31.2666 25.1508 32.4265 25.1472 33.6033C25.1466 34.6709 24.9123 35.7253 24.4605 36.6926C24.0088 37.6599 23.3506 38.5164 22.5324 39.2021C21.7141 39.8877 20.7556 40.3858 19.7242 40.6613C18.6928 40.9368 17.6136 40.983 16.5624 40.7967C16.0006 39.7924 15.2385 38.9141 14.3235 38.2162C13.4085 37.5183 12.3599 37.0157 11.2427 36.7396C10.7737 35.7594 10.5313 34.6863 10.5334 33.5998C10.5335 32.2825 10.8896 30.9896 11.5641 29.8581C12.2385 28.7265 13.2062 27.7982 14.3648 27.1714C15.5235 26.5446 16.83 26.2426 18.1461 26.2973C19.4623 26.352 20.7392 26.7614 21.8419 27.4821C22.0384 27.6032 22.2744 27.6428 22.4997 27.5926C22.7249 27.5423 22.9217 27.4063 23.0483 27.2132C23.1748 27.0202 23.2211 26.7855 23.1773 26.5589C23.1334 26.3322 23.003 26.1317 22.8136 25.9997C21.2334 24.9626 19.3689 24.4445 17.4802 24.5177C15.5914 24.5909 13.7726 25.2518 12.2775 26.4081C10.7823 27.5645 9.68536 29.1587 9.13961 30.9684C8.59386 32.778 8.62654 34.7129 9.23308 36.5031C7.87791 36.5044 6.54359 36.8368 5.34617 37.4713C4.94719 35.7719 4.75312 34.0308 4.7681 32.2852V25.4595C4.76727 25.4041 4.78215 25.3496 4.81102 25.3023C4.8399 25.255 4.88158 25.2169 4.93123 25.1923L17.8379 18.7413L30.7458 25.1923C30.7949 25.2166 30.8363 25.2542 30.8651 25.3008C30.8939 25.3474 30.9091 25.4011 30.909 25.4559L30.9113 25.4595Z" fill="#EC1C23"/>
<path d="M24.6425 18.1704C24.6425 18.4055 24.7359 18.631 24.9021 18.7973C25.0684 18.9636 25.2939 19.057 25.5291 19.057H45.3029C45.538 19.057 45.7635 18.9636 45.9298 18.7973C46.0961 18.631 46.1895 18.4055 46.1895 18.1704C46.1895 17.9352 46.0961 17.7097 45.9298 17.5434C45.7635 17.3772 45.538 17.2838 45.3029 17.2838H25.5291C25.2939 17.2838 25.0684 17.3772 24.9021 17.5434C24.7359 17.7097 24.6425 17.9352 24.6425 18.1704Z" fill="#EC1C23"/>
<path d="M45.3028 25.3886H40.5139C40.2788 25.3886 40.0533 25.482 39.887 25.6483C39.7207 25.8146 39.6273 26.0401 39.6273 26.2752C39.6273 26.5104 39.7207 26.7359 39.887 26.9022C40.0533 27.0684 40.2788 27.1618 40.5139 27.1618H45.3028C45.538 27.1618 45.7635 27.0684 45.9297 26.9022C46.096 26.7359 46.1894 26.5104 46.1894 26.2752C46.1894 26.0401 46.096 25.8146 45.9297 25.6483C45.7635 25.482 45.538 25.3886 45.3028 25.3886Z" fill="#EC1C23"/>
<path d="M45.3028 37.5446H37.7949C37.5598 37.5446 37.3343 37.638 37.168 37.8043C37.0017 37.9706 36.9083 38.1961 36.9083 38.4312C36.9083 38.6664 37.0017 38.8919 37.168 39.0582C37.3343 39.2244 37.5598 39.3178 37.7949 39.3178H45.3028C45.5379 39.3178 45.7634 39.2244 45.9297 39.0582C46.096 38.8919 46.1894 38.6664 46.1894 38.4312C46.1894 38.1961 46.096 37.9706 45.9297 37.8043C45.7634 37.638 45.5379 37.5446 45.3028 37.5446Z" fill="#EC1C23"/>
<path d="M41.4939 13.2041C41.7291 13.2041 41.9546 13.1107 42.1209 12.9445C42.2871 12.7782 42.3806 12.5527 42.3806 12.3175C42.3806 12.0824 42.2871 11.8569 42.1209 11.6906C41.9546 11.5243 41.7291 11.4309 41.4939 11.4309H29.3379C29.1028 11.4309 28.8772 11.5243 28.711 11.6906C28.5447 11.8569 28.4513 12.0824 28.4513 12.3175C28.4513 12.5527 28.5447 12.7782 28.711 12.9445C28.8772 13.1107 29.1028 13.2041 29.3379 13.2041H41.4939Z" fill="#EC1C23"/>
<path d="M20.5746 31.5416L17.4147 34.7027L15.3471 32.6398C15.179 32.4832 14.9567 32.398 14.7271 32.402C14.4974 32.4061 14.2782 32.4991 14.1158 32.6616C13.9533 32.824 13.8603 33.0432 13.8562 33.2729C13.8522 33.5026 13.9374 33.7249 14.094 33.8929L16.7882 36.5882C16.9547 36.754 17.1802 36.8471 17.4153 36.8471C17.6503 36.8471 17.8758 36.754 18.0424 36.5882L21.8253 32.8053C21.9916 32.639 22.0851 32.4134 22.0851 32.1782C22.0851 31.943 21.9916 31.7174 21.8253 31.5511C21.659 31.3848 21.4334 31.2913 21.1982 31.2913C20.9629 31.2913 20.7374 31.3848 20.571 31.5511L20.5746 31.5416Z" fill="#EC1C23"/>
<path d="M34.1114 54.5498L32.2945 54.285L31.4823 52.6395C31.3722 52.4155 31.2015 52.2269 30.9896 52.095C30.7778 51.9631 30.5332 51.8932 30.2836 51.8932C30.0341 51.8932 29.7895 51.9631 29.5776 52.095C29.3657 52.2269 29.1951 52.4155 29.0849 52.6395L28.2716 54.285L26.4558 54.5486C26.209 54.5845 25.977 54.6887 25.7863 54.8495C25.5956 55.0103 25.4536 55.2212 25.3765 55.4585C25.2994 55.6957 25.2902 55.9498 25.35 56.192C25.4097 56.4342 25.536 56.6549 25.7146 56.829L27.0292 58.1105L26.7183 59.9203C26.676 60.166 26.7033 60.4186 26.7971 60.6495C26.8909 60.8804 27.0475 61.0805 27.2491 61.2271C27.4506 61.3737 27.6892 61.461 27.9378 61.4791C28.1864 61.4972 28.4351 61.4453 28.6558 61.3295L30.2813 60.4748L31.9055 61.3295C32.1263 61.4455 32.3752 61.4975 32.624 61.4795C32.8728 61.4615 33.1116 61.3743 33.3134 61.2277C33.5152 61.0811 33.672 60.881 33.766 60.65C33.86 60.4189 33.8875 60.1662 33.8454 59.9203L33.5345 58.1105L34.8491 56.829C35.0277 56.6549 35.154 56.4344 35.2138 56.1923C35.2736 55.9501 35.2645 55.6961 35.1875 55.4589C35.1106 55.2217 34.9688 55.0108 34.7782 54.8499C34.5876 54.689 34.3558 54.5847 34.1091 54.5486L34.1114 54.5498ZM32.1361 57.0016C31.9808 57.1526 31.8646 57.3392 31.7974 57.5451C31.7303 57.7511 31.7143 57.9702 31.7507 58.1838L31.9505 59.347L30.9019 58.7997C30.7102 58.6987 30.4968 58.6459 30.2801 58.646C30.0632 58.6459 29.8495 58.6982 29.6571 58.7985L28.6121 59.3482L28.8119 58.1849C28.8482 57.9715 28.8323 57.7525 28.7653 57.5465C28.6984 57.3406 28.5825 57.1541 28.4277 57.0028L27.5812 56.1753L28.7504 56.0051C28.9648 55.9738 29.1685 55.8909 29.3438 55.7634C29.519 55.6359 29.6606 55.4677 29.7564 55.2733L30.2789 54.2094L30.8026 55.2733C30.8983 55.4677 31.04 55.6359 31.2152 55.7634C31.3905 55.8909 31.5941 55.9738 31.8086 56.0051L32.9777 56.1753L32.1361 57.0016Z" fill="#EC1C23"/>
<path d="M45.0877 54.5498L43.272 54.285L42.4598 52.6395C42.3497 52.4155 42.179 52.2269 41.9671 52.095C41.7553 51.9631 41.5107 51.8932 41.2611 51.8932C41.0115 51.8932 40.767 51.9631 40.5551 52.095C40.3432 52.2269 40.1726 52.4155 40.0624 52.6395L39.2503 54.285L37.4333 54.5486C37.1865 54.5847 36.9548 54.689 36.7642 54.8499C36.5736 55.0108 36.4318 55.2217 36.3548 55.4589C36.2779 55.6961 36.2688 55.9501 36.3286 56.1923C36.3884 56.4344 36.5147 56.6549 36.6933 56.829L38.0078 58.1105L37.6969 59.9203C37.6548 60.1662 37.6824 60.4189 37.7764 60.65C37.8704 60.881 38.0272 61.0811 38.229 61.2277C38.4308 61.3743 38.6696 61.4615 38.9184 61.4795C39.1672 61.4975 39.4161 61.4455 39.6368 61.3295L41.2611 60.4748L42.8866 61.3295C43.1073 61.4452 43.356 61.4969 43.6046 61.4788C43.8532 61.4606 44.0918 61.3734 44.2934 61.2268C44.495 61.0803 44.6517 60.8803 44.7457 60.6494C44.8397 60.4186 44.8672 60.166 44.8253 59.9203L44.5156 58.1105L45.8301 56.829C46.0088 56.6549 46.1352 56.4343 46.195 56.192C46.2547 55.9498 46.2455 55.6956 46.1682 55.4584C46.0909 55.2212 45.9487 55.0103 45.7578 54.8497C45.5668 54.6892 45.3347 54.5853 45.0877 54.5498ZM43.1124 57.0016C42.9575 57.1529 42.8416 57.3395 42.7747 57.5454C42.7078 57.7513 42.6918 57.9703 42.7282 58.1838L42.9279 59.347L41.8829 58.7985C41.6909 58.6979 41.4773 58.6454 41.2605 58.6454C41.0437 58.6454 40.8302 58.6979 40.6381 58.7985L39.5931 59.3482L39.7929 58.1849C39.8293 57.9714 39.8133 57.7522 39.7461 57.5463C39.679 57.3404 39.5628 57.1538 39.4075 57.0028L38.5623 56.1753L39.7314 56.0051C39.9458 55.9736 40.1494 55.8906 40.3246 55.7632C40.4999 55.6357 40.6415 55.4676 40.7374 55.2733L41.2599 54.2094L41.7824 55.2733C41.8785 55.4678 42.0203 55.636 42.1958 55.7634C42.3712 55.8909 42.575 55.9738 42.7896 56.0051L43.9576 56.1753L43.1124 57.0016Z" fill="#EC1C23"/>
<path d="M56.0533 54.5498L54.2364 54.285L53.4242 52.6395C53.3141 52.4155 53.1434 52.2269 52.9315 52.095C52.7197 51.9631 52.4751 51.8932 52.2255 51.8932C51.976 51.8932 51.7314 51.9631 51.5195 52.095C51.3076 52.2269 51.137 52.4155 51.0268 52.6395L50.2147 54.285L48.3977 54.5486C48.1509 54.5845 47.9189 54.6887 47.7282 54.8495C47.5375 55.0103 47.3955 55.2212 47.3184 55.4585C47.2413 55.6957 47.2321 55.9498 47.2918 56.192C47.3516 56.4342 47.4779 56.6549 47.6565 56.829L48.9711 58.1105L48.6613 59.9203C48.6185 60.1662 48.6454 60.4193 48.7391 60.6506C48.8328 60.882 48.9895 61.0825 49.1915 61.2292C49.3934 61.376 49.6324 61.4632 49.8814 61.4809C50.1304 61.4986 50.3794 61.4462 50.6001 61.3295L52.2255 60.4748L53.8498 61.3295C54.0706 61.4455 54.3194 61.4975 54.5682 61.4795C54.817 61.4615 55.0558 61.3743 55.2576 61.2277C55.4594 61.0811 55.6162 60.881 55.7103 60.65C55.8043 60.4189 55.8318 60.1662 55.7897 59.9203L55.48 58.1105L56.791 56.829C56.9696 56.6549 57.0959 56.4342 57.1557 56.192C57.2154 55.9498 57.2062 55.6957 57.1291 55.4585C57.052 55.2212 56.91 55.0103 56.7193 54.8495C56.5286 54.6887 56.2966 54.5845 56.0498 54.5486L56.0533 54.5498ZM54.0779 57.0004C53.923 57.1516 53.807 57.3382 53.7401 57.5441C53.6732 57.7501 53.6573 57.9691 53.6938 58.1826L53.8924 59.3458L52.8473 58.7973C52.6555 58.6967 52.4421 58.6442 52.2255 58.6442C52.0089 58.6442 51.7956 58.6967 51.6037 58.7973L50.5575 59.347L50.7573 58.1838C50.794 57.9703 50.7782 57.7512 50.7112 57.5452C50.6443 57.3393 50.5282 57.1527 50.3731 57.0016L49.5279 56.1741L50.6958 56.0039C50.9104 55.9725 51.1141 55.8895 51.2895 55.762C51.4649 55.6346 51.6068 55.4665 51.703 55.2721L52.2255 54.2082L52.748 55.2721C52.8441 55.4666 52.9859 55.6348 53.1614 55.7623C53.3368 55.8897 53.5406 55.9726 53.7552 56.0039L54.9232 56.1741L54.0779 57.0004Z" fill="#EC1C23"/>
<path d="M12.705 42.8655L11.1186 42.635L10.4093 41.1975C10.3025 40.9814 10.1375 40.7994 9.93275 40.6722C9.72802 40.545 9.49179 40.4775 9.25075 40.4775C9.00972 40.4775 8.77349 40.545 8.56876 40.6722C8.36404 40.7994 8.19898 40.9814 8.09225 41.1975L7.38296 42.635L5.79651 42.8655C5.55807 42.9001 5.33407 43.0008 5.14986 43.1561C4.96565 43.3114 4.82858 43.5151 4.75416 43.7443C4.67974 43.9735 4.67094 44.2189 4.72876 44.4528C4.78657 44.6867 4.9087 44.8997 5.08131 45.0678L6.22918 46.1873L5.95847 47.7714C5.91675 48.0091 5.94263 48.2537 6.03315 48.4775C6.12367 48.7012 6.2752 48.895 6.47047 49.0368C6.66575 49.1786 6.89693 49.2627 7.13767 49.2795C7.37842 49.2964 7.61905 49.2453 7.83218 49.1321L9.25075 48.3861L10.6693 49.1321C10.8826 49.2447 11.1231 49.2953 11.3636 49.2781C11.6042 49.261 11.8351 49.1769 12.0303 49.0353C12.2254 48.8936 12.377 48.7002 12.4679 48.4768C12.5587 48.2534 12.5851 48.0091 12.5442 47.7714L12.2723 46.1909L13.4214 45.0714C13.594 44.9032 13.7161 44.6901 13.7739 44.4561C13.8316 44.2221 13.8227 43.9766 13.7482 43.7474C13.6736 43.5182 13.5364 43.3145 13.352 43.1592C13.1677 43.004 12.9435 42.9035 12.705 42.869V42.8655ZM10.8538 45.0938C10.7041 45.2398 10.5921 45.4198 10.5272 45.6184C10.4624 45.8171 10.4466 46.0285 10.4814 46.2346L10.6303 47.1023L9.85129 46.6933C9.66569 46.5965 9.45947 46.546 9.25016 46.546C9.04086 46.546 8.83464 46.5965 8.64904 46.6933L7.87 47.1023L8.01896 46.2346C8.05464 46.0284 8.03949 45.8167 7.9748 45.6177C7.91012 45.4187 7.79786 45.2385 7.64776 45.0927L7.0224 44.4803L7.89247 44.3538C8.10006 44.3235 8.29715 44.2431 8.46668 44.1195C8.6362 43.996 8.77305 43.8329 8.86537 43.6445L9.25548 42.8549L9.64441 43.6445C9.73665 43.833 9.87348 43.9961 10.043 44.1197C10.2126 44.2433 10.4097 44.3236 10.6173 44.3538L11.4886 44.4815L10.8538 45.0938Z" fill="#EC1C23"/>
</svg>
