<svg width="81" height="58" viewBox="0 0 81 58" fill="none" xmlns="http://www.w3.org/2000/svg">
<path d="M62.5861 4.9671H58.4356C58.1916 4.9671 57.9576 5.06405 57.785 5.23661C57.6124 5.40917 57.5155 5.64321 57.5155 5.88725C57.5155 6.13129 57.6124 6.36533 57.785 6.53789C57.9576 6.71045 58.1916 6.8074 58.4356 6.8074H62.5861C62.8301 6.8074 63.0642 6.71045 63.2367 6.53789C63.4093 6.36533 63.5063 6.13129 63.5063 5.88725C63.5063 5.64321 63.4093 5.40917 63.2367 5.23661C63.0642 5.06405 62.8301 4.9671 62.5861 4.9671ZM60.8685 55.6365H56.6886C56.4445 55.6365 56.2105 55.7335 56.0379 55.906C55.8654 56.0786 55.7684 56.3126 55.7684 56.5567C55.7684 56.8007 55.8654 57.0347 56.0379 57.2073C56.2105 57.3799 56.4445 57.4768 56.6886 57.4768H60.8599C61.1039 57.4768 61.338 57.3799 61.5106 57.2073C61.6831 57.0347 61.7801 56.8007 61.7801 56.5567C61.7801 56.3126 61.6831 56.0786 61.5106 55.906C61.338 55.7335 61.1039 55.6365 60.8599 55.6365H60.8685Z" fill="#EC1C23"/>
<path d="M78.7439 18.0541V6.90563C79.0906 6.57594 79.3678 6.18019 79.5592 5.74169C79.7505 5.3032 79.8522 4.83083 79.8581 4.35243C79.8641 3.87404 79.7742 3.39929 79.5938 2.95616C79.4134 2.51303 79.1462 2.1105 78.8078 1.77228C78.4694 1.43405 78.0667 1.16699 77.6235 0.986816C77.1803 0.806644 76.7055 0.717011 76.2271 0.7232C75.7487 0.72939 75.2764 0.831276 74.838 1.02285C74.3996 1.21443 74.004 1.49183 73.6745 1.83869H46.2713C45.9449 1.83869 45.6216 1.90298 45.3201 2.0279C45.0185 2.15281 44.7445 2.3359 44.5137 2.56671C44.2829 2.79753 44.0998 3.07154 43.9749 3.37311C43.85 3.67468 43.7857 3.9979 43.7857 4.32431C43.7857 4.65073 43.85 4.97395 43.9749 5.27552C44.0998 5.57709 44.2829 5.8511 44.5137 6.08192C44.7445 6.31273 45.0185 6.49582 45.3201 6.62073C45.6216 6.74565 45.9449 6.80994 46.2713 6.80994H46.4161V15.0692H45.4456C45.039 15.0695 44.6491 15.2312 44.3616 15.5187C44.074 15.8062 43.9124 16.1961 43.912 16.6028V20.2588C43.9124 20.6654 44.074 21.0553 44.3616 21.3428C44.6491 21.6304 45.039 21.7921 45.4456 21.7924H52.9822C53.3889 21.7921 53.7787 21.6304 54.0663 21.3428C54.3538 21.0553 54.5155 20.6654 54.5158 20.2588V16.6028C54.5155 16.1961 54.3538 15.8062 54.0663 15.5187C53.7787 15.2312 53.3889 15.0695 52.9822 15.0692H52.0118V6.80748H58.4356C58.1916 6.80748 57.9575 6.71054 57.785 6.53798C57.6124 6.36542 57.5155 6.13138 57.5155 5.88734C57.5155 5.6433 57.6124 5.40926 57.785 5.23669C57.9575 5.06413 58.1916 4.96719 58.4356 4.96719H46.2713C46.1001 4.96719 45.936 4.8992 45.815 4.77818C45.6939 4.65715 45.626 4.49301 45.626 4.32186C45.626 4.15071 45.6939 3.98657 45.815 3.86554C45.936 3.74452 46.1001 3.67653 46.2713 3.67653H72.7298C72.6513 4.10317 72.6513 4.54055 72.7298 4.96719H62.5861C62.8301 4.96719 63.0642 5.06413 63.2367 5.23669C63.4093 5.40926 63.5062 5.6433 63.5062 5.88734C63.5062 6.13138 63.4093 6.36542 63.2367 6.53798C63.0642 6.71054 62.8301 6.80748 62.5861 6.80748H73.6757C73.7076 6.84061 73.7395 6.87373 73.7726 6.90563V18.0541C73.2545 18.12 72.7781 18.3723 72.4325 18.7638C72.0868 19.1553 71.8955 19.6592 71.8943 20.1815V26.4606H60.9679C60.6263 26.4609 60.2988 26.5967 60.0573 26.8383C59.8158 27.0798 59.68 27.4072 59.6797 27.7488V39.1059H56.707V27.7488C56.7066 27.4072 56.5708 27.0798 56.3293 26.8383C56.0878 26.5967 55.7603 26.4609 55.4188 26.4606H43.0091C42.6675 26.4609 42.34 26.5967 42.0985 26.8383C41.857 27.0798 41.7212 27.4072 41.7209 27.7488V39.1059H21.5623V27.7488C21.562 27.4072 21.4261 27.0798 21.1846 26.8383C20.9431 26.5967 20.6156 26.4609 20.2741 26.4606H7.85946C7.5179 26.4609 7.19043 26.5967 6.94892 26.8383C6.7074 27.0798 6.57158 27.4072 6.57125 27.7488V39.1353C4.94793 39.2798 3.43734 40.0262 2.33631 41.2278C1.23529 42.4294 0.62343 43.9993 0.620972 45.6291L0.620972 46.4437C0.623212 47.8538 1.08176 49.2252 1.92806 50.353C2.77437 51.4808 3.96297 52.3044 5.31617 52.7007V55.9433C5.3165 56.3499 5.47818 56.7398 5.76571 57.0274C6.05324 57.3149 6.44312 57.4766 6.84975 57.4769H56.6886C56.4445 57.4769 56.2105 57.38 56.0379 57.2074C55.8654 57.0348 55.7684 56.8008 55.7684 56.5567C55.7684 56.3127 55.8654 56.0787 56.0379 55.9061C56.2105 55.7335 56.4445 55.6366 56.6886 55.6366H7.15647V52.9657H74.0855V55.6329H60.8685C61.1125 55.6329 61.3466 55.7299 61.5191 55.9024C61.6917 56.075 61.7886 56.309 61.7886 56.5531C61.7886 56.7971 61.6917 57.0312 61.5191 57.2037C61.3466 57.3763 61.1125 57.4732 60.8685 57.4732H74.3922C74.7982 57.4729 75.1875 57.3117 75.4749 57.025C75.7624 56.7382 75.9245 56.3493 75.9258 55.9433V52.7032C77.279 52.3069 78.4676 51.4833 79.3139 50.3555C80.1602 49.2276 80.6187 47.8562 80.621 46.4462V20.1815C80.6201 19.6594 80.429 19.1554 80.0836 18.7639C79.7381 18.3723 79.2619 18.12 78.7439 18.0541ZM52.6755 16.907V19.9496H45.7523V16.907H52.6755ZM48.2588 6.80748H50.1739V15.0667H48.2563L48.2588 6.80748ZM76.2582 2.57481C76.6038 2.57481 76.9416 2.67727 77.2289 2.86924C77.5162 3.06121 77.7401 3.33406 77.8723 3.65329C78.0045 3.97253 78.0391 4.3238 77.9717 4.66269C77.9043 5.00159 77.7379 5.31288 77.4936 5.55721C77.2493 5.80154 76.938 5.96793 76.5991 6.03534C76.2602 6.10275 75.9089 6.06816 75.5897 5.93593C75.2705 5.8037 74.9976 5.57977 74.8056 5.29247C74.6137 5.00517 74.5112 4.6674 74.5112 4.32186C74.5118 3.85871 74.6961 3.41472 75.0236 3.08723C75.3511 2.75973 75.7951 2.57546 76.2582 2.57481ZM76.9036 7.85032V18.0333H75.6129V7.85032C76.0396 7.92884 76.4769 7.92884 76.9036 7.85032ZM66.0974 28.3009H68.2481V32.2268H66.0974V28.3009ZM61.52 28.3009H64.2571V32.7765C64.2574 33.118 64.3932 33.4455 64.6348 33.687C64.8763 33.9285 65.2037 34.0644 65.5453 34.0647H68.8001C69.1417 34.0644 69.4692 33.9285 69.7107 33.687C69.9522 33.4455 70.088 33.118 70.0884 32.7765V28.3009H72.8255V39.1059H61.52V28.3009ZM48.1386 28.3009H50.2893V32.2268H48.1386V28.3009ZM43.5611 28.3009H46.2983V32.7765C46.2986 33.118 46.4344 33.4455 46.6759 33.687C46.9175 33.9285 47.2449 34.0644 47.5865 34.0647H50.8413C51.1829 34.0644 51.5104 33.9285 51.7519 33.687C51.9934 33.4455 52.1292 33.118 52.1296 32.7765V28.3009H54.8667V39.1059H43.5611V28.3009ZM8.41523 28.3009H19.722V39.1059H8.41523V28.3009ZM78.7807 46.4437C78.7791 47.6849 78.2853 48.8748 77.4076 49.7524C76.53 50.63 75.3401 51.1238 74.099 51.1254H7.14297C5.9018 51.1238 4.71194 50.63 3.8343 49.7524C2.95666 48.8748 2.46289 47.6849 2.46126 46.4437V45.6291C2.46256 44.3877 2.95619 43.1975 3.83386 42.3196C4.71154 41.4417 5.90159 40.9478 7.14297 40.9462H74.099C75.3403 40.9478 76.5304 41.4417 77.4081 42.3196C78.2858 43.1975 78.7794 44.3877 78.7807 45.6291V46.4437ZM78.7807 41.0958C77.6912 39.9666 76.2302 39.2694 74.667 39.1329V27.7488C74.667 27.4704 74.5768 27.1996 74.4101 26.9766C74.2434 26.7537 74.009 26.5908 73.742 26.5121V20.1815C73.7423 20.1003 73.7747 20.0224 73.8322 19.965C73.8896 19.9075 73.9674 19.8751 74.0487 19.8748H78.4801C78.5613 19.8751 78.6392 19.9075 78.6966 19.965C78.7541 20.0224 78.7865 20.1003 78.7868 20.1815L78.7807 41.0958Z" fill="#EC1C23"/>
<path d="M7.96369 42.4478C7.25418 42.4478 6.5606 42.6582 5.97067 43.0524C5.38073 43.4466 4.92093 44.0068 4.64941 44.6623C4.3779 45.3178 4.30686 46.0391 4.44527 46.735C4.58369 47.4309 4.92535 48.0701 5.42705 48.5718C5.92875 49.0735 6.56796 49.4152 7.26383 49.5536C7.95971 49.692 8.68101 49.621 9.33651 49.3494C9.99201 49.0779 10.5523 48.6181 10.9465 48.0282C11.3406 47.4382 11.551 46.7447 11.551 46.0352C11.5501 45.084 11.1718 44.1721 10.4992 43.4996C9.8267 42.8271 8.91481 42.4488 7.96369 42.4478ZM7.96369 47.7822C7.61816 47.7822 7.28038 47.6798 6.99308 47.4878C6.70578 47.2958 6.48185 47.023 6.34962 46.7037C6.21739 46.3845 6.1828 46.0332 6.25021 45.6943C6.31762 45.3554 6.48401 45.0441 6.72834 44.7998C6.97267 44.5555 7.28396 44.3891 7.62286 44.3217C7.96175 44.2543 8.31303 44.2889 8.63226 44.4211C8.95149 44.5533 9.22434 44.7772 9.41631 45.0645C9.60828 45.3519 9.71074 45.6896 9.71074 46.0352C9.71042 46.4985 9.52629 46.9428 9.19876 47.2706C8.87123 47.5983 8.42705 47.7828 7.96369 47.7834V47.7822Z" fill="#EC1C23"/>
<path d="M44.4016 42.4478C43.692 42.4478 42.9985 42.6582 42.4085 43.0524C41.8186 43.4466 41.3588 44.0068 41.0873 44.6623C40.8158 45.3178 40.7447 46.0391 40.8831 46.735C41.0216 47.4309 41.3632 48.0701 41.8649 48.5718C42.3666 49.0735 43.0058 49.4152 43.7017 49.5536C44.3976 49.692 45.1189 49.621 45.7744 49.3494C46.4299 49.0779 46.9901 48.6181 47.3843 48.0282C47.7785 47.4382 47.9889 46.7447 47.9889 46.0352C47.9879 45.084 47.6097 44.1721 46.9371 43.4996C46.2646 42.8271 45.3527 42.4488 44.4016 42.4478ZM44.4016 47.7822C44.056 47.7822 43.7182 47.6798 43.4309 47.4878C43.1436 47.2958 42.9197 47.023 42.7875 46.7037C42.6553 46.3845 42.6207 46.0332 42.6881 45.6943C42.7555 45.3554 42.9219 45.0441 43.1662 44.7998C43.4105 44.5555 43.7218 44.3891 44.0607 44.3217C44.3996 44.2543 44.7509 44.2889 45.0701 44.4211C45.3894 44.5533 45.6622 44.7772 45.8542 45.0645C46.0461 45.3519 46.1486 45.6896 46.1486 46.0352C46.1483 46.4985 45.9642 46.9428 45.6366 47.2706C45.3091 47.5983 44.8649 47.7828 44.4016 47.7834V47.7822Z" fill="#EC1C23"/>
<path d="M54.0263 42.4478C53.3168 42.4478 52.6232 42.6582 52.0333 43.0524C51.4434 43.4466 50.9836 44.0068 50.712 44.6623C50.4405 45.3178 50.3695 46.0391 50.5079 46.735C50.6463 47.4309 50.988 48.0701 51.4897 48.5718C51.9914 49.0735 52.6306 49.4152 53.3265 49.5536C54.0223 49.692 54.7436 49.621 55.3991 49.3494C56.0546 49.0779 56.6149 48.6181 57.0091 48.0282C57.4033 47.4382 57.6137 46.7447 57.6137 46.0352C57.6127 45.084 57.2344 44.1721 56.5619 43.4996C55.8893 42.8271 54.9774 42.4488 54.0263 42.4478ZM54.0263 47.7822C53.6808 47.7822 53.343 47.6798 53.0557 47.4878C52.7684 47.2958 52.5445 47.023 52.4122 46.7037C52.28 46.3845 52.2454 46.0332 52.3128 45.6943C52.3802 45.3554 52.5466 45.0441 52.791 44.7998C53.0353 44.5555 53.3466 44.3891 53.6855 44.3217C54.0244 44.2543 54.3756 44.2889 54.6949 44.4211C55.0141 44.5533 55.287 44.7772 55.4789 45.0645C55.6709 45.3519 55.7734 45.6896 55.7734 46.0352C55.773 46.4985 55.5889 46.9428 55.2614 47.2706C54.9339 47.5983 54.4897 47.7828 54.0263 47.7834V47.7822Z" fill="#EC1C23"/>
<path d="M63.6523 42.4478C62.9428 42.4478 62.2493 42.6582 61.6594 43.0523C61.0695 43.4464 60.6097 44.0066 60.3381 44.6621C60.0666 45.3175 59.9955 46.0387 60.1338 46.7346C60.2721 47.4304 60.6136 48.0696 61.1152 48.5714C61.6168 49.0731 62.2559 49.4149 62.9517 49.5534C63.6475 49.692 64.3687 49.6211 65.0243 49.3498C65.6798 49.0785 66.2401 48.6189 66.6345 48.0291C67.0288 47.4393 67.2394 46.7458 67.2396 46.0364C67.239 45.0851 66.8609 44.1728 66.1883 43.5C65.5157 42.8272 64.6036 42.4488 63.6523 42.4478ZM63.6523 47.7822C63.3067 47.7822 62.9689 47.6797 62.6816 47.4877C62.3942 47.2957 62.1703 47.0227 62.0381 46.7034C61.9059 46.3841 61.8714 46.0328 61.9389 45.6939C62.0064 45.3549 62.1729 45.0437 62.4174 44.7994C62.6618 44.5551 62.9732 44.3888 63.3122 44.3215C63.6512 44.2543 64.0025 44.289 64.3217 44.4214C64.6409 44.5539 64.9137 44.778 65.1055 45.0654C65.2973 45.3529 65.3996 45.6908 65.3993 46.0364C65.3987 46.4995 65.2144 46.9435 64.8869 47.271C64.5594 47.5985 64.1154 47.7828 63.6523 47.7834V47.7822Z" fill="#EC1C23"/>
<path d="M17.5897 42.4478C16.8802 42.4478 16.1866 42.6582 15.5966 43.0524C15.0067 43.4466 14.5469 44.0068 14.2754 44.6623C14.0039 45.3178 13.9328 46.0391 14.0713 46.735C14.2097 47.4309 14.5513 48.0701 15.053 48.5718C15.5547 49.0735 16.1939 49.4152 16.8898 49.5536C17.5857 49.692 18.307 49.621 18.9625 49.3494C19.618 49.0779 20.1783 48.6181 20.5724 48.0282C20.9666 47.4382 21.177 46.7447 21.177 46.0352C21.176 45.084 20.7978 44.1721 20.1252 43.4996C19.4527 42.8271 18.5408 42.4488 17.5897 42.4478ZM17.5897 47.7822C17.2441 47.7822 16.9064 47.6798 16.6191 47.4878C16.3318 47.2958 16.1078 47.023 15.9756 46.7037C15.8434 46.3845 15.8088 46.0332 15.8762 45.6943C15.9436 45.3554 16.11 45.0441 16.3543 44.7998C16.5986 44.5555 16.9099 44.3891 17.2488 44.3217C17.5877 44.2543 17.939 44.2889 18.2582 44.4211C18.5775 44.5533 18.8503 44.7772 19.0423 45.0645C19.2343 45.3519 19.3367 45.6896 19.3367 46.0352C19.3364 46.4985 19.1523 46.9428 18.8247 47.2706C18.4972 47.5983 18.053 47.7828 17.5897 47.7834V47.7822Z" fill="#EC1C23"/>
<path d="M26.8255 42.4478C26.116 42.4478 25.4224 42.6582 24.8325 43.0524C24.2425 43.4466 23.7827 44.0068 23.5112 44.6623C23.2397 45.3178 23.1687 46.0391 23.3071 46.735C23.4455 47.4309 23.7872 48.0701 24.2889 48.5718C24.7906 49.0735 25.4298 49.4152 26.1257 49.5536C26.8215 49.692 27.5428 49.621 28.1983 49.3494C28.8538 49.0779 29.4141 48.6181 29.8083 48.0282C30.2025 47.4382 30.4129 46.7447 30.4129 46.0352C30.4119 45.084 30.0336 44.1721 29.3611 43.4996C28.6885 42.8271 27.7766 42.4488 26.8255 42.4478ZM26.8255 47.7822C26.48 47.7822 26.1422 47.6798 25.8549 47.4878C25.5676 47.2958 25.3437 47.023 25.2114 46.7037C25.0792 46.3845 25.0446 46.0332 25.112 45.6943C25.1794 45.3554 25.3458 45.0441 25.5902 44.7998C25.8345 44.5555 26.1458 44.3891 26.4847 44.3217C26.8236 44.2543 27.1748 44.2889 27.4941 44.4211C27.8133 44.5533 28.0862 44.7772 28.2781 45.0645C28.4701 45.3519 28.5726 45.6896 28.5726 46.0352C28.5722 46.4985 28.3881 46.9428 28.0606 47.2706C27.733 47.5983 27.2889 47.7828 26.8255 47.7834V47.7822Z" fill="#EC1C23"/>
<path d="M35.6282 42.4478C34.9187 42.4478 34.2252 42.6582 33.6352 43.0524C33.0453 43.4466 32.5855 44.0068 32.314 44.6623C32.0424 45.3178 31.9714 46.0391 32.1098 46.735C32.2482 47.4309 32.5899 48.0701 33.0916 48.5718C33.5933 49.0735 34.2325 49.4152 34.9284 49.5536C35.6243 49.692 36.3456 49.621 37.0011 49.3494C37.6566 49.0779 38.2168 48.6181 38.611 48.0282C39.0052 47.4382 39.2156 46.7447 39.2156 46.0352C39.2146 45.084 38.8363 44.1721 38.1638 43.4996C37.4913 42.8271 36.5794 42.4488 35.6282 42.4478ZM35.6282 47.7822C35.2827 47.7822 34.9449 47.6798 34.6576 47.4878C34.3703 47.2958 34.1464 47.023 34.0142 46.7037C33.8819 46.3845 33.8473 46.0332 33.9148 45.6943C33.9822 45.3554 34.1486 45.0441 34.3929 44.7998C34.6372 44.5555 34.9485 44.3891 35.2874 44.3217C35.6263 44.2543 35.9776 44.2889 36.2968 44.4211C36.616 44.5533 36.8889 44.7772 37.0809 45.0645C37.2728 45.3519 37.3753 45.6896 37.3753 46.0352C37.375 46.4985 37.1908 46.9428 36.8633 47.2706C36.5358 47.5983 36.0916 47.7828 35.6282 47.7834V47.7822Z" fill="#EC1C23"/>
<path d="M73.2783 42.4478C72.5688 42.4478 71.8752 42.6582 71.2852 43.0524C70.6953 43.4466 70.2355 44.0068 69.964 44.6623C69.6925 45.3178 69.6214 46.0391 69.7598 46.735C69.8983 47.4309 70.2399 48.0701 70.7416 48.5718C71.2433 49.0735 71.8825 49.4152 72.5784 49.5536C73.2743 49.692 73.9956 49.621 74.6511 49.3494C75.3066 49.0779 75.8669 48.6181 76.261 48.0282C76.6552 47.4382 76.8656 46.7447 76.8656 46.0352C76.865 45.0839 76.4868 44.1719 75.8142 43.4992C75.1416 42.8266 74.2295 42.4485 73.2783 42.4478ZM73.2783 47.7822C72.9327 47.7822 72.595 47.6798 72.3077 47.4878C72.0204 47.2958 71.7964 47.023 71.6642 46.7037C71.532 46.3845 71.4974 46.0332 71.5648 45.6943C71.6322 45.3554 71.7986 45.0441 72.0429 44.7998C72.2872 44.5555 72.5985 44.3891 72.9374 44.3217C73.2763 44.2543 73.6276 44.2889 73.9468 44.4211C74.2661 44.5533 74.5389 44.7772 74.7309 45.0645C74.9229 45.3519 75.0253 45.6896 75.0253 46.0352C75.0253 46.4986 74.8413 46.9431 74.5137 47.2709C74.1861 47.5988 73.7417 47.7831 73.2783 47.7834V47.7822Z" fill="#EC1C23"/>
<path d="M62.5861 4.9671H58.4356C58.1916 4.9671 57.9576 5.06405 57.785 5.23661C57.6124 5.40917 57.5155 5.64321 57.5155 5.88725C57.5155 6.13129 57.6124 6.36533 57.785 6.53789C57.9576 6.71045 58.1916 6.8074 58.4356 6.8074H62.5861C62.8301 6.8074 63.0642 6.71045 63.2367 6.53789C63.4093 6.36533 63.5063 6.13129 63.5063 5.88725C63.5063 5.64321 63.4093 5.40917 63.2367 5.23661C63.0642 5.06405 62.8301 4.9671 62.5861 4.9671ZM60.8685 55.6365H56.6886C56.4445 55.6365 56.2105 55.7335 56.0379 55.906C55.8654 56.0786 55.7684 56.3126 55.7684 56.5567C55.7684 56.8007 55.8654 57.0347 56.0379 57.2073C56.2105 57.3799 56.4445 57.4768 56.6886 57.4768H60.8599C61.1039 57.4768 61.338 57.3799 61.5106 57.2073C61.6831 57.0347 61.7801 56.8007 61.7801 56.5567C61.7801 56.3126 61.6831 56.0786 61.5106 55.906C61.338 55.7335 61.1039 55.6365 60.8599 55.6365H60.8685Z" fill="#EC1C23"/>
<path d="M78.7439 18.0541V6.90563C79.0906 6.57594 79.3678 6.18019 79.5592 5.74169C79.7505 5.3032 79.8522 4.83083 79.8581 4.35243C79.8641 3.87404 79.7742 3.39929 79.5938 2.95616C79.4134 2.51303 79.1462 2.1105 78.8078 1.77228C78.4694 1.43405 78.0667 1.16699 77.6235 0.986816C77.1803 0.806644 76.7055 0.717011 76.2271 0.7232C75.7487 0.72939 75.2764 0.831276 74.838 1.02285C74.3996 1.21443 74.004 1.49183 73.6745 1.83869H46.2713C45.9449 1.83869 45.6216 1.90298 45.3201 2.0279C45.0185 2.15281 44.7445 2.3359 44.5137 2.56671C44.2829 2.79753 44.0998 3.07154 43.9749 3.37311C43.85 3.67468 43.7857 3.9979 43.7857 4.32431C43.7857 4.65073 43.85 4.97395 43.9749 5.27552C44.0998 5.57709 44.2829 5.8511 44.5137 6.08192C44.7445 6.31273 45.0185 6.49582 45.3201 6.62073C45.6216 6.74565 45.9449 6.80994 46.2713 6.80994H46.4161V15.0692H45.4456C45.039 15.0695 44.6491 15.2312 44.3616 15.5187C44.074 15.8062 43.9124 16.1961 43.912 16.6028V20.2588C43.9124 20.6654 44.074 21.0553 44.3616 21.3428C44.6491 21.6304 45.039 21.7921 45.4456 21.7924H52.9822C53.3889 21.7921 53.7787 21.6304 54.0663 21.3428C54.3538 21.0553 54.5155 20.6654 54.5158 20.2588V16.6028C54.5155 16.1961 54.3538 15.8062 54.0663 15.5187C53.7787 15.2312 53.3889 15.0695 52.9822 15.0692H52.0118V6.80748H58.4356C58.1916 6.80748 57.9575 6.71054 57.785 6.53798C57.6124 6.36542 57.5155 6.13138 57.5155 5.88734C57.5155 5.6433 57.6124 5.40926 57.785 5.23669C57.9575 5.06413 58.1916 4.96719 58.4356 4.96719H46.2713C46.1001 4.96719 45.936 4.8992 45.815 4.77818C45.6939 4.65715 45.626 4.49301 45.626 4.32186C45.626 4.15071 45.6939 3.98657 45.815 3.86554C45.936 3.74452 46.1001 3.67653 46.2713 3.67653H72.7298C72.6513 4.10317 72.6513 4.54055 72.7298 4.96719H62.5861C62.8301 4.96719 63.0642 5.06413 63.2367 5.23669C63.4093 5.40926 63.5062 5.6433 63.5062 5.88734C63.5062 6.13138 63.4093 6.36542 63.2367 6.53798C63.0642 6.71054 62.8301 6.80748 62.5861 6.80748H73.6757C73.7076 6.84061 73.7395 6.87373 73.7726 6.90563V18.0541C73.2545 18.12 72.7781 18.3723 72.4325 18.7638C72.0868 19.1553 71.8955 19.6592 71.8943 20.1815V26.4606H60.9679C60.6263 26.4609 60.2988 26.5967 60.0573 26.8383C59.8158 27.0798 59.68 27.4072 59.6797 27.7488V39.1059H56.707V27.7488C56.7066 27.4072 56.5708 27.0798 56.3293 26.8383C56.0878 26.5967 55.7603 26.4609 55.4188 26.4606H43.0091C42.6675 26.4609 42.34 26.5967 42.0985 26.8383C41.857 27.0798 41.7212 27.4072 41.7209 27.7488V39.1059H6.57493V39.1353C4.95095 39.279 3.43946 40.025 2.33767 41.2267C1.23588 42.4284 0.623513 43.9988 0.620972 45.6291L0.620972 46.4437C0.623212 47.8538 1.08176 49.2252 1.92806 50.353C2.77437 51.4808 3.96297 52.3044 5.31617 52.7007V55.9433C5.3165 56.3499 5.47818 56.7398 5.76571 57.0274C6.05324 57.3149 6.44312 57.4766 6.84975 57.4769H56.6886C56.4445 57.4769 56.2105 57.38 56.0379 57.2074C55.8654 57.0348 55.7684 56.8008 55.7684 56.5567C55.7684 56.3127 55.8654 56.0787 56.0379 55.9061C56.2105 55.7335 56.4445 55.6366 56.6886 55.6366H7.15647V52.9657H74.0855V55.6329H60.8685C61.1125 55.6329 61.3466 55.7299 61.5191 55.9024C61.6917 56.075 61.7886 56.309 61.7886 56.5531C61.7886 56.7971 61.6917 57.0312 61.5191 57.2037C61.3466 57.3763 61.1125 57.4732 60.8685 57.4732H74.3922C74.7982 57.4729 75.1875 57.3117 75.4749 57.025C75.7624 56.7382 75.9245 56.3493 75.9258 55.9433V52.7032C77.279 52.3069 78.4676 51.4833 79.3139 50.3555C80.1602 49.2276 80.6187 47.8562 80.621 46.4462V20.1815C80.6201 19.6594 80.429 19.1554 80.0836 18.7639C79.7381 18.3723 79.2619 18.12 78.7439 18.0541ZM52.6755 16.907V19.9496H45.7523V16.907H52.6755ZM48.2588 6.80748H50.1739V15.0667H48.2563L48.2588 6.80748ZM76.2582 2.57481C76.6038 2.57481 76.9416 2.67727 77.2289 2.86924C77.5162 3.06121 77.7401 3.33406 77.8723 3.65329C78.0045 3.97253 78.0391 4.3238 77.9717 4.66269C77.9043 5.00159 77.7379 5.31288 77.4936 5.55721C77.2493 5.80154 76.938 5.96793 76.5991 6.03534C76.2602 6.10275 75.9089 6.06816 75.5897 5.93593C75.2705 5.8037 74.9976 5.57977 74.8056 5.29247C74.6137 5.00517 74.5112 4.6674 74.5112 4.32186C74.5118 3.85871 74.6961 3.41472 75.0236 3.08723C75.3511 2.75973 75.7951 2.57546 76.2582 2.57481ZM76.9036 7.85032V18.0333H75.6129V7.85032C76.0396 7.92884 76.4769 7.92884 76.9036 7.85032ZM66.0974 28.3009H68.2481V32.2268H66.0974V28.3009ZM61.52 28.3009H64.2571V32.7765C64.2574 33.118 64.3932 33.4455 64.6348 33.687C64.8763 33.9285 65.2037 34.0644 65.5453 34.0647H68.8001C69.1417 34.0644 69.4692 33.9285 69.7107 33.687C69.9522 33.4455 70.088 33.118 70.0884 32.7765V28.3009H72.8255V39.1059H61.52V28.3009ZM48.1386 28.3009H50.2893V32.2268H48.1386V28.3009ZM43.5611 28.3009H46.2983V32.7765C46.2986 33.118 46.4344 33.4455 46.6759 33.687C46.9175 33.9285 47.2449 34.0644 47.5865 34.0647H50.8413C51.1829 34.0644 51.5104 33.9285 51.7519 33.687C51.9934 33.4455 52.1292 33.118 52.1296 32.7765V28.3009H54.8667V39.1059H43.5611V28.3009ZM78.7807 46.4437C78.7791 47.6849 78.2853 48.8748 77.4076 49.7524C76.53 50.63 75.3401 51.1238 74.099 51.1254H7.14297C5.9018 51.1238 4.71194 50.63 3.8343 49.7524C2.95666 48.8748 2.46289 47.6849 2.46126 46.4437V45.6291C2.46256 44.3877 2.95619 43.1975 3.83386 42.3196C4.71154 41.4417 5.90159 40.9478 7.14297 40.9462H74.099C75.3403 40.9478 76.5304 41.4417 77.4081 42.3196C78.2858 43.1975 78.7794 44.3877 78.7807 45.6291V46.4437ZM78.7807 41.0958C77.6912 39.9666 76.2302 39.2694 74.667 39.1329V27.7488C74.667 27.4704 74.5768 27.1996 74.4101 26.9766C74.2434 26.7537 74.009 26.5908 73.742 26.5121V20.1815C73.7423 20.1003 73.7747 20.0224 73.8322 19.965C73.8896 19.9075 73.9674 19.8751 74.0487 19.8748H78.4801C78.5613 19.8751 78.6392 19.9075 78.6966 19.965C78.7541 20.0224 78.7865 20.1003 78.7868 20.1815L78.7807 41.0958Z" fill="#EC1C23"/>
<path d="M7.96369 42.4478C7.25418 42.4478 6.5606 42.6582 5.97067 43.0524C5.38073 43.4466 4.92093 44.0068 4.64941 44.6623C4.3779 45.3178 4.30686 46.0391 4.44527 46.735C4.58369 47.4309 4.92535 48.0701 5.42705 48.5718C5.92875 49.0735 6.56796 49.4152 7.26383 49.5536C7.95971 49.692 8.68101 49.621 9.33651 49.3494C9.99201 49.0779 10.5523 48.6181 10.9465 48.0282C11.3406 47.4382 11.551 46.7447 11.551 46.0352C11.5501 45.084 11.1718 44.1721 10.4992 43.4996C9.8267 42.8271 8.91481 42.4488 7.96369 42.4478ZM7.96369 47.7822C7.61816 47.7822 7.28038 47.6798 6.99308 47.4878C6.70578 47.2958 6.48185 47.023 6.34962 46.7037C6.21739 46.3845 6.1828 46.0332 6.25021 45.6943C6.31762 45.3554 6.48401 45.0441 6.72834 44.7998C6.97267 44.5555 7.28396 44.3891 7.62286 44.3217C7.96175 44.2543 8.31303 44.2889 8.63226 44.4211C8.95149 44.5533 9.22434 44.7772 9.41631 45.0645C9.60828 45.3519 9.71074 45.6896 9.71074 46.0352C9.71042 46.4985 9.52629 46.9428 9.19876 47.2706C8.87123 47.5983 8.42705 47.7828 7.96369 47.7834V47.7822Z" fill="#EC1C23"/>
<path d="M44.4016 42.4478C43.692 42.4478 42.9985 42.6582 42.4085 43.0524C41.8186 43.4466 41.3588 44.0068 41.0873 44.6623C40.8158 45.3178 40.7447 46.0391 40.8831 46.735C41.0216 47.4309 41.3632 48.0701 41.8649 48.5718C42.3666 49.0735 43.0058 49.4152 43.7017 49.5536C44.3976 49.692 45.1189 49.621 45.7744 49.3494C46.4299 49.0779 46.9901 48.6181 47.3843 48.0282C47.7785 47.4382 47.9889 46.7447 47.9889 46.0352C47.9879 45.084 47.6097 44.1721 46.9371 43.4996C46.2646 42.8271 45.3527 42.4488 44.4016 42.4478ZM44.4016 47.7822C44.056 47.7822 43.7182 47.6798 43.4309 47.4878C43.1436 47.2958 42.9197 47.023 42.7875 46.7037C42.6553 46.3845 42.6207 46.0332 42.6881 45.6943C42.7555 45.3554 42.9219 45.0441 43.1662 44.7998C43.4105 44.5555 43.7218 44.3891 44.0607 44.3217C44.3996 44.2543 44.7509 44.2889 45.0701 44.4211C45.3894 44.5533 45.6622 44.7772 45.8542 45.0645C46.0461 45.3519 46.1486 45.6896 46.1486 46.0352C46.1483 46.4985 45.9642 46.9428 45.6366 47.2706C45.3091 47.5983 44.8649 47.7828 44.4016 47.7834V47.7822Z" fill="#EC1C23"/>
<path d="M54.0263 42.4478C53.3168 42.4478 52.6232 42.6582 52.0333 43.0524C51.4434 43.4466 50.9836 44.0068 50.712 44.6623C50.4405 45.3178 50.3695 46.0391 50.5079 46.735C50.6463 47.4309 50.988 48.0701 51.4897 48.5718C51.9914 49.0735 52.6306 49.4152 53.3265 49.5536C54.0223 49.692 54.7436 49.621 55.3991 49.3494C56.0546 49.0779 56.6149 48.6181 57.0091 48.0282C57.4033 47.4382 57.6137 46.7447 57.6137 46.0352C57.6127 45.084 57.2344 44.1721 56.5619 43.4996C55.8893 42.8271 54.9774 42.4488 54.0263 42.4478ZM54.0263 47.7822C53.6808 47.7822 53.343 47.6798 53.0557 47.4878C52.7684 47.2958 52.5445 47.023 52.4122 46.7037C52.28 46.3845 52.2454 46.0332 52.3128 45.6943C52.3802 45.3554 52.5466 45.0441 52.791 44.7998C53.0353 44.5555 53.3466 44.3891 53.6855 44.3217C54.0244 44.2543 54.3756 44.2889 54.6949 44.4211C55.0141 44.5533 55.287 44.7772 55.4789 45.0645C55.6709 45.3519 55.7734 45.6896 55.7734 46.0352C55.773 46.4985 55.5889 46.9428 55.2614 47.2706C54.9339 47.5983 54.4897 47.7828 54.0263 47.7834V47.7822Z" fill="#EC1C23"/>
<path d="M63.6523 42.4478C62.9428 42.4478 62.2493 42.6582 61.6594 43.0523C61.0695 43.4464 60.6097 44.0066 60.3381 44.6621C60.0666 45.3175 59.9955 46.0387 60.1338 46.7346C60.2721 47.4304 60.6136 48.0696 61.1152 48.5714C61.6168 49.0731 62.2559 49.4149 62.9517 49.5534C63.6475 49.692 64.3687 49.6211 65.0243 49.3498C65.6798 49.0785 66.2401 48.6189 66.6345 48.0291C67.0288 47.4393 67.2394 46.7458 67.2396 46.0364C67.239 45.0851 66.8609 44.1728 66.1883 43.5C65.5157 42.8272 64.6036 42.4488 63.6523 42.4478ZM63.6523 47.7822C63.3067 47.7822 62.9689 47.6797 62.6816 47.4877C62.3942 47.2957 62.1703 47.0227 62.0381 46.7034C61.9059 46.3841 61.8714 46.0328 61.9389 45.6939C62.0064 45.3549 62.1729 45.0437 62.4174 44.7994C62.6618 44.5551 62.9732 44.3888 63.3122 44.3215C63.6512 44.2543 64.0025 44.289 64.3217 44.4214C64.6409 44.5539 64.9137 44.778 65.1055 45.0654C65.2973 45.3529 65.3996 45.6908 65.3993 46.0364C65.3987 46.4995 65.2144 46.9435 64.8869 47.271C64.5594 47.5985 64.1154 47.7828 63.6523 47.7834V47.7822Z" fill="#EC1C23"/>
<path d="M17.5897 42.4478C16.8802 42.4478 16.1866 42.6582 15.5966 43.0524C15.0067 43.4466 14.5469 44.0068 14.2754 44.6623C14.0039 45.3178 13.9328 46.0391 14.0713 46.735C14.2097 47.4309 14.5513 48.0701 15.053 48.5718C15.5547 49.0735 16.1939 49.4152 16.8898 49.5536C17.5857 49.692 18.307 49.621 18.9625 49.3494C19.618 49.0779 20.1783 48.6181 20.5724 48.0282C20.9666 47.4382 21.177 46.7447 21.177 46.0352C21.176 45.084 20.7978 44.1721 20.1252 43.4996C19.4527 42.8271 18.5408 42.4488 17.5897 42.4478ZM17.5897 47.7822C17.2441 47.7822 16.9064 47.6798 16.6191 47.4878C16.3318 47.2958 16.1078 47.023 15.9756 46.7037C15.8434 46.3845 15.8088 46.0332 15.8762 45.6943C15.9436 45.3554 16.11 45.0441 16.3543 44.7998C16.5986 44.5555 16.9099 44.3891 17.2488 44.3217C17.5877 44.2543 17.939 44.2889 18.2582 44.4211C18.5775 44.5533 18.8503 44.7772 19.0423 45.0645C19.2343 45.3519 19.3367 45.6896 19.3367 46.0352C19.3364 46.4985 19.1523 46.9428 18.8247 47.2706C18.4972 47.5983 18.053 47.7828 17.5897 47.7834V47.7822Z" fill="#EC1C23"/>
<path d="M26.8255 42.4478C26.116 42.4478 25.4224 42.6582 24.8325 43.0524C24.2425 43.4466 23.7827 44.0068 23.5112 44.6623C23.2397 45.3178 23.1687 46.0391 23.3071 46.735C23.4455 47.4309 23.7872 48.0701 24.2889 48.5718C24.7906 49.0735 25.4298 49.4152 26.1257 49.5536C26.8215 49.692 27.5428 49.621 28.1983 49.3494C28.8538 49.0779 29.4141 48.6181 29.8083 48.0282C30.2025 47.4382 30.4129 46.7447 30.4129 46.0352C30.4119 45.084 30.0336 44.1721 29.3611 43.4996C28.6885 42.8271 27.7766 42.4488 26.8255 42.4478ZM26.8255 47.7822C26.48 47.7822 26.1422 47.6798 25.8549 47.4878C25.5676 47.2958 25.3437 47.023 25.2114 46.7037C25.0792 46.3845 25.0446 46.0332 25.112 45.6943C25.1794 45.3554 25.3458 45.0441 25.5902 44.7998C25.8345 44.5555 26.1458 44.3891 26.4847 44.3217C26.8236 44.2543 27.1748 44.2889 27.4941 44.4211C27.8133 44.5533 28.0862 44.7772 28.2781 45.0645C28.4701 45.3519 28.5726 45.6896 28.5726 46.0352C28.5722 46.4985 28.3881 46.9428 28.0606 47.2706C27.733 47.5983 27.2889 47.7828 26.8255 47.7834V47.7822Z" fill="#EC1C23"/>
<path d="M35.6282 42.4478C34.9187 42.4478 34.2252 42.6582 33.6352 43.0524C33.0453 43.4466 32.5855 44.0068 32.314 44.6623C32.0424 45.3178 31.9714 46.0391 32.1098 46.735C32.2482 47.4309 32.5899 48.0701 33.0916 48.5718C33.5933 49.0735 34.2325 49.4152 34.9284 49.5536C35.6243 49.692 36.3456 49.621 37.0011 49.3494C37.6566 49.0779 38.2168 48.6181 38.611 48.0282C39.0052 47.4382 39.2156 46.7447 39.2156 46.0352C39.2146 45.084 38.8363 44.1721 38.1638 43.4996C37.4913 42.8271 36.5794 42.4488 35.6282 42.4478ZM35.6282 47.7822C35.2827 47.7822 34.9449 47.6798 34.6576 47.4878C34.3703 47.2958 34.1464 47.023 34.0142 46.7037C33.8819 46.3845 33.8473 46.0332 33.9148 45.6943C33.9822 45.3554 34.1486 45.0441 34.3929 44.7998C34.6372 44.5555 34.9485 44.3891 35.2874 44.3217C35.6263 44.2543 35.9776 44.2889 36.2968 44.4211C36.616 44.5533 36.8889 44.7772 37.0809 45.0645C37.2728 45.3519 37.3753 45.6896 37.3753 46.0352C37.375 46.4985 37.1908 46.9428 36.8633 47.2706C36.5358 47.5983 36.0916 47.7828 35.6282 47.7834V47.7822Z" fill="#EC1C23"/>
<path d="M73.2783 42.4478C72.5688 42.4478 71.8752 42.6582 71.2852 43.0524C70.6953 43.4466 70.2355 44.0068 69.964 44.6623C69.6925 45.3178 69.6214 46.0391 69.7598 46.735C69.8983 47.4309 70.2399 48.0701 70.7416 48.5718C71.2433 49.0735 71.8825 49.4152 72.5784 49.5536C73.2743 49.692 73.9956 49.621 74.6511 49.3494C75.3066 49.0779 75.8669 48.6181 76.261 48.0282C76.6552 47.4382 76.8656 46.7447 76.8656 46.0352C76.865 45.0839 76.4868 44.1719 75.8142 43.4992C75.1416 42.8266 74.2295 42.4485 73.2783 42.4478ZM73.2783 47.7822C72.9327 47.7822 72.595 47.6798 72.3077 47.4878C72.0204 47.2958 71.7964 47.023 71.6642 46.7037C71.532 46.3845 71.4974 46.0332 71.5648 45.6943C71.6322 45.3554 71.7986 45.0441 72.0429 44.7998C72.2872 44.5555 72.5985 44.3891 72.9374 44.3217C73.2763 44.2543 73.6276 44.2889 73.9468 44.4211C74.2661 44.5533 74.5389 44.7772 74.7309 45.0645C74.9229 45.3519 75.0253 45.6896 75.0253 46.0352C75.0253 46.4986 74.8413 46.9431 74.5137 47.2709C74.1861 47.5988 73.7417 47.7831 73.2783 47.7834V47.7822Z" fill="#EC1C23"/>
<path d="M21.5623 27.7487V39.1058H19.722V28.3008H8.41524V39.1058H6.57495V27.7487C6.57527 27.4078 6.71059 27.0809 6.95131 26.8395C7.19203 26.5981 7.51856 26.4618 7.85948 26.4605H20.2741C20.6156 26.4608 20.9431 26.5967 21.1846 26.8382C21.4261 27.0797 21.562 27.4072 21.5623 27.7487Z" fill="#EC1C23"/>
<path d="M39.2156 27.7487V39.1058H37.3753V28.3008H26.0686V39.1058H24.2283V27.7487C24.2286 27.4072 24.3644 27.0797 24.6059 26.8382C24.8475 26.5967 25.1749 26.4608 25.5165 26.4605H37.9274C38.269 26.4608 38.5964 26.5967 38.838 26.8382C39.0795 27.0797 39.2153 27.4072 39.2156 27.7487Z" fill="#EC1C23"/>
</svg>
