<svg width="16" height="13" viewBox="0 0 16 13" fill="none" xmlns="http://www.w3.org/2000/svg">
<path d="M14.0352 1.36157C13.6872 0.962761 13.2572 0.643771 12.7746 0.426393C12.292 0.209014 11.7682 0.098369 11.2389 0.102016C9.70944 0.102016 8.74131 1.01543 8.19814 1.7817C8.06584 1.96943 7.94522 2.16513 7.83697 2.36768C7.72883 2.16507 7.60821 1.96936 7.47581 1.7817C6.93264 1.01543 5.96593 0.102016 4.43507 0.102016C3.90578 0.098369 3.38194 0.209014 2.89933 0.426393C2.41673 0.643771 1.98673 0.962761 1.63871 1.36157C0.955783 2.13664 0.57959 3.1745 0.57959 4.2838C0.57959 5.49176 1.05104 6.61495 2.06367 7.81894C2.96829 8.89621 4.27008 10.0044 5.77741 11.2889C6.339 11.7677 6.91988 12.2638 7.53846 12.8024L7.55688 12.8189C7.63441 12.8867 7.73394 12.9242 7.83697 12.9242C7.94001 12.9242 8.03954 12.8867 8.11706 12.8189L8.13577 12.8024C8.75407 12.2615 9.33494 11.7666 9.89654 11.2877C11.4039 10.0032 12.7057 8.89422 13.6103 7.81809C14.6229 6.61495 15.0944 5.49176 15.0944 4.2838C15.0944 3.1745 14.7182 2.13664 14.0352 1.36157ZM9.34487 10.6417C8.86066 11.0541 8.36257 11.4788 7.83697 11.9355C7.31166 11.4788 6.81329 11.0541 6.3288 10.6417C3.37907 8.12766 1.43006 6.46697 1.43006 4.2838C1.43006 3.38145 1.73057 2.54345 2.27657 1.92402C2.54527 1.61631 2.87722 1.37022 3.24974 1.20255C3.62225 1.03489 4.02657 0.949589 4.43507 0.952491C5.60108 0.952491 6.35488 1.67086 6.78182 2.27328C7.06025 2.67117 7.27986 3.10713 7.43385 3.5677C7.46168 3.65298 7.51577 3.72728 7.58838 3.77997C7.66099 3.83265 7.7484 3.86102 7.83811 3.86102C7.92782 3.86102 8.01523 3.83265 8.08784 3.77997C8.16045 3.72728 8.21454 3.65298 8.24237 3.5677C8.39636 3.10713 8.61596 2.67117 8.8944 2.27328C9.31907 1.67086 10.0729 0.952491 11.2389 0.952491C11.6474 0.949589 12.0517 1.03489 12.4242 1.20255C12.7967 1.37022 13.1287 1.61631 13.3974 1.92402C13.9431 2.54345 14.2439 3.38145 14.2439 4.2838C14.2439 6.46697 12.2952 8.12766 9.34487 10.6417Z" fill="#EC1C23"/>
</svg>
