<svg width="15" height="14" viewBox="0 0 15 14" fill="none" xmlns="http://www.w3.org/2000/svg">
<path d="M7.65446 0.0761036C3.93807 0.0761036 0.926977 3.0872 0.926977 6.80359C0.926977 10.52 3.93807 13.5311 7.65446 13.5311C11.3709 13.5311 14.3819 10.52 14.3819 6.80359C14.3819 3.0872 11.3709 0.0761036 7.65446 0.0761036ZM10.1501 8.56684L9.6076 9.24501C9.52622 9.35352 9.41771 9.4349 9.25495 9.4349C9.17357 9.4349 9.06506 9.38065 9.01081 9.32639L7.1933 7.97005C6.92203 7.78016 6.7864 7.48176 6.7864 7.12911V2.89731C6.7864 2.68029 6.97629 2.46328 7.22043 2.46328H8.08849C8.30551 2.46328 8.52252 2.68029 8.52252 2.89731V6.80359L10.0959 7.97005C10.1773 8.05143 10.2586 8.15994 10.2586 8.29557C10.2586 8.40408 10.2044 8.51259 10.1501 8.56684Z" fill="#2B2B2B"/>
</svg>
