<svg width="23" height="22" viewBox="0 0 23 22" fill="none" xmlns="http://www.w3.org/2000/svg">
<path d="M11.5088 5.36572C8.50879 5.36572 6.11816 7.80322 6.11816 10.7563C6.11816 13.7563 8.50879 16.147 11.5088 16.147C14.4619 16.147 16.8994 13.7563 16.8994 10.7563C16.8994 7.80322 14.4619 5.36572 11.5088 5.36572ZM11.5088 14.272C9.58691 14.272 7.99316 12.7251 7.99316 10.7563C7.99316 8.83447 9.54004 7.2876 11.5088 7.2876C13.4307 7.2876 14.9775 8.83447 14.9775 10.7563C14.9775 12.7251 13.4307 14.272 11.5088 14.272ZM18.3525 5.17822C18.3525 4.4751 17.79 3.9126 17.0869 3.9126C16.3838 3.9126 15.8213 4.4751 15.8213 5.17822C15.8213 5.88135 16.3838 6.44385 17.0869 6.44385C17.79 6.44385 18.3525 5.88135 18.3525 5.17822ZM21.915 6.44385C21.8213 4.75635 21.4463 3.25635 20.2275 2.0376C19.0088 0.818848 17.5088 0.443848 15.8213 0.350098C14.0869 0.256348 8.88379 0.256348 7.14941 0.350098C5.46191 0.443848 4.00879 0.818848 2.74316 2.0376C1.52441 3.25635 1.14941 4.75635 1.05566 6.44385C0.961914 8.17822 0.961914 13.3813 1.05566 15.1157C1.14941 16.8032 1.52441 18.2563 2.74316 19.522C4.00879 20.7407 5.46191 21.1157 7.14941 21.2095C8.88379 21.3032 14.0869 21.3032 15.8213 21.2095C17.5088 21.1157 19.0088 20.7407 20.2275 19.522C21.4463 18.2563 21.8213 16.8032 21.915 15.1157C22.0088 13.3813 22.0088 8.17822 21.915 6.44385ZM19.665 16.9438C19.3369 17.8813 18.5869 18.5845 17.6963 18.9595C16.29 19.522 13.0088 19.3813 11.5088 19.3813C9.96191 19.3813 6.68066 19.522 5.32129 18.9595C4.38379 18.5845 3.68066 17.8813 3.30566 16.9438C2.74316 15.5845 2.88379 12.3032 2.88379 10.7563C2.88379 9.25635 2.74316 5.9751 3.30566 4.56885C3.68066 3.67822 4.38379 2.9751 5.32129 2.6001C6.68066 2.0376 9.96191 2.17822 11.5088 2.17822C13.0088 2.17822 16.29 2.0376 17.6963 2.6001C18.5869 2.92822 19.29 3.67822 19.665 4.56885C20.2275 5.9751 20.0869 9.25635 20.0869 10.7563C20.0869 12.3032 20.2275 15.5845 19.665 16.9438Z" fill="white"/>
</svg>
