<svg width="57" height="10" viewBox="0 0 57 10" fill="none" xmlns="http://www.w3.org/2000/svg">
<path d="M2.52935 9.92486C2.4494 9.9247 2.3705 9.90771 2.29849 9.87514C2.22649 9.84258 2.16321 9.79527 2.11334 9.73672C2.06348 9.67817 2.02829 9.60987 2.01039 9.53687C1.99249 9.46387 1.99233 9.38804 2.00992 9.31497L2.65477 6.65297L0.467633 4.85747C0.389366 4.79302 0.332955 4.70851 0.305362 4.61437C0.27777 4.52024 0.280203 4.4206 0.312362 4.32774C0.344521 4.23489 0.404997 4.15288 0.486329 4.09185C0.567661 4.03082 0.66629 3.99343 0.770043 3.9843L3.66428 3.73434L4.8081 1.22981C4.84961 1.14061 4.91801 1.0647 5.00491 1.01139C5.0918 0.958084 5.19342 0.929688 5.29729 0.929688C5.40116 0.929688 5.50278 0.958084 5.58967 1.01139C5.67657 1.0647 5.74497 1.14061 5.78648 1.22981L6.93208 3.73851L9.82632 3.98846C9.93007 3.9976 10.0287 4.03499 10.11 4.09602C10.1914 4.15705 10.2518 4.23905 10.284 4.33191C10.3162 4.42476 10.3186 4.5244 10.291 4.61854C10.2634 4.71267 10.207 4.79718 10.1287 4.86163L7.94159 6.65463L8.58644 9.31581C8.60908 9.41098 8.60152 9.51027 8.56468 9.60147C8.52785 9.69266 8.46335 9.77177 8.37912 9.82906C8.2949 9.88636 8.19463 9.91932 8.09065 9.92391C7.98668 9.9285 7.88355 9.9045 7.79395 9.85487L5.29818 8.45847L2.80241 9.85571C2.71981 9.90162 2.6254 9.92553 2.52935 9.92486Z" fill="#FDD15A"/>
<path d="M14.0224 9.92413C13.9424 9.92397 13.8635 9.90698 13.7915 9.87441C13.7195 9.84185 13.6563 9.79454 13.6064 9.73599C13.5565 9.67744 13.5213 9.60914 13.5034 9.53614C13.4855 9.46314 13.4854 9.38731 13.503 9.31424L14.1478 6.65224L11.9607 4.85674C11.8824 4.79228 11.826 4.70778 11.7984 4.61364C11.7708 4.51951 11.7732 4.41986 11.8054 4.32701C11.8376 4.23415 11.898 4.15215 11.9794 4.09112C12.0607 4.03009 12.1593 3.9927 12.2631 3.98356L15.1573 3.73361L16.3011 1.22907C16.3427 1.13988 16.4111 1.06397 16.4979 1.01066C16.5848 0.957351 16.6865 0.928955 16.7903 0.928955C16.8942 0.928955 16.9958 0.957351 17.0827 1.01066C17.1696 1.06397 17.238 1.13988 17.2795 1.22907L18.4296 3.73778L21.3229 3.98773C21.4267 3.99672 21.5255 4.03401 21.6069 4.09499C21.6884 4.15596 21.749 4.23795 21.7813 4.33084C21.8135 4.42372 21.816 4.52342 21.7885 4.61762C21.7609 4.71182 21.7045 4.7964 21.6262 4.8609L19.4346 6.6539L20.0795 9.31508C20.1021 9.41025 20.0946 9.50954 20.0577 9.60073C20.0209 9.69193 19.9564 9.77104 19.8722 9.82833C19.7879 9.88562 19.6877 9.91859 19.5837 9.92318C19.4797 9.92776 19.3766 9.90377 19.287 9.85414L16.7912 8.45774L14.2955 9.85498C14.2129 9.90089 14.1184 9.9248 14.0224 9.92413Z" fill="#FDD15A"/>
<path d="M25.5157 9.92413C25.4358 9.92397 25.3569 9.90697 25.2849 9.87441C25.2129 9.84185 25.1496 9.79454 25.0997 9.73599C25.0499 9.67744 25.0147 9.60914 24.9968 9.53614C24.9789 9.46314 24.9787 9.38731 24.9963 9.31424L25.642 6.65223L23.454 4.85507C23.3757 4.79062 23.3193 4.70611 23.2917 4.61197C23.2642 4.51784 23.2666 4.4182 23.2987 4.32534C23.3309 4.23249 23.3914 4.15049 23.4727 4.08945C23.554 4.02842 23.6527 3.99103 23.7564 3.9819L26.6507 3.73194L27.7945 1.22907C27.836 1.13988 27.9044 1.06397 27.9913 1.01066C28.0782 0.957351 28.1798 0.928955 28.2837 0.928955C28.3875 0.928955 28.4892 0.957351 28.5761 1.01066C28.663 1.06397 28.7313 1.13988 28.7729 1.22907L29.9176 3.73777L32.8109 3.98773C32.9147 3.99672 33.0135 4.03401 33.0949 4.09498C33.1764 4.15596 33.237 4.23795 33.2693 4.33083C33.3015 4.42372 33.304 4.52342 33.2765 4.61762C33.2489 4.71182 33.1925 4.7964 33.1142 4.8609L30.9262 6.65807L31.5719 9.31924C31.5947 9.41453 31.5872 9.51398 31.5504 9.60532C31.5135 9.69666 31.4489 9.77589 31.3645 9.83322C31.2801 9.89056 31.1797 9.92349 31.0755 9.92794C30.9714 9.9324 30.8682 9.90819 30.7785 9.85831L28.2846 8.45773L25.7888 9.85497C25.7062 9.90088 25.6118 9.9248 25.5157 9.92413Z" fill="#FDD15A"/>
<path d="M37.0091 9.92413C36.9291 9.92397 36.8502 9.90698 36.7782 9.87441C36.7062 9.84185 36.6429 9.79454 36.5931 9.73599C36.5432 9.67744 36.508 9.60914 36.4901 9.53614C36.4722 9.46314 36.472 9.38731 36.4896 9.31424L37.1354 6.65224L34.9473 4.85507C34.8691 4.79062 34.8127 4.70611 34.7851 4.61197C34.7575 4.51784 34.7599 4.4182 34.7921 4.32534C34.8242 4.23249 34.8847 4.15049 34.966 4.08945C35.0474 4.02842 35.146 3.99103 35.2497 3.9819L38.144 3.73194L39.2878 1.22907C39.3293 1.13988 39.3977 1.06397 39.4846 1.01066C39.5715 0.957351 39.6731 0.928955 39.777 0.928955C39.8809 0.928955 39.9825 0.957351 40.0694 1.01066C40.1563 1.06397 40.2247 1.13988 40.2662 1.22907L41.4127 3.73778L44.306 3.98773C44.4099 3.99672 44.5086 4.03401 44.59 4.09498C44.6715 4.15596 44.7321 4.23795 44.7644 4.33083C44.7966 4.42372 44.7991 4.52342 44.7716 4.61762C44.744 4.71182 44.6876 4.7964 44.6093 4.8609L42.4213 6.65807L43.067 9.31507C43.0898 9.41036 43.0823 9.50981 43.0455 9.60115C43.0086 9.6925 42.944 9.77172 42.8596 9.82906C42.7752 9.88639 42.6748 9.91932 42.5707 9.92378C42.4665 9.92824 42.3633 9.90403 42.2737 9.85414L39.7761 8.45773L37.2857 9.85497C37.2021 9.9016 37.1063 9.92554 37.0091 9.92413Z" fill="#FDD15A"/>
<path d="M48.5024 9.92413C48.3905 9.9242 48.2815 9.89094 48.1911 9.82915C48.1066 9.77172 48.0419 9.69233 48.0051 9.60081C47.9682 9.50928 47.9609 9.40965 47.9839 9.31424L48.6287 6.65224L46.4407 4.85507C46.3624 4.79062 46.306 4.70611 46.2784 4.61197C46.2508 4.51784 46.2533 4.4182 46.2854 4.32534C46.3176 4.23249 46.3781 4.15049 46.4594 4.08945C46.5407 4.02842 46.6394 3.99103 46.7431 3.9819L49.6373 3.73194L50.7821 1.22907C50.8236 1.13988 50.892 1.06397 50.9789 1.01066C51.0658 0.957351 51.1674 0.928955 51.2712 0.928955C51.3751 0.928955 51.4767 0.957351 51.5636 1.01066C51.6505 1.06397 51.7189 1.13988 51.7604 1.22907L52.9051 3.73778L55.7985 3.98773C55.9023 3.99672 56.0011 4.03401 56.0825 4.09498C56.164 4.15596 56.2246 4.23795 56.2568 4.33083C56.2891 4.42372 56.2916 4.52342 56.264 4.61762C56.2365 4.71182 56.1801 4.7964 56.1018 4.8609L53.9182 6.6539L54.5631 9.31507C54.5859 9.41036 54.5784 9.50981 54.5415 9.60115C54.5046 9.6925 54.44 9.77172 54.3556 9.82906C54.2713 9.88639 54.1708 9.91932 54.0667 9.92378C53.9625 9.92824 53.8593 9.90403 53.7697 9.85414L51.2712 8.45773L48.7808 9.85497C48.6965 9.90149 48.6002 9.92541 48.5024 9.92413ZM51.2712 7.85368C51.3677 7.8539 51.4623 7.87836 51.5452 7.9245L53.9004 9.24592L53.2956 6.73389C53.2744 6.64604 53.2789 6.55446 53.3086 6.46881C53.3384 6.38316 53.3923 6.30663 53.4646 6.24731L55.5299 4.55096L52.7975 4.3185C52.7011 4.31061 52.6087 4.2783 52.5304 4.22503C52.4521 4.17175 52.3907 4.09951 52.3528 4.01606L51.2712 1.64816L50.1915 4.01606C50.154 4.09968 50.0926 4.17204 50.0142 4.22523C49.9358 4.27842 49.8433 4.3104 49.7467 4.31767L47.0171 4.55012L49.0823 6.24648C49.1548 6.30587 49.2088 6.38254 49.2386 6.46835C49.2683 6.55416 49.2727 6.64592 49.2513 6.73389L48.643 9.24509L50.9982 7.9245C51.081 7.87905 51.1753 7.85517 51.2712 7.85535V7.85368Z" fill="#FDD15A"/>
</svg>
