<svg width="14" height="25" viewBox="0 0 14 25" fill="none" xmlns="http://www.w3.org/2000/svg">
<path d="M13.1964 23.5963C13.7822 23.0105 13.7822 22.0608 13.1964 21.475L2.7081 10.9867C2.12231 10.4009 1.17256 10.4009 0.586776 10.9867C0.00098896 11.5725 0.00098896 12.5222 0.586776 13.108L11.0751 23.5963C11.6609 24.1821 12.6106 24.1821 13.1964 23.5963Z" fill="#323232"/>
<path d="M13.1964 0.454446C12.6106 -0.13134 11.6609 -0.13134 11.0751 0.454446L0.586759 10.9428C0.000971794 11.5285 0.000971794 12.4783 0.586759 13.0641C1.17255 13.6499 2.12229 13.6499 2.70808 13.0641L13.1964 2.57577C13.7822 1.98998 13.7822 1.04023 13.1964 0.454446Z" fill="#323232"/>
</svg>
