<svg width="36" height="25" viewBox="0 0 36 25" fill="none" xmlns="http://www.w3.org/2000/svg">
<path fill-rule="evenodd" clip-rule="evenodd" d="M0.95752 2.56421C0.95752 1.1835 2.07681 0.064209 3.45752 0.064209H33.4575C34.8382 0.064209 35.9575 1.1835 35.9575 2.56421C35.9575 3.94492 34.8382 5.06421 33.4575 5.06421H3.45752C2.07681 5.06421 0.95752 3.94492 0.95752 2.56421ZM0.95752 12.4882C0.95752 11.1075 2.07681 9.98818 3.45752 9.98818H33.4575C34.8382 9.98818 35.9575 11.1075 35.9575 12.4882C35.9575 13.8689 34.8382 14.9882 33.4575 14.9882H3.45752C2.07681 14.9882 0.95752 13.8689 0.95752 12.4882ZM3.45752 19.9122C2.07681 19.9122 0.95752 21.0315 0.95752 22.4122C0.95752 23.7929 2.07681 24.9122 3.45752 24.9122H23.4575C24.8382 24.9122 25.9575 23.7929 25.9575 22.4122C25.9575 21.0315 24.8382 19.9122 23.4575 19.9122H3.45752Z" fill="white"/>
</svg>
