<svg width="19" height="18" viewBox="0 0 19 18" fill="none" xmlns="http://www.w3.org/2000/svg">
<path d="M9.37842 0.191162C4.56201 0.191162 0.659668 4.09351 0.659668 8.90991C0.659668 13.7263 4.56201 17.6287 9.37842 17.6287C14.1948 17.6287 18.0972 13.7263 18.0972 8.90991C18.0972 4.09351 14.1948 0.191162 9.37842 0.191162ZM13.6323 11.2302C13.8081 11.3708 13.8081 11.6521 13.6323 11.8279L12.2612 13.199C12.0854 13.3748 11.8042 13.3748 11.6636 13.199L9.37842 10.8787L7.05811 13.199C6.91748 13.3748 6.63623 13.3748 6.46045 13.199L5.08936 11.7927C4.91357 11.6521 4.91357 11.3708 5.08936 11.1951L7.40967 8.90991L5.08936 6.62476C4.91357 6.48413 4.91357 6.20288 5.08936 6.0271L6.49561 4.65601C6.63623 4.48022 6.91748 4.48022 7.09326 4.65601L9.37842 6.94116L11.6636 4.65601C11.8042 4.48022 12.0854 4.48022 12.2612 4.65601L13.6323 6.0271C13.8081 6.20288 13.8081 6.48413 13.6323 6.62476L11.3472 8.90991L13.6323 11.2302Z" fill="#2B2B2B"/>
</svg>
