<svg width="17" height="26" viewBox="0 0 17 26" fill="none" xmlns="http://www.w3.org/2000/svg">
<path d="M13.9648 16.4126C15.4648 15.4282 16.168 14.8657 15.5586 13.647C15.2305 12.9907 14.2461 12.4282 13.0273 13.4126C13.0273 13.4126 11.293 14.772 8.57422 14.772C5.80859 14.772 4.12109 13.4126 4.12109 13.4126C2.85547 12.3813 1.91797 12.9907 1.54297 13.647C0.980469 14.8657 1.63672 15.4282 3.13672 16.4126C4.44922 17.2563 6.23047 17.5845 7.40234 17.6782L6.41797 18.6626C5.05859 20.022 3.79297 21.3345 2.85547 22.2251C1.54297 23.5376 3.65234 25.647 5.01172 24.3813L8.57422 20.772C9.93359 22.1782 11.2461 23.4907 12.1367 24.3813C13.4492 25.6938 15.6055 23.5845 14.293 22.2251L10.7305 18.6626L9.74609 17.6782C10.918 17.5845 12.6523 17.2563 13.9648 16.4126ZM2.48047 6.8501C2.48047 10.2251 5.19922 12.9438 8.57422 12.9438C11.9023 12.9438 14.6211 10.2251 14.6211 6.8501C14.6211 3.4751 11.9023 0.756348 8.57422 0.756348C5.19922 0.756348 2.48047 3.4751 2.48047 6.8501ZM5.57422 6.8501C5.57422 5.20947 6.88672 3.8501 8.57422 3.8501C10.2148 3.8501 11.5273 5.20947 11.5273 6.8501C11.5273 8.49072 10.2148 9.8501 8.57422 9.8501C6.88672 9.8501 5.57422 8.49072 5.57422 6.8501Z" fill="white"/>
</svg>
