<svg width="30" height="30" viewBox="0 0 30 30" fill="none" xmlns="http://www.w3.org/2000/svg">
<path d="M29.5398 15.1758C29.5398 7.20703 22.9773 0.644531 15.0085 0.644531C6.9812 0.644531 0.477295 7.20703 0.477295 15.1758C0.477295 23.2031 6.9812 29.707 15.0085 29.707C22.9773 29.707 29.5398 23.2031 29.5398 15.1758ZM15.3601 5.44922C18.7 5.44922 22.2156 8.02734 22.2156 11.4258C22.2156 15.9961 17.3523 16.0547 17.3523 17.6953V17.7539C17.3523 18.1641 17.0007 18.457 16.6492 18.457H13.3679C12.9578 18.457 12.6648 18.1641 12.6648 17.7539V17.5195C12.6648 15.1172 14.4812 14.1797 15.8289 13.418C17.0007 12.7734 17.7625 12.3047 17.7625 11.4258C17.7625 10.2539 16.239 9.49219 15.0671 9.49219C13.4851 9.49219 12.782 10.2539 11.7273 11.6016C11.4929 11.8945 11.0242 11.9531 10.7312 11.7188L8.68042 10.1953C8.38745 9.96094 8.32886 9.55078 8.56323 9.19922C10.1453 6.79688 12.196 5.44922 15.3601 5.44922ZM15.0085 19.9805C16.4734 19.9805 17.7039 21.2109 17.7039 22.6758C17.7039 24.1992 16.4734 25.3711 15.0085 25.3711C13.4851 25.3711 12.3132 24.1992 12.3132 22.6758C12.3132 21.2109 13.4851 19.9805 15.0085 19.9805Z" fill="white"/>
</svg>
