<svg width="35" height="31" viewBox="0 0 35 31" fill="none" xmlns="http://www.w3.org/2000/svg">
<path d="M32.6901 10.0254H29.2542L24.473 0.994148C24.349 0.760436 24.1373 0.585551 23.8843 0.507965C23.6314 0.43038 23.358 0.456448 23.1243 0.580437C22.8906 0.704426 22.7157 0.916178 22.6381 1.16911C22.5605 1.42204 22.5866 1.69544 22.7106 1.92915L26.9944 10.0254H8.19417L12.484 1.92915C12.608 1.69482 12.6338 1.42083 12.5558 1.16747C12.5172 1.04201 12.4542 0.925394 12.3705 0.824272C12.2868 0.723151 12.184 0.639506 12.068 0.578113C11.8336 0.454124 11.5597 0.4283 11.3063 0.506322C11.0529 0.584344 10.8409 0.75982 10.7169 0.994148L5.93569 10.0254H2.50448C1.99853 10.0261 1.51354 10.2275 1.15597 10.5855C0.798394 10.9434 0.597465 11.4286 0.59729 11.9346L0.59729 14.1525C0.597944 14.6354 0.78147 15.1001 1.11093 15.4531C1.44039 15.8061 1.89133 16.0212 2.37299 16.0551L5.72319 29.9824C5.77523 30.2006 5.89941 30.3949 6.07561 30.5337C6.25181 30.6726 6.46972 30.7479 6.69405 30.7474H28.4939C28.7181 30.7479 28.936 30.6727 29.1122 30.534C29.2883 30.3953 29.4126 30.2012 29.4648 29.9831L32.8223 16.0551C33.3038 16.021 33.7546 15.8058 34.0839 15.4529C34.4132 15.0999 34.5966 14.6353 34.5973 14.1525V11.9346C34.5971 11.4286 34.3962 10.9434 34.0386 10.5855C33.681 10.2275 33.196 10.0261 32.6901 10.0254ZM2.59413 12.0242H32.6005V14.0629H2.59413V12.0242ZM29.4787 21.4034H25.1065L25.7739 16.0597H30.767L29.4787 21.4034ZM18.5974 28.7519V23.4009H22.8474L22.1793 28.7519H18.5974ZM13.0192 28.7519L12.3512 23.4009H16.6012V28.7519H13.0192ZM4.42827 16.0597H9.42202L10.0894 21.4034H5.71389L4.42827 16.0597ZM11.4341 16.0597H16.6012V21.4034H12.1022L11.4341 16.0597ZM18.5974 21.4034V16.0597H23.7611L23.0971 21.4034H18.5974ZM6.19401 23.4009H10.3391L11.0078 28.7519H7.48096L6.19401 23.4009ZM27.7096 28.7506H24.1901L24.8581 23.4009H28.9979L27.7096 28.7506Z" fill="white"/>
</svg>
