<svg width="18" height="19" viewBox="0 0 18 19" fill="none" xmlns="http://www.w3.org/2000/svg">
<path fill-rule="evenodd" clip-rule="evenodd" d="M13.2621 7.54413C13.2621 10.8578 10.5758 13.5441 7.26208 13.5441C3.94838 13.5441 1.26208 10.8578 1.26208 7.54413C1.26208 4.23042 3.94838 1.54413 7.26208 1.54413C10.5758 1.54413 13.2621 4.23042 13.2621 7.54413ZM11.5922 13.0445C10.4008 13.9837 8.8969 14.5441 7.26208 14.5441C3.39609 14.5441 0.262085 11.4101 0.262085 7.54413C0.262085 3.67814 3.39609 0.544128 7.26208 0.544128C11.1281 0.544128 14.2621 3.67814 14.2621 7.54413C14.2621 9.23939 13.6595 10.7939 12.6567 12.0051C12.6793 12.023 12.7011 12.0424 12.722 12.0632L17.7121 17.0533C18.005 17.3462 18.005 17.8211 17.7121 18.114C17.4192 18.4069 16.9443 18.4069 16.6514 18.114L11.6613 13.1239C11.6361 13.0987 11.6131 13.0722 11.5922 13.0445Z" fill="#440005"/>
</svg>
