<svg width="22" height="25" viewBox="0 0 22 25" fill="none" xmlns="http://www.w3.org/2000/svg">
<path d="M21.2761 10.6001V6.52197C21.2292 6.52197 21.2292 6.52197 21.2292 6.52197C20.1042 6.52197 19.0261 6.19385 18.1355 5.58447C16.823 4.74072 15.8855 3.38135 15.6042 1.83447C15.5105 1.50635 15.5105 1.17822 15.5105 0.850098C15.5105 0.803223 15.5105 0.803223 15.5105 0.756348H11.3855V17.1626C11.3855 19.0845 9.79175 20.6782 7.86987 20.6782C5.948 20.6782 4.35425 19.0845 4.35425 17.1626C4.35425 15.2407 5.948 13.647 7.86987 13.647C8.24487 13.647 8.573 13.6938 8.948 13.8345V9.61572C8.573 9.56885 8.24487 9.52197 7.86987 9.52197C3.65112 9.52197 0.276123 12.9438 0.276123 17.1626C0.276123 21.3813 3.65112 24.7563 7.86987 24.7563C12.0886 24.7563 15.5105 21.3813 15.5105 17.1626V8.77197C17.1042 9.94385 19.073 10.6001 21.2292 10.6001H21.2761Z" fill="white"/>
</svg>
