<svg width="27" height="32" viewBox="0 0 27 32" fill="none" xmlns="http://www.w3.org/2000/svg">
<path d="M13.5979 16.8949H13.8004C15.655 16.8628 17.1552 16.2016 18.2629 14.9369C20.6998 12.1508 20.2947 7.37468 20.2504 6.9189C20.0922 3.49728 18.4971 1.86029 17.1805 1.09636C16.1994 0.525025 15.0537 0.216886 13.7751 0.191208H13.6675C12.9649 0.191208 11.585 0.30676 10.2621 1.07069C8.9392 1.83461 7.31246 3.4716 7.15422 6.9189C7.10991 7.37468 6.70481 12.1508 9.14175 14.9369C10.2431 16.2016 11.7433 16.8628 13.5979 16.8949ZM8.84426 7.07938C8.84426 7.06013 8.85059 7.04087 8.85059 7.02803C9.05947 2.42521 12.2813 1.93091 13.6612 1.93091H13.7371C15.4462 1.96942 18.3515 2.67557 18.5477 7.02803C18.5464 7.0454 18.5485 7.06288 18.5541 7.07938C18.5604 7.12432 19.0035 11.4896 16.9906 13.7878C16.1931 14.6994 15.1297 15.1488 13.7308 15.1616H13.6675C12.275 15.1488 11.2052 14.6994 10.414 13.7878C8.4075 11.5025 8.83793 7.1179 8.84426 7.07938Z" fill="white"/>
<path d="M26.7067 24.8166V24.7973C26.7067 24.746 26.7003 24.6946 26.7003 24.6368C26.6624 23.3658 26.5801 20.3935 23.833 19.4434L23.7697 19.4242C20.915 18.6859 17.0519 15.2284 17.0266 15.2091C16.9354 15.1363 16.8304 15.0832 16.7183 15.0529C16.6061 15.0226 16.489 15.0158 16.3741 15.033C16.2593 15.0501 16.1491 15.0908 16.0503 15.1525C15.9514 15.2143 15.866 15.2958 15.7993 15.3922C15.7326 15.4885 15.6859 15.5976 15.6621 15.7128C15.6383 15.8281 15.6379 15.947 15.661 16.0624C15.684 16.1778 15.73 16.2872 15.7961 16.384C15.8622 16.4808 15.9471 16.5628 16.0455 16.6253C16.1531 16.7023 20.1598 20.269 23.3139 21.0907C24.7888 21.6235 24.9533 23.222 24.9976 24.6856C24.9965 24.7392 24.9986 24.7928 25.004 24.8461C25.0103 25.4239 24.9723 26.3162 24.871 26.8298C23.8456 27.4204 19.8263 29.4618 13.7117 29.4618C7.62253 29.4618 3.57783 27.4139 2.54609 26.8233C2.44481 26.3098 2.4005 25.4175 2.41316 24.8397C2.41316 24.7884 2.41949 24.737 2.41949 24.6792C2.4638 23.2156 2.62837 21.6171 4.1032 21.0843C7.2554 20.2626 11.2172 16.873 11.3248 16.8024C11.5049 16.6683 11.6261 16.468 11.6623 16.2444C11.6986 16.0208 11.647 15.7917 11.5187 15.6062C11.3904 15.4207 11.1956 15.2935 10.9759 15.2519C10.7563 15.2103 10.5293 15.2576 10.3437 15.3837C10.3184 15.403 6.51483 18.6769 3.64746 19.4152C3.62214 19.4216 3.60315 19.428 3.58416 19.4344C0.835159 20.3935 0.754771 23.3658 0.716793 24.6304C0.717974 24.684 0.71586 24.7376 0.710463 24.7909V24.8102C0.704133 25.144 0.697804 26.858 1.03328 27.7182C1.09662 27.8858 1.21219 28.0278 1.36243 28.1227C1.55232 28.2511 6.10339 31.1912 13.7181 31.1912C21.3327 31.1912 25.8838 28.2446 26.0737 28.1227C26.2223 28.0259 26.3374 27.8845 26.4028 27.7182C26.7193 26.8644 26.713 25.1504 26.7067 24.8166Z" fill="white"/>
</svg>
