<svg width="16" height="11" viewBox="0 0 16 11" fill="none" xmlns="http://www.w3.org/2000/svg">
<path d="M15.6116 4.8889C14.1467 2.01344 11.217 0.0603008 7.90753 0.0603008C4.57092 0.0603008 1.64121 2.01344 0.176352 4.8889C0.122098 4.99741 0.0949707 5.13304 0.0949707 5.26868C0.0949707 5.43144 0.122098 5.56707 0.176352 5.67558C1.64121 8.55104 4.57092 10.4771 7.90753 10.4771C11.217 10.4771 14.1467 8.55104 15.6116 5.67558C15.6658 5.56707 15.693 5.43144 15.693 5.2958C15.693 5.13304 15.6658 4.99741 15.6116 4.8889ZM7.90753 9.17496C5.73738 9.17496 4.00125 7.43883 4.00125 5.26868C4.00125 3.12565 5.73738 1.36239 7.90753 1.36239C10.0506 1.36239 11.8138 3.12565 11.8138 5.26868V5.2958C11.8138 7.43883 10.0506 9.20208 7.90753 9.20208V9.17496ZM7.90753 2.66449C7.66339 2.69162 7.41925 2.71874 7.20223 2.773C7.36499 2.99001 7.44637 3.26128 7.44637 3.55968C7.44637 4.26498 6.87671 4.83464 6.17141 4.83464C5.87301 4.83464 5.60174 4.75326 5.38473 4.5905C5.33047 4.80752 5.30335 5.05166 5.30335 5.26868C5.30335 6.7064 6.4698 7.87286 7.90753 7.87286C9.34526 7.87286 10.5117 6.7064 10.5117 5.26868C10.5117 3.83095 9.34526 2.69162 7.90753 2.69162V2.66449Z" fill="#2B2B2B"/>
</svg>
