<svg width="12" height="15" viewBox="0 0 12 15" fill="none" xmlns="http://www.w3.org/2000/svg">
<path d="M5.76433 1.01919C5.68295 0.449527 4.54361 0.449527 4.46223 1.04632V4.87122C4.43511 4.9526 4.05533 4.9526 4.0282 4.87122C4.00108 4.19305 3.83831 1.10057 3.81119 1.01919C3.72981 0.449527 2.6176 0.449527 2.53622 1.01919C2.50909 1.10057 2.34633 4.19305 2.3192 4.87122C2.29208 4.9526 1.9123 4.9526 1.88517 4.87122V1.04632C1.80379 0.449527 0.66446 0.449527 0.583079 1.01919C0.555952 1.1277 0.149048 3.56913 0.149048 4.49144C0.149048 5.92917 0.881476 6.93287 1.99368 7.33977L1.66816 13.796C1.64103 14.1758 1.93943 14.4742 2.3192 14.4742H4.05533C4.40798 14.4742 4.70638 14.1758 4.70638 13.796L4.35373 7.33977C5.46593 6.93287 6.22549 5.92917 6.22549 4.49144C6.22549 3.56913 5.79145 1.1277 5.76433 1.01919ZM9.01956 8.75038L8.61266 13.7689C8.5584 14.1486 8.88393 14.4742 9.2637 14.4742H10.7828C11.1355 14.4742 11.4339 14.2029 11.4339 13.8231V1.23621C11.4339 0.883559 11.1355 0.585162 10.7828 0.585162C8.53128 0.585162 4.76063 5.44089 9.01956 8.75038Z" fill="#2B2B2B"/>
</svg>
