<svg width="27" height="16" viewBox="0 0 27 16" fill="none" xmlns="http://www.w3.org/2000/svg">
<path d="M25.4709 1.2876C25.6116 0.725098 25.4709 0.256348 24.6272 0.256348H21.8616C21.1584 0.256348 20.8303 0.631348 20.6428 1.05322C20.6428 1.05322 19.2366 4.4751 17.2678 6.7251C16.6116 7.33447 16.3303 7.56885 15.9553 7.56885C15.8147 7.56885 15.5334 7.33447 15.5334 6.77197V1.2876C15.5334 0.584473 15.3459 0.256348 14.7366 0.256348H10.4241C9.95532 0.256348 9.72095 0.584473 9.72095 0.912598C9.72095 1.56885 10.7053 1.70947 10.7991 3.58447V7.6626C10.7991 8.55322 10.6584 8.74072 10.2834 8.74072C9.34595 8.74072 7.09595 5.27197 5.73657 1.33447C5.45532 0.584473 5.17407 0.256348 4.47095 0.256348H1.70532C0.955322 0.256348 0.767822 0.631348 0.767822 1.05322C0.767822 1.80322 1.70532 5.4126 5.1272 10.2407C7.42407 13.522 10.6584 15.2563 13.5647 15.2563C15.2991 15.2563 15.5334 14.8813 15.5334 14.2251C15.5334 11.0845 15.3928 10.7563 16.2366 10.7563C16.6584 10.7563 17.3616 10.9907 19.0022 12.5845C20.8772 14.4595 21.2053 15.2563 22.2366 15.2563H25.0022C25.7991 15.2563 26.1741 14.8813 25.9397 14.0845C25.4241 12.4907 21.9084 9.11572 21.7209 8.88135C21.2991 8.36572 21.4397 8.13135 21.7209 7.6626C21.7209 7.6626 25.0959 2.88135 25.4709 1.2876Z" fill="white"/>
</svg>
