<svg width="72" height="46" viewBox="0 0 72 46" fill="none" xmlns="http://www.w3.org/2000/svg">
<path d="M66.2733 19.6016L64.4347 12.2526C64.6837 12.1998 64.907 12.0629 65.0671 11.865C65.2271 11.667 65.3143 11.4201 65.3138 11.1655V9.97578C65.3127 8.7379 64.8205 7.55103 63.9452 6.67572C63.0698 5.8004 61.883 5.30817 60.6451 5.30707H52.2714V2.86109C52.271 2.25184 52.0288 1.66764 51.598 1.23684C51.1672 0.806031 50.583 0.563844 49.9737 0.563477L7.28835 0.563477C6.67921 0.56421 6.09523 0.806515 5.66451 1.23724C5.23378 1.66797 4.99147 2.25195 4.99074 2.86109V23.0182C4.99074 23.3124 5.10761 23.5946 5.31564 23.8026C5.52368 24.0106 5.80583 24.1275 6.10003 24.1275C6.39423 24.1275 6.67638 24.0106 6.88441 23.8026C7.09245 23.5946 7.20932 23.3124 7.20932 23.0182V2.86109C7.20931 2.84147 7.21701 2.82263 7.23075 2.80863C7.2445 2.79462 7.26319 2.78658 7.28281 2.78621H49.9737C49.9836 2.78621 49.9933 2.78815 50.0024 2.79191C50.0115 2.79567 50.0197 2.80119 50.0267 2.80814C50.0336 2.8151 50.0392 2.82335 50.0429 2.83243C50.0467 2.84152 50.0486 2.85126 50.0486 2.86109V23.0182C50.0486 23.3124 50.1655 23.5946 50.3735 23.8026C50.5816 24.0106 50.8637 24.1275 51.1579 24.1275C51.4521 24.1275 51.7343 24.0106 51.9423 23.8026C52.1503 23.5946 52.2672 23.3124 52.2672 23.0182V21.7578H65.3859C66.1543 21.7582 66.9028 22.002 67.524 22.4541C68.1453 22.9062 68.6074 23.5435 68.8441 24.2745H65.3887C65.0945 24.2745 64.8123 24.3914 64.6043 24.5994C64.3963 24.8074 64.2794 25.0896 64.2794 25.3838V27.7549C64.2805 28.6783 64.6478 29.5637 65.3008 30.2166C65.9538 30.8696 66.8391 31.237 67.7626 31.2381H69.0244V36.1286H66.1125C65.6357 34.7425 64.7381 33.5399 63.545 32.6885C62.3518 31.8371 60.9226 31.3795 59.4568 31.3795C57.991 31.3795 56.5618 31.8371 55.3686 32.6885C54.1754 33.5399 53.2778 34.7425 52.801 36.1286H52.2658V27.7604C52.2658 27.4662 52.1489 27.1841 51.9409 26.976C51.7329 26.768 51.4507 26.6511 51.1565 26.6511C50.8623 26.6511 50.5802 26.768 50.3721 26.976C50.1641 27.1841 50.0472 27.4662 50.0472 27.7604V36.1342H26.9851C26.5084 34.7481 25.6108 33.5454 24.4176 32.694C23.2244 31.8426 21.7952 31.385 20.3294 31.385C18.8636 31.385 17.4344 31.8426 16.2412 32.694C15.0481 33.5454 14.1504 34.7481 13.6737 36.1342H7.28835C7.26886 36.1342 7.25017 36.1264 7.23639 36.1126C7.22261 36.0989 7.21486 36.0802 7.21486 36.0607V33.6147H12.0347C12.3289 33.6147 12.6111 33.4978 12.8191 33.2898C13.0271 33.0818 13.144 32.7996 13.144 32.5054C13.144 32.2112 13.0271 31.9291 12.8191 31.721C12.6111 31.513 12.3289 31.3961 12.0347 31.3961H1.35782C1.06362 31.3961 0.78147 31.513 0.573438 31.721C0.365406 31.9291 0.248535 32.2112 0.248535 32.5054C0.248535 32.7996 0.365406 33.0818 0.573438 33.2898C0.78147 33.4978 1.06362 33.6147 1.35782 33.6147H4.99213V36.0607C4.99286 36.6696 5.23497 37.2534 5.6654 37.684C6.09583 38.1147 6.67945 38.3572 7.28835 38.3583H13.2938C13.2938 38.3819 13.2938 38.4068 13.2938 38.4318C13.3197 40.2819 14.0729 42.0475 15.3904 43.3467C16.708 44.6458 18.4839 45.3742 20.3343 45.3742C22.1846 45.3742 23.9606 44.6458 25.2781 43.3467C26.5956 42.0475 27.3488 40.2819 27.3748 38.4318C27.3748 38.4068 27.3748 38.3819 27.3748 38.3583H52.4211C52.4211 38.3819 52.4211 38.4068 52.4211 38.4318C52.4211 40.2989 53.1628 42.0895 54.483 43.4097C55.8033 44.7299 57.5939 45.4716 59.4609 45.4716C61.328 45.4716 63.1186 44.7299 64.4388 43.4097C65.7591 42.0895 66.5007 40.2989 66.5007 38.4318C66.5007 38.4068 66.5007 38.3819 66.5007 38.3583H70.1337C70.4279 38.3583 70.71 38.2414 70.9181 38.0334C71.1261 37.8254 71.243 37.5432 71.243 37.249V25.3838C71.2395 23.9859 70.737 22.6352 69.8258 21.5751C68.9146 20.515 67.6548 19.8151 66.2733 19.6016ZM52.2686 7.5298H60.6423C61.2908 7.53054 61.9125 7.78847 62.3711 8.24702C62.8296 8.70557 63.0876 9.32729 63.0883 9.97578V10.0493H52.2728L52.2686 7.5298ZM52.2686 19.5351V12.272H62.1468L63.9619 19.5351H52.2686ZM20.3294 43.2461C19.3766 43.2464 18.4452 42.9641 17.6528 42.4349C16.8605 41.9058 16.2428 41.1536 15.878 40.2734C15.5132 39.3932 15.4176 38.4246 15.6033 37.4901C15.7891 36.5556 16.2477 35.6971 16.9214 35.0233C17.595 34.3495 18.4533 33.8906 19.3878 33.7046C20.3222 33.5186 21.2908 33.6139 22.1711 33.9785C23.0514 34.343 23.8038 34.9604 24.3332 35.7526C24.8626 36.5448 25.1451 37.4762 25.1451 38.429C25.1447 39.706 24.6378 40.9307 23.7355 41.8343C22.8331 42.7379 21.6092 43.2467 20.3322 43.2489L20.3294 43.2461ZM59.4568 43.2461C58.504 43.2461 57.5727 42.9636 56.7805 42.4343C55.9884 41.905 55.371 41.1526 55.0064 40.2724C54.6418 39.3922 54.5464 38.4237 54.7323 37.4892C54.9181 36.5548 55.3769 35.6965 56.0506 35.0228C56.7243 34.3491 57.5826 33.8904 58.517 33.7045C59.4514 33.5186 60.42 33.614 61.3002 33.9786C62.1804 34.3432 62.9327 34.9606 63.462 35.7528C63.9913 36.5449 64.2739 37.4763 64.2739 38.429C64.2731 39.7066 63.7655 40.9317 62.8623 41.8354C61.9592 42.739 60.7344 43.2474 59.4568 43.2489V43.2461ZM69.0244 29.0181H67.764C67.4299 29.0177 67.1097 28.8848 66.8736 28.6484C66.6375 28.4121 66.5049 28.0917 66.5049 27.7577V26.4986H69.0244V29.0181Z" fill="#EC1C23"/>
<path d="M20.3321 36.1338C19.8776 36.1335 19.4332 36.268 19.0552 36.5203C18.6772 36.7726 18.3825 37.1314 18.2084 37.5512C18.0343 37.971 17.9886 38.433 18.0771 38.8788C18.1656 39.3246 18.3843 39.7341 18.7055 40.0556C19.0268 40.377 19.4362 40.596 19.8819 40.6848C20.3277 40.7735 20.7897 40.7281 21.2096 40.5543C21.6295 40.3804 21.9885 40.0859 22.241 39.708C22.4935 39.3302 22.6283 38.8859 22.6283 38.4314C22.6276 37.8225 22.3855 37.2387 21.955 36.808C21.5246 36.3774 20.941 36.1349 20.3321 36.1338Z" fill="#EC1C23"/>
<path d="M59.4569 36.1338C59.0024 36.1338 58.5582 36.2685 58.1804 36.521C57.8025 36.7735 57.508 37.1323 57.3341 37.5521C57.1602 37.972 57.1147 38.4339 57.2034 38.8796C57.292 39.3253 57.5109 39.7347 57.8322 40.0561C58.1535 40.3774 58.5629 40.5962 59.0086 40.6849C59.4543 40.7735 59.9163 40.728 60.3361 40.5541C60.7559 40.3802 61.1148 40.0857 61.3673 39.7079C61.6197 39.33 61.7545 38.8858 61.7545 38.4314C61.7537 37.8223 61.5114 37.2383 61.0807 36.8076C60.65 36.3768 60.066 36.1345 59.4569 36.1338Z" fill="#EC1C23"/>
<path d="M46.4226 31.3926H29.8166C29.5224 31.3926 29.2402 31.5094 29.0322 31.7175C28.8241 31.9255 28.7073 32.2077 28.7073 32.5019C28.7073 32.7961 28.8241 33.0782 29.0322 33.2862C29.2402 33.4943 29.5224 33.6112 29.8166 33.6112H46.4226C46.7168 33.6112 46.999 33.4943 47.207 33.2862C47.415 33.0782 47.5319 32.7961 47.5319 32.5019C47.5319 32.2077 47.415 31.9255 47.207 31.7175C46.999 31.5094 46.7168 31.3926 46.4226 31.3926Z" fill="#EC1C23"/>
<path d="M17.9597 26.6494H3.73172C3.43752 26.6494 3.15537 26.7663 2.94734 26.9743C2.73931 27.1823 2.62244 27.4645 2.62244 27.7587C2.62244 28.0529 2.73931 28.3351 2.94734 28.5431C3.15537 28.7511 3.43752 28.868 3.73172 28.868H17.9597C18.2539 28.868 18.5361 28.7511 18.7441 28.5431C18.9521 28.3351 19.069 28.0529 19.069 27.7587C19.069 27.4645 18.9521 27.1823 18.7441 26.9743C18.5361 26.7663 18.2539 26.6494 17.9597 26.6494Z" fill="#EC1C23"/>
<path d="M38.903 11.5601C38.7999 11.4566 38.6774 11.3744 38.5425 11.3183C38.4076 11.2623 38.2629 11.2334 38.1168 11.2334C37.9707 11.2334 37.826 11.2623 37.6911 11.3183C37.5562 11.3744 37.4337 11.4566 37.3306 11.5601L27.4455 21.4453L22.3025 16.3023C22.094 16.094 21.8113 15.977 21.5165 15.9772C21.2218 15.9773 20.9391 16.0945 20.7308 16.303C20.5225 16.5115 20.4055 16.7943 20.4056 17.089C20.4058 17.3838 20.523 17.6664 20.7315 17.8747L26.6593 23.8039C26.7623 23.9074 26.8848 23.9896 27.0198 24.0457C27.1547 24.1018 27.2994 24.1306 27.4455 24.1306C27.5916 24.1306 27.7362 24.1018 27.8712 24.0457C28.0061 23.9896 28.1286 23.9074 28.2317 23.8039L38.9086 13.127C39.1153 12.9183 39.2308 12.6362 39.2297 12.3424C39.2287 12.0487 39.1112 11.7673 38.903 11.5601Z" fill="#EC1C23"/>
</svg>
