<svg width="52" height="70" viewBox="0 0 52 70" fill="none" xmlns="http://www.w3.org/2000/svg">
<path d="M5.7666 26.0307C5.7666 37.1002 14.7723 46.1059 25.8418 46.1059C36.9112 46.1059 45.9169 37.1002 45.9169 26.0307C45.9169 14.9613 36.9112 5.95557 25.8418 5.95557C14.7723 5.95557 5.7666 14.9613 5.7666 26.0307ZM25.8418 8.63208C35.4348 8.63208 43.2404 16.4377 43.2404 26.0307C43.2404 35.6238 35.4348 43.4294 25.8418 43.4294C16.2487 43.4294 8.44311 35.6238 8.44311 26.0307C8.44311 16.4377 16.2487 8.63208 25.8418 8.63208Z" fill="#EC1C23"/>
<path d="M13.4475 23.6452L18.6356 28.7622L17.4435 35.9389C17.4045 36.1834 17.4339 36.434 17.5285 36.6629C17.6231 36.8917 17.7793 37.0899 17.9797 37.2355C18.1801 37.381 18.4168 37.4682 18.6637 37.4874C18.9106 37.5066 19.158 37.457 19.3785 37.3442L25.8418 33.9919L32.3038 37.3442C32.5246 37.458 32.7726 37.5082 33.0202 37.4893C33.2678 37.4703 33.5054 37.383 33.7063 37.237C33.9072 37.091 34.0636 36.8921 34.1581 36.6624C34.2526 36.4327 34.2814 36.1813 34.2414 35.9362L33.048 28.7622L38.2347 23.6519C38.4116 23.4772 38.5365 23.2567 38.5953 23.0151C38.6541 22.7735 38.6446 22.5203 38.5678 22.2838C38.491 22.0473 38.35 21.8368 38.1604 21.6758C37.9709 21.5149 37.7404 21.4098 37.4945 21.3723L30.2964 20.2888L27.0379 13.7732C26.926 13.5518 26.7549 13.3658 26.5437 13.2359C26.3324 13.1059 26.0892 13.0371 25.8411 13.0371C25.5931 13.0371 25.3499 13.1059 25.1386 13.2359C24.9273 13.3658 24.7562 13.5518 24.6444 13.7732L21.3872 20.2888L14.1877 21.3723C13.9419 21.4098 13.7114 21.5149 13.5219 21.6758C13.3323 21.8368 13.1913 22.0473 13.1145 22.2838C13.0377 22.5203 13.0282 22.7735 13.087 23.0151C13.1458 23.2567 13.2706 23.4772 13.4475 23.6519V23.6452ZM22.4734 22.8272C22.6855 22.7951 22.8868 22.7126 23.0603 22.5866C23.2339 22.4606 23.3748 22.2948 23.471 22.1031L25.8418 17.3642L28.2126 22.1071C28.3088 22.2988 28.4497 22.4646 28.6233 22.5906C28.7969 22.7166 28.9982 22.7991 29.2102 22.8312L34.4506 23.6211L30.6745 27.3395C30.5218 27.4903 30.4075 27.6756 30.3412 27.8797C30.2749 28.0839 30.2586 28.301 30.2937 28.5128L31.1626 33.7424L26.4586 31.3006C26.268 31.2018 26.0565 31.1503 25.8418 31.1503C25.6271 31.1503 25.4156 31.2018 25.225 31.3006L20.5277 33.7371L21.3966 28.5074C21.4317 28.2957 21.4154 28.0786 21.3491 27.8744C21.2829 27.6702 21.1685 27.4849 21.0158 27.3341L17.2397 23.6157L22.4734 22.8272Z" fill="#EC1C23"/>
<path d="M27.18 1.94348C27.18 2.20869 27.1014 2.46794 26.9541 2.68846C26.8067 2.90898 26.5973 3.08085 26.3523 3.18234C26.1072 3.28383 25.8376 3.31039 25.5775 3.25865C25.3174 3.20691 25.0785 3.07919 24.8909 2.89166C24.7034 2.70413 24.5757 2.4652 24.5239 2.20508C24.4722 1.94496 24.4987 1.67535 24.6002 1.43032C24.7017 1.1853 24.8736 0.975872 25.0941 0.828528C25.3146 0.681184 25.5739 0.602539 25.8391 0.602539C26.1947 0.602539 26.5358 0.743816 26.7873 0.99529C27.0388 1.24676 27.18 1.58784 27.18 1.94348Z" fill="#EC1C23"/>
<path d="M19.534 1.39115C15.082 2.53153 11.0221 4.85704 7.78619 8.12045C4.55023 11.3839 2.25909 15.4632 1.15637 19.9247C0.0536384 24.3862 0.180538 29.0632 1.52357 33.4584C2.86661 37.8535 5.37558 41.8026 8.78374 44.8858L0.722028 59.0957C0.596254 59.3195 0.537395 59.5748 0.552445 59.8311C0.567496 60.0874 0.655824 60.334 0.806932 60.5416C0.958039 60.7492 1.16557 60.9091 1.40487 61.0022C1.64416 61.0953 1.90515 61.1177 2.15683 61.0668L11.3127 59.1654L14.531 68.2341C14.6168 68.4756 14.77 68.6875 14.9725 68.8446C15.175 69.0017 15.4182 69.0975 15.6735 69.1207C15.9287 69.1438 16.1852 69.0933 16.4127 68.9752C16.6401 68.857 16.8289 68.6762 16.9567 68.4541L25.8418 52.8335L34.7268 68.4541C34.8438 68.6593 35.0129 68.8301 35.2171 68.949C35.4212 69.0679 35.6532 69.1308 35.8894 69.1312C35.9287 69.1332 35.9681 69.1332 36.0074 69.1312C36.2627 69.1085 36.5062 69.013 36.7089 68.8561C36.9116 68.6993 37.0651 68.4876 37.1512 68.2462L40.3695 59.1775L49.5267 61.0789C49.7805 61.133 50.0445 61.1124 50.2867 61.0194C50.5289 60.9265 50.739 60.7653 50.8914 60.5554C51.0439 60.3454 51.1321 60.0958 51.1455 59.8367C51.1589 59.5776 51.0969 59.3202 50.9669 59.0957L42.9039 44.8817C46.3109 41.7982 48.8188 37.8491 50.1609 33.4542C51.5031 29.0593 51.6293 24.3828 50.5262 19.9219C49.4231 15.461 47.1319 11.3824 43.8962 8.11951C40.6605 4.85663 36.6011 2.53146 32.1496 1.39115C31.9753 1.33483 31.7913 1.31481 31.609 1.33231C31.4267 1.34982 31.2499 1.40449 31.0895 1.49295C30.9292 1.58141 30.7886 1.70178 30.6765 1.84665C30.5645 1.99151 30.4833 2.1578 30.438 2.33525C30.3926 2.5127 30.3841 2.69756 30.413 2.87842C30.4419 3.05928 30.5075 3.23231 30.6058 3.38684C30.7041 3.54138 30.833 3.67413 30.9846 3.77692C31.1362 3.87972 31.3072 3.95037 31.4871 3.98452C36.3834 5.23506 40.7233 8.08146 43.8212 12.074C46.9191 16.0665 48.5983 20.9774 48.5935 26.0309C48.5935 38.6987 38.3045 48.7825 25.8418 48.7825C13.3791 48.7825 3.09549 38.6853 3.09549 26.0309C3.09034 20.9782 4.76876 16.0677 7.8656 12.0753C10.9625 8.08291 15.3012 5.23607 20.1964 3.98452C20.5211 3.87962 20.7935 3.65493 20.9582 3.35622C21.123 3.05751 21.1677 2.70724 21.0833 2.37671C20.9989 2.04618 20.7916 1.76026 20.5038 1.57716C20.216 1.39405 19.8692 1.32754 19.534 1.39115ZM16.0771 64.5814L13.4462 57.1701C13.3377 56.8656 13.1229 56.6105 12.8412 56.4518C12.5596 56.2931 12.2301 56.2415 11.9135 56.3065L4.50883 57.8446L10.8903 46.5968C14.6177 49.303 19.009 50.9482 23.5971 51.3571L16.0771 64.5814ZM39.7701 56.3065C39.4532 56.2412 39.1235 56.2926 38.8415 56.4513C38.5596 56.61 38.3446 56.8653 38.2361 57.1701L35.6065 64.5814L28.0852 51.3585C32.6738 50.9493 37.0656 49.3037 40.7932 46.5968L47.1747 57.8432L39.7701 56.3065Z" fill="#EC1C23"/>
</svg>
