<svg width="64" height="64" viewBox="0 0 64 64" fill="none" xmlns="http://www.w3.org/2000/svg">
<path d="M49.4899 5.43C47.6425 5.4333 45.8162 5.82243 44.1279 6.57246C41.202 3.41453 37.1415 1.54816 32.8396 1.3839C28.5377 1.21964 24.3467 2.77094 21.1885 5.69657C20.8881 5.97499 20.5982 6.26696 20.3189 6.57246C18.6518 5.82806 16.8484 5.43754 15.0227 5.4256C13.1969 5.41365 11.3886 5.78054 9.71185 6.50307C8.03512 7.22559 6.5265 8.28806 5.2813 9.62332C4.03609 10.9586 3.08139 12.5376 2.47752 14.2606C1.87364 15.9836 1.63372 17.8132 1.77292 19.6336C1.91212 21.4541 2.42741 23.2259 3.28623 24.8371C4.14505 26.4482 5.32872 27.8638 6.76246 28.9942C8.1962 30.1246 9.84882 30.9453 11.6159 31.4045L14.9621 51.2136V61.2838C14.9621 61.5531 15.069 61.8114 15.2595 62.0019C15.4499 62.1923 15.7082 62.2993 15.9776 62.2993H48.4743C48.7437 62.2993 49.002 62.1923 49.1924 62.0019C49.3829 61.8114 49.4899 61.5531 49.4899 61.2838V51.2136L52.8385 31.4109C55.9507 30.6039 58.6613 28.6889 60.4619 26.0254C62.2625 23.3619 63.0292 20.1328 62.6182 16.9441C62.2072 13.7555 60.6468 10.8263 58.2297 8.70643C55.8125 6.58651 52.7049 5.4215 49.4899 5.43ZM47.4588 60.2683H16.9931V52.1441H47.4588V60.2683ZM51.7456 29.5753C51.545 29.6165 51.3616 29.7173 51.2193 29.8645C51.077 30.0118 50.9826 30.1986 50.9484 30.4004L47.6188 50.113H41.4431L42.3812 36.9836C42.3812 36.9595 42.3812 36.9353 42.3812 36.9112C42.3908 36.6419 42.293 36.3798 42.1093 36.1825C41.9257 35.9853 41.6712 35.8691 41.4018 35.8595C41.1325 35.8499 40.8704 35.9477 40.6732 36.1314C40.4759 36.315 40.3597 36.5695 40.3501 36.8389L39.407 50.113H33.2415V38.9423C33.2415 38.6729 33.1345 38.4146 32.944 38.2242C32.7536 38.0337 32.4953 37.9267 32.226 37.9267C31.9566 37.9267 31.6983 38.0337 31.5079 38.2242C31.3174 38.4146 31.2104 38.6729 31.2104 38.9423V50.113H25.05L24.1018 36.8389C24.0922 36.5695 23.976 36.315 23.7787 36.1314C23.5815 35.9477 23.3194 35.8499 23.0501 35.8595C22.7807 35.8691 22.5262 35.9853 22.3426 36.1825C22.1589 36.3798 22.0611 36.6419 22.0707 36.9112C22.0695 36.9353 22.0695 36.9595 22.0707 36.9836L23.0126 50.113H16.8382L13.506 30.4004C13.4718 30.1986 13.3774 30.0118 13.2351 29.8645C13.0929 29.7173 12.9094 29.6165 12.7089 29.5753C10.6395 29.1492 8.7335 28.1449 7.21194 26.6791C5.69038 25.2134 4.6157 23.3461 4.11261 21.2941C3.60953 19.2422 3.69867 17.0896 4.3697 15.0863C5.04072 13.0829 6.26611 11.3109 7.90366 9.97595C9.5412 8.64098 11.5238 7.79777 13.6212 7.54418C15.7187 7.29059 17.8451 7.63701 19.7536 8.54324C21.6621 9.44947 23.2745 10.8784 24.4036 12.6641C25.5328 14.4498 26.1324 16.5191 26.1328 18.6318C26.1328 18.9011 26.2398 19.1594 26.4303 19.3499C26.6207 19.5403 26.879 19.6473 27.1483 19.6473C27.4177 19.6473 27.676 19.5403 27.8664 19.3499C28.0569 19.1594 28.1639 18.9011 28.1639 18.6318C28.1627 16.4349 27.6133 14.2731 26.5655 12.3422C25.5177 10.4113 24.0046 8.77237 22.1634 7.57402C23.92 5.81201 26.1083 4.54184 28.5096 3.89043C30.9108 3.23901 33.441 3.22916 35.8473 3.86185C38.2535 4.49454 40.4516 5.74763 42.2219 7.4959C43.9922 9.24417 45.2727 11.4264 45.9355 13.8246C45.9646 13.958 46.0204 14.0843 46.0994 14.1957C46.1785 14.3071 46.2792 14.4014 46.3956 14.473C46.5119 14.5446 46.6415 14.5919 46.7766 14.6123C46.9117 14.6326 47.0495 14.6254 47.1818 14.5913C47.314 14.5571 47.438 14.4966 47.5464 14.4134C47.6547 14.3301 47.7451 14.2259 47.8122 14.1069C47.8793 13.9879 47.9217 13.8566 47.9369 13.7209C47.9521 13.5851 47.9397 13.4477 47.9006 13.3168L47.8929 13.2889C47.39 11.4673 46.5701 9.74846 45.4709 8.21126C46.9109 7.66077 48.4492 7.41428 49.9891 7.4873C51.5289 7.56033 53.037 7.95129 54.4184 8.63558C55.7998 9.31988 57.0247 10.2827 58.0158 11.4634C59.007 12.6442 59.743 14.0173 60.1776 15.4964C60.6122 16.9754 60.7359 18.5285 60.541 20.0577C60.3462 21.5869 59.8369 23.0593 59.0452 24.3821C58.2535 25.7049 57.1966 26.8495 55.941 27.7439C54.6854 28.6383 53.2583 29.2632 51.7494 29.5791L51.7456 29.5753Z" fill="#EC1C23" stroke="#E2000F" stroke-width="2" stroke-miterlimit="10"/>
</svg>
