<svg width="62" height="59" viewBox="0 0 62 59" fill="none" xmlns="http://www.w3.org/2000/svg">
<path d="M50.3968 23.2273V21.4515C50.4011 21.3319 50.3813 21.2127 50.3386 21.101C50.2958 20.9893 50.231 20.8873 50.148 20.8012C50.0649 20.7151 49.9654 20.6466 49.8553 20.5998C49.7452 20.5531 49.6268 20.529 49.5072 20.529C49.3875 20.529 49.2691 20.5531 49.159 20.5998C49.0489 20.6466 48.9494 20.7151 48.8663 20.8012C48.7833 20.8873 48.7185 20.9893 48.6757 21.101C48.633 21.2127 48.6132 21.3319 48.6175 21.4515V23.7911C48.6173 23.963 48.667 24.1313 48.7607 24.2754C48.8544 24.4196 48.9879 24.5334 49.1451 24.603C52.0938 25.918 54.5987 28.0586 56.3574 30.7661C58.1161 33.4737 59.0533 36.6325 59.0559 39.8611C59.0559 49.0666 51.569 56.5547 42.3612 56.5547C40.507 56.5596 38.6651 56.2535 36.9121 55.6492C36.9776 55.5509 37.0408 55.4492 37.1005 55.3462C37.3411 54.9293 37.5312 54.4851 37.6667 54.0231C39.1805 54.5269 40.7658 54.7825 42.3612 54.78C50.5863 54.78 57.2778 48.0897 57.2778 39.8658C57.2722 37.8582 56.8638 35.8722 56.0767 34.0253C55.2896 32.1784 54.1398 30.5083 52.6955 29.1139C52.5301 28.9541 52.3091 28.8648 52.079 28.8647H32.6458C32.416 28.8648 32.1951 28.9537 32.0293 29.1127C30.476 30.6058 29.2647 32.4177 28.4788 34.4238L27.3733 32.5146C29.0991 29.0012 32.0034 26.205 35.5797 24.6135C35.7369 24.5436 35.8704 24.4295 35.964 24.2852C36.0577 24.1409 36.1074 23.9725 36.1073 23.8005V14.987H48.6175V17.8917C48.6132 18.0112 48.633 18.1304 48.6757 18.2421C48.7185 18.3538 48.7833 18.4558 48.8663 18.5419C48.9494 18.628 49.0489 18.6965 49.159 18.7433C49.2691 18.7901 49.3875 18.8142 49.5072 18.8142C49.6268 18.8142 49.7452 18.7901 49.8553 18.7433C49.9654 18.6965 50.0649 18.628 50.148 18.5419C50.231 18.4558 50.2958 18.3538 50.3386 18.2421C50.3813 18.1304 50.4011 18.0112 50.3968 17.8917V14.987H51.1841C51.6098 14.9951 52.0329 14.9183 52.4285 14.761C52.8242 14.6037 53.1845 14.3691 53.4884 14.071C53.7924 13.7728 54.0338 13.417 54.1986 13.0244C54.3634 12.6318 54.4483 12.2103 54.4483 11.7845C54.4483 11.3588 54.3634 10.9373 54.1986 10.5447C54.0338 10.1521 53.7924 9.79632 53.4884 9.49814C53.1845 9.19996 52.8242 8.96538 52.4285 8.80809C52.0329 8.65081 51.6098 8.57399 51.1841 8.58213H47.5576C47.4381 8.57779 47.3189 8.59759 47.2072 8.64035C47.0954 8.68311 46.9935 8.74794 46.9074 8.83098C46.8213 8.91402 46.7528 9.01357 46.706 9.12367C46.6592 9.23376 46.6351 9.35216 46.6351 9.47179C46.6351 9.59141 46.6592 9.70981 46.706 9.81991C46.7528 9.93001 46.8213 10.0295 46.9074 10.1126C46.9935 10.1956 47.0954 10.2605 47.2072 10.3032C47.3189 10.346 47.4381 10.3658 47.5576 10.3614H51.1841C51.5622 10.3614 51.9247 10.5116 52.1921 10.7789C52.4594 11.0463 52.6096 11.4088 52.6096 11.7869C52.6096 12.1649 52.4594 12.5275 52.1921 12.7948C51.9247 13.0622 51.5622 13.2123 51.1841 13.2123H33.7407C33.5504 13.2178 33.3609 13.185 33.1835 13.116C33.0061 13.0469 32.8443 12.9429 32.7077 12.8103C32.5712 12.6776 32.4627 12.5188 32.3885 12.3435C32.3144 12.1681 32.2762 11.9796 32.2762 11.7892C32.2762 11.5988 32.3144 11.4104 32.3885 11.235C32.4627 11.0596 32.5712 10.9009 32.7077 10.7682C32.8443 10.6355 33.0061 10.5316 33.1835 10.4625C33.3609 10.3934 33.5504 10.3607 33.7407 10.3661H43.9931C44.2235 10.3578 44.4417 10.2604 44.6017 10.0944C44.7617 9.92852 44.8511 9.70699 44.8511 9.47647C44.8511 9.24595 44.7617 9.02441 44.6017 8.85848C44.4417 8.69255 44.2235 8.59516 43.9931 8.58681H33.7407C33.315 8.57867 32.892 8.65549 32.4963 8.81277C32.1007 8.97006 31.7403 9.20464 31.4364 9.50282C31.1325 9.801 30.891 10.1568 30.7262 10.5494C30.5614 10.9419 30.4765 11.3635 30.4765 11.7892C30.4765 12.215 30.5614 12.6365 30.7262 13.0291C30.891 13.4217 31.1325 13.7775 31.4364 14.0756C31.7403 14.3738 32.1007 14.6084 32.4963 14.7657C32.892 14.923 33.315 14.9998 33.7407 14.9916H34.3256V23.232C30.9661 24.8563 28.176 27.4584 26.3216 30.6967L25.7987 29.7854V20.6805H26.531C27.3698 20.6645 28.1687 20.3201 28.7562 19.7212C29.3437 19.1224 29.6728 18.317 29.6728 17.4781C29.6728 16.6392 29.3437 15.8338 28.7562 15.235C28.1687 14.6362 27.3698 14.2917 26.531 14.2757H12.4369C12.0112 14.2676 11.5881 14.3444 11.1925 14.5017C10.7968 14.659 10.4365 14.8935 10.1325 15.1917C9.82862 15.4899 9.58718 15.8457 9.42237 16.2383C9.25756 16.6308 9.17267 17.0524 9.17267 17.4781C9.17267 17.9039 9.25756 18.3254 9.42237 18.718C9.58718 19.1106 9.82862 19.4664 10.1325 19.7645C10.4365 20.0627 10.7968 20.2973 11.1925 20.4546C11.5881 20.6119 12.0112 20.6887 12.4369 20.6805H13.1645V29.7854L1.8686 49.3602C1.34322 50.2704 1.06664 51.3029 1.06665 52.3539C1.06666 53.4048 1.34327 54.4373 1.86868 55.3475C2.39409 56.2577 3.14979 57.0137 4.05987 57.5393C4.96994 58.065 6.00233 58.3419 7.05331 58.3422H22.2892C22.5196 58.3338 22.7377 58.2364 22.8978 58.0705C23.0578 57.9046 23.1472 57.683 23.1472 57.4525C23.1472 57.222 23.0578 57.0005 22.8978 56.8345C22.7377 56.6686 22.5196 56.5712 22.2892 56.5629H7.05331C6.31432 56.5623 5.58848 56.3673 4.94871 55.9975C4.30893 55.6276 3.77774 55.0959 3.40849 54.4558C3.03923 53.8157 2.84491 53.0897 2.84505 52.3507C2.84519 51.6117 3.03978 50.8857 3.40927 50.2458L14.8292 30.4662C14.9068 30.331 14.9472 30.1776 14.9462 30.0217V20.6805H24.0194V30.024C24.0184 30.1799 24.0588 30.3333 24.1364 30.4685L35.5551 50.2481C35.9246 50.8881 36.1192 51.614 36.1194 52.353C36.1195 53.092 35.9252 53.818 35.5559 54.4581C35.1867 55.0983 34.6555 55.6299 34.0157 55.9998C33.3759 56.3696 32.6501 56.5646 31.9111 56.5652H25.8467C25.6163 56.5736 25.3982 56.6709 25.2381 56.8369C25.0781 57.0028 24.9887 57.2243 24.9887 57.4549C24.9887 57.6854 25.0781 57.9069 25.2381 58.0728C25.3982 58.2388 25.6163 58.3362 25.8467 58.3445H31.9158C33.2576 58.3505 34.5618 57.9019 35.616 57.0717C37.7644 57.9163 40.0528 58.3481 42.3612 58.3445C52.5481 58.3445 60.8352 50.0574 60.8352 39.8717C60.8336 36.3971 59.8536 32.9932 58.0076 30.0496C56.1615 27.106 53.524 24.7417 50.3968 23.2273ZM14.0583 18.8989H12.4369C12.2466 18.9043 12.0571 18.8716 11.8797 18.8025C11.7022 18.7334 11.5405 18.6295 11.4039 18.4968C11.2674 18.3641 11.1588 18.2054 11.0847 18.03C11.0106 17.8546 10.9724 17.6662 10.9724 17.4758C10.9724 17.2854 11.0106 17.0969 11.0847 16.9216C11.1588 16.7462 11.2674 16.5875 11.4039 16.4548C11.5405 16.3221 11.7022 16.2181 11.8797 16.1491C12.0571 16.08 12.2466 16.0472 12.4369 16.0527H26.5334C26.9037 16.0633 27.2554 16.2179 27.5136 16.4836C27.7718 16.7493 27.9163 17.1053 27.9163 17.4758C27.9163 17.8463 27.7718 18.2022 27.5136 18.468C27.2554 18.7337 26.9037 18.8883 26.5334 18.8989H14.0583ZM29.6709 36.492C30.2568 34.2849 31.4084 32.2688 33.0119 30.6429H51.7129C53.5326 32.4865 54.7665 34.8272 55.2592 37.3705C55.7519 39.9137 55.4814 42.5458 54.4818 44.9357C53.4822 47.3256 51.7981 49.3664 49.6414 50.8015C47.4847 52.2366 44.9517 53.0017 42.3612 53.0007C40.8426 53.0031 39.3353 52.7394 37.9077 52.2216C37.885 51.2138 37.6073 50.2281 37.1005 49.3567L29.6709 36.492Z" fill="#EC1C23"/>
<path d="M42.3612 58.5155C40.0644 58.519 37.787 58.0954 35.6452 57.2661C34.5747 58.0841 33.263 58.5235 31.9158 58.5155H25.8467C25.5703 58.5063 25.3083 58.3901 25.116 58.1913C24.9237 57.9926 24.8163 57.7269 24.8163 57.4504C24.8163 57.1738 24.9237 56.9081 25.116 56.7094C25.3083 56.5106 25.5703 56.3944 25.8467 56.3852H31.9158C32.6235 56.3849 33.3187 56.1983 33.9316 55.8443C34.5444 55.4902 35.0533 54.9812 35.4072 54.3682C35.761 53.7552 35.9473 53.0599 35.9474 52.3522C35.9475 51.6444 35.7614 50.9491 35.4077 50.336L23.989 30.5565C23.8955 30.3946 23.8463 30.2111 23.8462 30.0242V20.8562H15.124V30.0242C15.1239 30.2111 15.0747 30.3946 14.9812 30.5565L3.56133 50.336C3.20765 50.9491 3.02152 51.6444 3.02161 52.3522C3.0217 53.0599 3.20803 53.7552 3.56187 54.3682C3.91571 54.9812 4.42461 55.4902 5.03745 55.8443C5.6503 56.1983 6.34552 56.3849 7.05329 56.3852H22.2892C22.5656 56.3944 22.8276 56.5106 23.0199 56.7094C23.2121 56.9081 23.3196 57.1738 23.3196 57.4504C23.3196 57.7269 23.2121 57.9926 23.0199 58.1913C22.8276 58.3901 22.5656 58.5063 22.2892 58.5155H7.05329C5.97201 58.5149 4.90993 58.2298 3.97366 57.6889C3.03738 57.148 2.25986 56.3704 1.71914 55.434C1.17842 54.4977 0.893529 53.4355 0.893067 52.3543C0.892605 51.273 1.17659 50.2106 1.7165 49.2738L12.9937 29.7376V20.8562H12.4369C11.988 20.8646 11.5419 20.7834 11.1248 20.6174C10.7077 20.4514 10.3278 20.2039 10.0074 19.8894C9.68698 19.5749 9.43247 19.1997 9.25874 18.7857C9.085 18.3717 8.99552 17.9273 8.99552 17.4783C8.99552 17.0294 9.085 16.5849 9.25874 16.1709C9.43247 15.7569 9.68698 15.3817 10.0074 15.0672C10.3278 14.7527 10.7077 14.5053 11.1248 14.3393C11.5419 14.1733 11.988 14.0921 12.4369 14.1004H26.5334C27.4183 14.1169 28.2615 14.48 28.8816 15.1117C29.5016 15.7434 29.849 16.5932 29.849 17.4783C29.849 18.3635 29.5016 19.2132 28.8816 19.8449C28.2615 20.4766 27.4183 20.8397 26.5334 20.8562H25.9765V29.7388L26.3275 30.3436C28.1763 27.2233 30.897 24.7115 34.1548 23.1175V15.1626H33.743C33.2942 15.171 32.8481 15.0898 32.431 14.9238C32.0138 14.7578 31.634 14.5103 31.3136 14.1958C30.9932 13.8813 30.7387 13.5061 30.5649 13.0921C30.3912 12.6781 30.3017 12.2337 30.3017 11.7847C30.3017 11.3358 30.3912 10.8913 30.5649 10.4773C30.7387 10.0634 30.9932 9.68815 31.3136 9.37366C31.634 9.05917 32.0138 8.81169 32.431 8.64568C32.8481 8.47968 33.2942 8.39848 33.743 8.40683H43.9955C44.2718 8.416 44.5338 8.53223 44.7261 8.73098C44.9184 8.92973 45.0259 9.19544 45.0259 9.47197C45.0259 9.7485 44.9184 10.0142 44.7261 10.213C44.5338 10.4117 44.2718 10.5279 43.9955 10.5371H33.7407C33.5736 10.532 33.4073 10.5605 33.2514 10.6209C33.0956 10.6813 32.9535 10.7723 32.8335 10.8887C32.7135 11.0051 32.6181 11.1443 32.553 11.2982C32.4878 11.4522 32.4543 11.6176 32.4543 11.7847C32.4543 11.9519 32.4878 12.1173 32.553 12.2712C32.6181 12.4251 32.7135 12.5644 32.8335 12.6808C32.9535 12.7971 33.0956 12.8882 33.2514 12.9486C33.4073 13.009 33.5736 13.0375 33.7407 13.0324H51.1841C51.3511 13.0375 51.5175 13.009 51.6734 12.9486C51.8292 12.8882 51.9713 12.7971 52.0913 12.6808C52.2113 12.5644 52.3067 12.4251 52.3718 12.2712C52.4369 12.1173 52.4705 11.9519 52.4705 11.7847C52.4705 11.6176 52.4369 11.4522 52.3718 11.2982C52.3067 11.1443 52.2113 11.0051 52.0913 10.8887C51.9713 10.7723 51.8292 10.6813 51.6734 10.6209C51.5175 10.5605 51.3511 10.532 51.1841 10.5371H47.5576C47.2812 10.5279 47.0192 10.4117 46.827 10.213C46.6347 10.0142 46.5272 9.7485 46.5272 9.47197C46.5272 9.19544 46.6347 8.92973 46.827 8.73098C47.0192 8.53223 47.2812 8.416 47.5576 8.40683H51.1841C52.0691 8.42331 52.9123 8.78643 53.5323 9.41811C54.1523 10.0498 54.4997 10.8996 54.4997 11.7847C54.4997 12.6699 54.1523 13.5197 53.5323 14.1513C52.9123 14.783 52.0691 15.1462 51.1841 15.1626H50.5781V17.8918C50.5829 18.0347 50.5588 18.177 50.5074 18.3104C50.456 18.4438 50.3783 18.5654 50.2789 18.6681C50.1796 18.7709 50.0605 18.8525 49.929 18.9083C49.7974 18.9641 49.6559 18.9929 49.513 18.9929C49.3701 18.9929 49.2286 18.9641 49.097 18.9083C48.9654 18.8525 48.8464 18.7709 48.747 18.6681C48.6477 18.5654 48.57 18.4438 48.5186 18.3104C48.4672 18.177 48.4431 18.0347 48.4478 17.8918V15.1626H36.2827V23.7948C36.2827 24.0008 36.2231 24.2023 36.111 24.375C35.9989 24.5477 35.8391 24.6843 35.651 24.7681C32.1436 26.333 29.2881 29.067 27.5722 32.5031L28.4507 34.0239C29.2458 32.1253 30.4224 30.4104 31.9076 28.9854C32.1057 28.7942 32.3704 28.6877 32.6457 28.6882H52.079C52.3546 28.6872 52.6197 28.7943 52.8172 28.9865C54.2785 30.3976 55.4418 32.0875 56.2382 33.9563C57.0345 35.8251 57.4477 37.8346 57.4532 39.866C57.4532 48.187 50.6834 54.9569 42.3624 54.9569C40.8082 54.9584 39.2632 54.7189 37.7825 54.2468C37.6482 54.66 37.471 55.0579 37.2537 55.4342C37.2315 55.4751 37.2069 55.5149 37.1812 55.5511C38.8524 56.1027 40.6013 56.3823 42.3612 56.3794C51.4707 56.3794 58.8804 48.9696 58.8804 39.8613C58.8775 36.6679 57.9504 33.5436 56.2111 30.8654C54.4718 28.1872 51.9946 26.0696 49.0784 24.7681C48.8906 24.6842 48.731 24.5478 48.619 24.3754C48.5069 24.2029 48.4471 24.0017 48.4467 23.796V21.4563C48.4419 21.3135 48.466 21.1711 48.5174 21.0378C48.5688 20.9044 48.6465 20.7828 48.7459 20.68C48.8452 20.5773 48.9643 20.4956 49.0958 20.4398C49.2274 20.3841 49.3689 20.3553 49.5118 20.3553C49.6547 20.3553 49.7962 20.3841 49.9278 20.4398C50.0594 20.4956 50.1784 20.5773 50.2778 20.68C50.3771 20.7828 50.4548 20.9044 50.5062 21.0378C50.5576 21.1711 50.5817 21.3135 50.5769 21.4563V23.1222C53.7055 24.6615 56.3408 27.0457 58.1847 30.0049C60.0286 32.9642 61.0075 36.3804 61.0107 39.8672C61.0107 50.15 52.6452 58.5155 42.3612 58.5155ZM35.5867 56.8672L35.6803 56.9035C37.8082 57.74 40.0748 58.1678 42.3612 58.1645C52.451 58.1645 60.6597 49.9558 60.6597 39.8672C60.6468 36.4291 59.6714 33.0634 57.8439 30.1512C56.0164 27.2391 53.4098 24.8969 50.3196 23.3901L50.2213 23.3421V21.4516C50.2252 21.3554 50.2096 21.2594 50.1755 21.1694C50.1414 21.0793 50.0894 20.9971 50.0227 20.9276C49.956 20.8582 49.8759 20.8029 49.7873 20.7652C49.6987 20.7274 49.6034 20.708 49.5071 20.708C49.4108 20.708 49.3155 20.7274 49.2269 20.7652C49.1383 20.8029 49.0583 20.8582 48.9916 20.9276C48.9249 20.9971 48.8729 21.0793 48.8388 21.1694C48.8046 21.2594 48.7891 21.3554 48.7929 21.4516V23.7913C48.7932 23.9292 48.8333 24.0641 48.9084 24.1797C48.9835 24.2953 49.0905 24.3867 49.2164 24.4429C52.1963 25.7715 54.7277 27.9345 56.5049 30.6705C58.2821 33.4066 59.229 36.5987 59.2314 39.8613C59.2314 49.1627 51.6637 56.7303 42.3612 56.7303C40.4873 56.7332 38.6261 56.4224 36.8548 55.8108L36.6407 55.7371L36.7659 55.5488C36.8349 55.4423 36.8957 55.3464 36.9496 55.2528C37.1825 54.847 37.3667 54.4151 37.4982 53.966L37.5497 53.7929L37.7228 53.8502C39.2187 54.3469 40.785 54.5993 42.3612 54.5977C50.4892 54.5977 57.1011 47.9858 57.1011 39.8578C57.0948 37.8751 56.6909 35.9137 55.9133 34.0898C55.1357 32.2659 54.0001 30.6165 52.5739 29.2392C52.441 29.1111 52.2636 29.0394 52.079 29.0392H32.6457C32.4613 29.039 32.2839 29.1103 32.1509 29.2381C30.6141 30.712 29.4166 32.5027 28.6414 34.4859L28.5092 34.8252L27.1744 32.5148L27.2154 32.4305C28.9621 28.8812 31.896 26.0553 35.5083 24.4429C35.6344 24.3866 35.7415 24.295 35.8167 24.1792C35.8918 24.0634 35.9318 23.9282 35.9318 23.7901V14.8117H48.7929V17.8918C48.7891 17.9881 48.8046 18.0841 48.8388 18.1741C48.8729 18.2642 48.9249 18.3464 48.9916 18.4158C49.0583 18.4853 49.1383 18.5406 49.2269 18.5783C49.3155 18.6161 49.4108 18.6355 49.5071 18.6355C49.6034 18.6355 49.6987 18.6161 49.7873 18.5783C49.8759 18.5406 49.956 18.4853 50.0227 18.4158C50.0894 18.3464 50.1414 18.2642 50.1755 18.1741C50.2096 18.0841 50.2252 17.9881 50.2213 17.8918V14.8117H51.1841C51.9766 14.7961 52.7314 14.4703 53.2863 13.9044C53.8413 13.3384 54.1521 12.5774 54.1521 11.7847C54.1521 10.9921 53.8413 10.2311 53.2863 9.66509C52.7314 9.09912 51.9766 8.77337 51.1841 8.75779H47.5576C47.3732 8.76525 47.1988 8.84376 47.071 8.97688C46.9431 9.11 46.8717 9.28741 46.8717 9.47197C46.8717 9.65653 46.9431 9.83394 47.071 9.96706C47.1988 10.1002 47.3732 10.1787 47.5576 10.1862H51.1841C51.3977 10.1804 51.6102 10.2174 51.8092 10.2952C52.0082 10.3729 52.1896 10.4897 52.3427 10.6388C52.4958 10.7878 52.6175 10.966 52.7006 11.1628C52.7837 11.3596 52.8265 11.5711 52.8265 11.7847C52.8265 11.9984 52.7837 12.2099 52.7006 12.4067C52.6175 12.6035 52.4958 12.7817 52.3427 12.9307C52.1896 13.0797 52.0082 13.1965 51.8092 13.2743C51.6102 13.352 51.3977 13.3891 51.1841 13.3833H33.7407C33.5271 13.3891 33.3146 13.352 33.1156 13.2743C32.9166 13.1965 32.7352 13.0797 32.5821 12.9307C32.429 12.7817 32.3073 12.6035 32.2242 12.4067C32.1411 12.2099 32.0983 11.9984 32.0983 11.7847C32.0983 11.5711 32.1411 11.3596 32.2242 11.1628C32.3073 10.966 32.429 10.7878 32.5821 10.6388C32.7352 10.4897 32.9166 10.3729 33.1156 10.2952C33.3146 10.2174 33.5271 10.1804 33.7407 10.1862H43.9931C44.1775 10.1787 44.3519 10.1002 44.4797 9.96706C44.6076 9.83394 44.679 9.65653 44.679 9.47197C44.679 9.28741 44.6076 9.11 44.4797 8.97688C44.3519 8.84376 44.1775 8.76525 43.9931 8.75779H33.7407C33.3382 8.74987 32.9381 8.82232 32.564 8.97088C32.1898 9.11945 31.849 9.34114 31.5615 9.62301C31.2741 9.90487 31.0457 10.2412 30.8898 10.6124C30.734 10.9836 30.6537 11.3821 30.6537 11.7847C30.6537 12.1873 30.734 12.5859 30.8898 12.957C31.0457 13.3282 31.2741 13.6646 31.5615 13.9465C31.849 14.2283 32.1898 14.45 32.564 14.5986C32.9381 14.7471 33.3382 14.8196 33.7407 14.8117H34.5034V23.3374L34.404 23.3854C31.0738 24.9904 28.3095 27.5691 26.4772 30.7799L26.3251 31.0443L25.6232 29.8335V20.5053H26.531C27.3235 20.4897 28.0783 20.1639 28.6332 19.598C29.1882 19.032 29.499 18.271 29.499 17.4783C29.499 16.6857 29.1882 15.9246 28.6332 15.3587C28.0783 14.7927 27.3235 14.4669 26.531 14.4514H12.4369C12.0344 14.4435 11.6343 14.5159 11.2601 14.6645C10.886 14.813 10.5452 15.0347 10.2577 15.3166C9.97025 15.5984 9.7419 15.9348 9.58601 16.306C9.43012 16.6772 9.34982 17.0757 9.34982 17.4783C9.34982 17.8809 9.43012 18.2794 9.58601 18.6506C9.7419 19.0218 9.97025 19.3582 10.2577 19.64C10.5452 19.9219 10.886 20.1436 11.2601 20.2922C11.6343 20.4407 12.0344 20.5132 12.4369 20.5053H13.3447V29.8335L13.3213 29.8733L2.02066 49.4458C1.51078 50.3291 1.24231 51.3311 1.24222 52.3511C1.24212 53.3711 1.51041 54.3731 2.02012 55.2566C2.52984 56.14 3.26305 56.8738 4.1461 57.3843C5.02916 57.8947 6.03098 58.1638 7.05095 58.1645H22.2892C22.4736 58.1571 22.648 58.0786 22.7758 57.9454C22.9037 57.8123 22.9751 57.6349 22.9751 57.4504C22.9751 57.2658 22.9037 57.0884 22.7758 56.9553C22.648 56.8221 22.4736 56.7436 22.2892 56.7362H7.05329C6.2839 56.7359 5.52813 56.5331 4.8619 56.1483C4.19567 55.7635 3.64244 55.2101 3.25777 54.5438C2.8731 53.8774 2.67054 53.1216 2.67043 52.3522C2.67033 51.5828 2.87269 50.827 3.25718 50.1605L14.6771 30.381C14.7387 30.2742 14.7717 30.1533 14.773 30.03V20.5053H24.1972V30.0242C24.1971 30.1499 24.2302 30.2734 24.2931 30.3822L35.7119 50.1605C36.0964 50.827 36.2987 51.5828 36.2986 52.3522C36.2985 53.1216 36.096 53.8774 35.7113 54.5438C35.3266 55.2101 34.7734 55.7635 34.1071 56.1483C33.4409 56.5331 32.6852 56.7359 31.9158 56.7362H25.8467C25.6623 56.7436 25.4879 56.8221 25.36 56.9553C25.2322 57.0884 25.1608 57.2658 25.1608 57.4504C25.1608 57.6349 25.2322 57.8123 25.36 57.9454C25.4879 58.0786 25.6623 58.1571 25.8467 58.1645H31.9158C33.2189 58.1731 34.486 57.7374 35.5083 56.9292L35.5867 56.8672ZM42.3612 53.1775C40.8222 53.1797 39.2948 52.9125 37.848 52.3879L37.731 52.347V52.23C37.7078 51.2521 37.4387 50.2957 36.9484 49.4493L29.4825 36.5133L29.5012 36.4431C30.0987 34.211 31.2653 32.1722 32.8867 30.5261L32.9382 30.4734H51.7866L51.838 30.5261C53.6819 32.3943 54.9321 34.7662 55.4313 37.3432C55.9305 39.9203 55.6565 42.5874 54.6437 45.0091C53.6308 47.4308 51.9244 49.4988 49.7392 50.9531C47.5539 52.4074 44.9873 53.183 42.3624 53.1822L42.3612 53.1775ZM38.082 52.0978C40.0357 52.7824 42.125 52.9889 44.175 52.7001C46.2249 52.4112 48.1759 51.6354 49.8644 50.4377C51.5529 49.2399 52.9299 47.655 53.88 45.8157C54.8301 43.9764 55.3257 41.9362 55.3253 39.866C55.3115 36.488 53.9914 33.2464 51.6415 30.8197H33.0844C31.5493 32.3982 30.4397 34.3402 29.8592 36.4641L37.2525 49.2703C37.7526 50.1323 38.0371 51.1023 38.082 52.0978ZM26.5357 19.0769H12.4369C12.2233 19.0827 12.0107 19.0456 11.8117 18.9679C11.6127 18.8901 11.4313 18.7733 11.2782 18.6243C11.1251 18.4753 11.0034 18.2971 10.9204 18.1003C10.8373 17.9034 10.7945 17.692 10.7945 17.4783C10.7945 17.2647 10.8373 17.0532 10.9204 16.8564C11.0034 16.6595 11.1251 16.4814 11.2782 16.3323C11.4313 16.1833 11.6127 16.0665 11.8117 15.9888C12.0107 15.911 12.2233 15.874 12.4369 15.8797H26.5334C26.9498 15.891 27.3455 16.0644 27.6361 16.3629C27.9267 16.6615 28.0893 17.0617 28.0893 17.4783C28.0893 17.8949 27.9267 18.2951 27.6361 18.5937C27.3455 18.8923 26.9498 19.0656 26.5334 19.0769H26.5357ZM12.4369 16.2307C12.2698 16.2256 12.1034 16.2541 11.9476 16.3144C11.7917 16.3748 11.6496 16.4659 11.5296 16.5823C11.4097 16.6986 11.3143 16.8379 11.2491 16.9918C11.184 17.1457 11.1504 17.3112 11.1504 17.4783C11.1504 17.6454 11.184 17.8109 11.2491 17.9648C11.3143 18.1187 11.4097 18.258 11.5296 18.3743C11.6496 18.4907 11.7917 18.5818 11.9476 18.6422C12.1034 18.7026 12.2698 18.7311 12.4369 18.7259H26.5334C26.8576 18.716 27.1653 18.5802 27.3912 18.3473C27.617 18.1144 27.7434 17.8027 27.7434 17.4783C27.7434 17.1539 27.617 16.8422 27.3912 16.6093C27.1653 16.3764 26.8576 16.2406 26.5334 16.2307H12.4369Z" fill="#EC1C23"/>
<path d="M34.0192 53.5712C34.238 53.2037 34.3535 52.784 34.3535 52.3563C34.3535 51.9286 34.238 51.5089 34.0192 51.1414L25.628 36.6086C25.5499 36.4736 25.4377 36.3614 25.3026 36.2834C25.1675 36.2054 25.0142 36.1642 24.8582 36.1641H14.1121C13.9561 36.164 13.8028 36.205 13.6676 36.2831C13.5325 36.3611 13.4203 36.4734 13.3424 36.6086L4.95 51.1368C4.73674 51.5061 4.62452 51.9252 4.62463 52.3517C4.62474 52.7782 4.73718 53.1972 4.95062 53.5664C5.16407 53.9357 5.471 54.2422 5.84054 54.4552C6.21008 54.6682 6.62919 54.7801 7.0557 54.7796H31.9158C32.3427 54.786 32.7634 54.6771 33.1335 54.4644C33.5037 54.2517 33.8097 53.9431 34.0192 53.5712ZM6.49652 52.6763C6.43411 52.5795 6.40092 52.4668 6.40092 52.3516C6.40092 52.2365 6.43411 52.1238 6.49652 52.027L14.6315 37.9375H24.3505L32.4785 52.027C32.5353 52.1258 32.5651 52.2378 32.565 52.3517C32.5649 52.4657 32.5348 52.5776 32.4778 52.6763C32.4209 52.775 32.3389 52.857 32.2403 52.914C32.1417 52.9711 32.0298 53.0013 31.9158 53.0015H7.05336C6.93917 53.0062 6.82602 52.978 6.72733 52.9204C6.62864 52.8628 6.54854 52.778 6.49652 52.6763Z" fill="#EC1C23"/>
<path d="M31.9158 54.9553H7.05329C6.59616 54.9553 6.14707 54.835 5.75117 54.6065C5.35527 54.378 5.0265 54.0492 4.79792 53.6534C4.56933 53.2575 4.44899 52.8084 4.44897 52.3513C4.44896 51.8942 4.56929 51.4451 4.79785 51.0492L13.1902 36.5152C13.2838 36.3535 13.4183 36.2193 13.58 36.1259C13.7418 36.0325 13.9253 35.9832 14.1121 35.9829H24.8628C25.0496 35.9832 25.2331 36.0325 25.3949 36.1259C25.5566 36.2193 25.6911 36.3535 25.7847 36.5152L34.1759 51.0492C34.4102 51.4433 34.5338 51.8933 34.5338 52.3518C34.5338 52.8103 34.4102 53.2603 34.1759 53.6544C33.9516 54.055 33.623 54.3874 33.2251 54.6164C32.8272 54.8454 32.3748 54.9625 31.9158 54.9553ZM14.1121 36.3339C13.9868 36.3342 13.8637 36.3673 13.7551 36.4299C13.6466 36.4925 13.5563 36.5824 13.4932 36.6907L5.10201 51.2247C4.90426 51.5672 4.80015 51.9557 4.80015 52.3512C4.80015 52.7467 4.90426 53.1353 5.10202 53.4778C5.29977 53.8203 5.58421 54.1047 5.92673 54.3025C6.26925 54.5002 6.65778 54.6043 7.05329 54.6043H31.9158C32.3116 54.6049 32.7005 54.5013 33.0436 54.3038C33.3866 54.1063 33.6715 53.8219 33.8697 53.4793C34.0678 53.1367 34.1723 52.7479 34.1724 52.3521C34.1726 51.9563 34.0685 51.5674 33.8706 51.2247L25.4758 36.6907C25.413 36.5824 25.323 36.4925 25.2146 36.4299C25.1062 36.3673 24.9833 36.3342 24.8582 36.3339H14.1121ZM31.9158 53.1795H7.05329C6.90718 53.1859 6.76228 53.1504 6.63565 53.0773C6.50902 53.0041 6.40593 52.8963 6.33852 52.7665C6.26147 52.6438 6.22059 52.5019 6.22059 52.3571C6.22059 52.2122 6.26147 52.0703 6.33852 51.9476L14.5274 37.7692H24.4487L24.499 37.857L32.6305 51.9394C32.7027 52.0649 32.7406 52.2072 32.7405 52.3519C32.7404 52.4967 32.7022 52.6389 32.6298 52.7643C32.5574 52.8896 32.4533 52.9937 32.328 53.0662C32.2027 53.1387 32.0605 53.1769 31.9158 53.1771V53.1795ZM6.64736 52.5945C6.68492 52.6698 6.744 52.7323 6.81711 52.7739C6.89022 52.8156 6.97405 52.8346 7.05797 52.8285H31.9158C31.9998 52.8352 32.0839 52.8165 32.1571 52.7748C32.2303 52.733 32.2893 52.6702 32.3264 52.5945C32.3734 52.5245 32.3986 52.442 32.3986 52.3577C32.3986 52.2733 32.3734 52.1908 32.3264 52.1208L24.2428 38.1132H14.7274L6.64268 52.1149C6.5953 52.1848 6.56998 52.2674 6.56998 52.3518C6.56998 52.4363 6.5953 52.5188 6.64268 52.5887L6.64736 52.5945Z" fill="#EC1C23"/>
<path d="M22.2201 45.9592C21.9113 45.2281 20.8292 45.2456 20.5613 46.0002C20.5128 46.1361 20.4981 46.2818 20.5184 46.4247C20.5388 46.5676 20.5937 46.7033 20.6782 46.8203C20.7628 46.9372 20.8746 47.0318 21.0039 47.0958C21.1333 47.1599 21.2763 47.1915 21.4205 47.188C21.5648 47.1844 21.7061 47.1458 21.8321 47.0754C21.9581 47.005 22.0651 46.9051 22.1438 46.7841C22.2225 46.6631 22.2706 46.5248 22.2839 46.3811C22.2972 46.2374 22.2753 46.0926 22.2201 45.9592Z" fill="#EC1C23"/>
<path d="M21.4106 47.3611C21.1565 47.3603 20.911 47.2691 20.7181 47.1037C20.5518 46.9664 20.4316 46.7814 20.3739 46.5737C20.3162 46.3659 20.3236 46.1454 20.3952 45.9421C20.4657 45.7408 20.5965 45.5663 20.7699 45.4421C20.9432 45.318 21.1506 45.2503 21.3638 45.2483C21.5785 45.2401 21.7906 45.297 21.9723 45.4116C22.154 45.5263 22.2967 45.6933 22.3816 45.8906C22.4786 46.1322 22.4846 46.4007 22.3985 46.6464C22.3125 46.8921 22.1402 47.0983 21.9137 47.2265C21.7601 47.3133 21.587 47.3596 21.4106 47.3611ZM21.3954 45.5981H21.3732C21.2696 45.6061 21.169 45.637 21.0788 45.6885C20.9885 45.7401 20.9109 45.811 20.8514 45.8963C20.7919 45.9815 20.7521 46.0789 20.7348 46.1814C20.7175 46.2838 20.7233 46.3889 20.7515 46.4889C20.7798 46.5889 20.8299 46.6814 20.8983 46.7597C20.9667 46.838 21.0516 46.9001 21.1469 46.9416C21.2422 46.983 21.3455 47.0028 21.4494 46.9995C21.5532 46.9962 21.6551 46.9698 21.7475 46.9224C21.8986 46.8358 22.0132 46.6975 22.0702 46.533C22.1272 46.3685 22.1227 46.1889 22.0575 46.0275C22.0029 45.8978 21.9106 45.7875 21.7925 45.7109C21.6745 45.6344 21.5361 45.5951 21.3954 45.5981Z" fill="#EC1C23"/>
<path d="M17.4742 10.718C18.2487 10.718 18.6534 9.74468 18.1024 9.1972C17.9988 9.09389 17.8713 9.01773 17.7311 8.97545C17.591 8.93318 17.4427 8.92609 17.2992 8.95483C17.1557 8.98358 17.0215 9.04725 16.9084 9.14022C16.7954 9.23319 16.7071 9.3526 16.6512 9.48786C16.5953 9.62312 16.5736 9.77008 16.5881 9.91571C16.6026 10.0613 16.6527 10.2012 16.7341 10.3228C16.8155 10.4444 16.9256 10.5441 17.0547 10.6131C17.1838 10.682 17.3279 10.718 17.4742 10.718Z" fill="#EC1C23"/>
<path d="M17.4741 10.8936C17.2989 10.8937 17.1263 10.8506 16.9718 10.7681C16.8172 10.6855 16.6854 10.5662 16.5879 10.4205C16.4905 10.2749 16.4305 10.1075 16.4132 9.93315C16.3959 9.75879 16.4218 9.58285 16.4887 9.42091C16.5557 9.25898 16.6615 9.11604 16.7968 9.00475C16.9322 8.89347 17.0928 8.81727 17.2647 8.78291C17.4365 8.74854 17.6141 8.75707 17.7818 8.80773C17.9496 8.8584 18.1022 8.94964 18.2263 9.07338C18.3717 9.22376 18.47 9.41332 18.5092 9.6188C18.5484 9.82429 18.5267 10.0367 18.4468 10.2301C18.3669 10.4234 18.2323 10.5892 18.0595 10.7071C17.8867 10.8249 17.6832 10.8898 17.4741 10.8936ZM17.4741 9.11667C17.3239 9.11571 17.1773 9.1624 17.0553 9.25003C16.9333 9.33879 16.8426 9.46386 16.796 9.60733C16.7495 9.7508 16.7495 9.90533 16.7961 10.0488C16.8427 10.1922 16.9335 10.3173 17.0555 10.406C17.1775 10.4947 17.3244 10.5426 17.4753 10.5427C17.6149 10.539 17.7505 10.4949 17.8656 10.4157C17.9808 10.3365 18.0705 10.2257 18.1239 10.0966C18.1774 9.96756 18.1923 9.82576 18.1669 9.68838C18.1414 9.55101 18.0768 9.42394 17.9806 9.32256C17.8448 9.1903 17.6625 9.11676 17.4729 9.11784L17.4741 9.11667Z" fill="#EC1C23"/>
<path d="M20.5215 7.18678C21.2 7.64418 22.1043 6.96685 21.8657 6.18891C21.8243 6.05252 21.7507 5.92808 21.6511 5.82609C21.5515 5.7241 21.4289 5.64755 21.2935 5.60288C21.1582 5.55822 21.014 5.54675 20.8733 5.56945C20.7326 5.59215 20.5994 5.64836 20.485 5.73332C20.3705 5.81828 20.2782 5.92952 20.2157 6.05765C20.1533 6.18577 20.1226 6.32704 20.1261 6.46953C20.1297 6.61202 20.1675 6.75157 20.2363 6.87639C20.3051 7.00122 20.4029 7.10767 20.5215 7.18678Z" fill="#EC1C23"/>
<path d="M21.0024 7.50916C20.7978 7.50892 20.5978 7.44784 20.428 7.33369C20.286 7.23907 20.1689 7.11171 20.0864 6.96234C20.004 6.81297 19.9586 6.64597 19.9542 6.47541C19.9498 6.30485 19.9864 6.13573 20.0611 5.98229C20.1357 5.82885 20.2461 5.6956 20.383 5.59376C20.5198 5.49191 20.6792 5.42446 20.8476 5.39709C21.016 5.36972 21.1885 5.38322 21.3506 5.43647C21.5127 5.48972 21.6597 5.58115 21.779 5.70305C21.8984 5.82496 21.9867 5.97377 22.0365 6.13695C22.1007 6.34647 22.0972 6.57087 22.0267 6.77833C21.9561 6.98578 21.8221 7.16576 21.6435 7.29274C21.4588 7.43223 21.2339 7.50815 21.0024 7.50916ZM21.0188 5.73336C20.8659 5.73328 20.717 5.78232 20.5941 5.87325C20.4711 5.96418 20.3806 6.09219 20.336 6.23843C20.2913 6.38466 20.2948 6.54138 20.3459 6.6855C20.397 6.82961 20.493 6.95349 20.6199 7.03889C20.7427 7.11639 20.886 7.15492 21.0311 7.14942C21.1762 7.14392 21.3163 7.09465 21.4328 7.00807C21.5494 6.9215 21.637 6.80168 21.6842 6.66437C21.7314 6.52705 21.736 6.37867 21.6973 6.23872C21.6524 6.09568 21.5643 5.97006 21.4451 5.87914C21.3259 5.78822 21.1815 5.73647 21.0317 5.73102L21.0188 5.73336Z" fill="#EC1C23"/>
<path d="M18.2638 1.63079C18.3325 1.79678 18.4499 1.93807 18.6004 2.03605C18.751 2.13403 18.9277 2.1841 19.1073 2.17967C19.2869 2.17524 19.4609 2.11651 19.6065 2.01122C19.752 1.90593 19.8623 1.75902 19.9227 1.58984C20.1952 0.83413 19.3646 0.13223 18.6627 0.503067C18.4694 0.609282 18.3219 0.782918 18.2483 0.990888C18.1748 1.19886 18.1803 1.42662 18.2638 1.63079Z" fill="#EC1C23"/>
<path d="M19.0885 2.35255C18.8781 2.35087 18.6728 2.2879 18.4976 2.17134C18.3225 2.05478 18.1851 1.88969 18.1023 1.69628C18.0043 1.47491 17.9856 1.22654 18.0493 0.993002C18.1131 0.75946 18.2553 0.55501 18.4521 0.414084C18.649 0.273157 18.8884 0.204364 19.13 0.219289C19.3716 0.234214 19.6007 0.331946 19.7787 0.496026C19.9426 0.632595 20.0603 0.816533 20.1156 1.02262C20.1709 1.22871 20.1611 1.44685 20.0875 1.64714C20.0178 1.83892 19.8947 2.00683 19.7329 2.13116C19.5711 2.25548 19.3771 2.33107 19.1739 2.34904C19.1458 2.35138 19.1165 2.35255 19.0885 2.35255ZM19.0709 0.577915C18.9581 0.578513 18.8472 0.607049 18.748 0.660973C18.5939 0.746164 18.4761 0.884624 18.4166 1.05043C18.3572 1.21624 18.3602 1.39802 18.4252 1.56174C18.4797 1.69546 18.5737 1.80944 18.6945 1.88857C18.8153 1.96769 18.9573 2.00823 19.1017 2.00481C19.2461 2.00138 19.386 1.95415 19.5029 1.86939C19.6199 1.78462 19.7083 1.66632 19.7564 1.53016C19.8046 1.39633 19.8104 1.25093 19.7732 1.11366C19.7359 0.97639 19.6574 0.853889 19.5482 0.762748C19.4158 0.646979 19.2468 0.581542 19.0709 0.577915Z" fill="#EC1C23"/>
<path d="M49.3521 34.7193C49.4249 34.8957 49.5526 35.0441 49.7162 35.1423C49.8798 35.2406 50.0708 35.2836 50.2607 35.265C50.4507 35.2464 50.6296 35.1671 50.771 35.0389C50.9125 34.9107 51.0089 34.7404 51.046 34.5532C51.1981 33.794 50.3324 33.2161 49.6867 33.6349C49.5143 33.7492 49.3868 33.9197 49.3258 34.1174C49.2649 34.315 49.2741 34.5277 49.3521 34.7193Z" fill="#EC1C23"/>
<path d="M50.1734 35.4449C49.9438 35.4451 49.7204 35.3712 49.5363 35.2341C49.3521 35.0971 49.2172 34.9043 49.1514 34.6844C49.0857 34.4645 49.0927 34.2292 49.1715 34.0136C49.2502 33.798 49.3965 33.6136 49.5885 33.4878C49.7645 33.3766 49.9692 33.3191 50.1774 33.3224C50.3856 33.3257 50.5884 33.3895 50.7609 33.5062C50.9334 33.6228 51.0681 33.7872 51.1487 33.9793C51.2293 34.1713 51.2522 34.3826 51.2145 34.5874C51.1659 34.8282 51.0358 35.0449 50.8462 35.2011C50.6566 35.3572 50.419 35.4433 50.1734 35.4449ZM50.1547 33.6703C50.0218 33.6717 49.8924 33.7124 49.7827 33.7873C49.6441 33.8783 49.5416 34.0147 49.4927 34.1731C49.4439 34.3315 49.4516 34.502 49.5148 34.6553C49.5691 34.785 49.6604 34.8957 49.7773 34.9738C49.8943 35.0518 50.0316 35.0936 50.1722 35.094C50.3371 35.0918 50.4964 35.0336 50.6239 34.9291C50.7514 34.8245 50.8397 34.6797 50.8741 34.5184C50.9003 34.3821 50.8854 34.2412 50.8315 34.1133C50.7776 33.9855 50.687 33.8765 50.5711 33.8001C50.4479 33.7172 50.3032 33.672 50.1547 33.6703Z" fill="#EC1C23"/>
<path d="M50.619 39.4409C49.8633 39.5988 49.6492 40.6213 50.2997 41.0529C50.4213 41.1339 50.561 41.1837 50.7065 41.1978C50.852 41.2119 50.9987 41.19 51.1336 41.1339C51.2686 41.0778 51.3876 40.9893 51.4802 40.8763C51.5728 40.7632 51.6361 40.629 51.6645 40.4857C51.6929 40.3423 51.6856 40.1942 51.6431 40.0543C51.6006 39.9145 51.5242 39.7873 51.4209 39.684C51.3175 39.5807 51.1902 39.5045 51.0504 39.4621C50.9105 39.4197 50.7624 39.4124 50.619 39.4409Z" fill="#EC1C23"/>
<path d="M50.7922 41.3748C50.5843 41.375 50.3808 41.3139 50.2073 41.1993C50.0334 41.0847 49.898 40.9205 49.8187 40.7279C49.7395 40.5353 49.72 40.3234 49.7628 40.1196C49.7991 39.9113 49.8973 39.7187 50.0446 39.567C50.1919 39.4154 50.3815 39.3115 50.5887 39.2691C50.7344 39.2397 50.8848 39.2411 51.0299 39.2734C51.1751 39.3056 51.3119 39.368 51.4315 39.4564C51.551 39.5448 51.6507 39.6574 51.7241 39.7867C51.7975 39.9161 51.8429 40.0594 51.8575 40.2074C51.872 40.3554 51.8554 40.5048 51.8086 40.6459C51.7618 40.7871 51.686 40.9169 51.5859 41.0269C51.4858 41.1369 51.3638 41.2247 51.2277 41.2847C51.0916 41.3446 50.9444 41.3753 50.7957 41.3748H50.7922ZM50.6542 39.613C50.5155 39.6426 50.3888 39.713 50.2904 39.8152C50.192 39.9173 50.1264 40.0465 50.102 40.1862C50.0736 40.3221 50.0865 40.4633 50.139 40.5917C50.1916 40.7202 50.2813 40.8299 50.3968 40.9069C50.4944 40.9719 50.6065 41.0119 50.7233 41.0233C50.84 41.0347 50.9577 41.0171 51.066 40.9722C51.1744 40.9273 51.27 40.8563 51.3443 40.7656C51.4187 40.6749 51.4696 40.5673 51.4925 40.4523C51.5154 40.3373 51.5095 40.2184 51.4755 40.1061C51.4415 39.9939 51.3804 39.8918 51.2975 39.8088C51.2146 39.7258 51.1125 39.6645 51.0003 39.6304C50.8881 39.5962 50.7692 39.5903 50.6542 39.613Z" fill="#EC1C23"/>
<path d="M38.3673 47.3514C38.4359 47.5168 38.5527 47.6577 38.7026 47.7556C38.8526 47.8535 39.0286 47.9038 39.2076 47.9001C39.3866 47.8963 39.5603 47.8385 39.7059 47.7343C39.8516 47.6302 39.9624 47.4845 40.0238 47.3163C40.3011 46.5641 39.4728 45.854 38.7698 46.226C38.5765 46.3318 38.4288 46.5048 38.3547 46.7122C38.2805 46.9196 38.285 47.1471 38.3673 47.3514Z" fill="#EC1C23"/>
<path d="M39.1897 48.0733C38.9794 48.0726 38.774 48.0099 38.5991 47.8932C38.4241 47.7765 38.2874 47.6109 38.2059 47.4171C38.1052 47.1726 38.0987 46.8995 38.1877 46.6506C38.2768 46.4016 38.455 46.1946 38.6879 46.0694C38.8784 45.9689 39.0952 45.9292 39.309 45.9558C39.5228 45.9824 39.7233 46.0739 39.8834 46.218C40.048 46.3554 40.1657 46.5405 40.2204 46.7478C40.2751 46.9551 40.2641 47.1742 40.1888 47.3749C40.1164 47.5693 39.9898 47.7388 39.8238 47.8633C39.6579 47.9877 39.4597 48.0618 39.2529 48.0768L39.1897 48.0733ZM38.5299 47.2814C38.5872 47.4182 38.6854 47.5339 38.8111 47.6127C38.9368 47.6914 39.0837 47.7293 39.2318 47.7212C39.3698 47.7108 39.502 47.6613 39.6129 47.5784C39.7238 47.4955 39.8087 47.3827 39.8577 47.2533C39.9033 47.1177 39.9076 46.9716 39.87 46.8335C39.8325 46.6955 39.7547 46.5717 39.6467 46.4779C39.5386 46.3841 39.4051 46.3246 39.2631 46.3069C39.1212 46.2891 38.9771 46.314 38.8493 46.3782C38.6949 46.4635 38.5769 46.6022 38.5177 46.7683C38.4584 46.9344 38.462 47.1165 38.5276 47.2802L38.5299 47.2814Z" fill="#EC1C23"/>
<path d="M34.9234 38.6662C34.7426 38.7022 34.5774 38.7934 34.4507 38.9272C34.3239 39.0611 34.2418 39.231 34.2157 39.4135C34.1897 39.596 34.2209 39.7821 34.3051 39.9461C34.3893 40.11 34.5224 40.2439 34.6859 40.329C34.8494 40.4141 35.0353 40.4464 35.2179 40.4214C35.4006 40.3963 35.5709 40.3152 35.7055 40.1892C35.8401 40.0632 35.9322 39.8985 35.9692 39.7179C36.0062 39.5373 35.9862 39.3497 35.9119 39.181C35.829 38.9966 35.6863 38.8455 35.507 38.7521C35.3276 38.6587 35.1221 38.6285 34.9234 38.6662Z" fill="#EC1C23"/>
<path d="M35.0955 40.6018C34.9483 40.6021 34.8027 40.5717 34.6679 40.5126C34.5331 40.4535 34.4121 40.367 34.3126 40.2587C34.213 40.1503 34.137 40.0224 34.0896 39.8831C34.0421 39.7438 34.0241 39.5962 34.0368 39.4496C34.058 39.2205 34.1521 39.0043 34.3051 38.8325C34.4581 38.6607 34.6621 38.5424 34.8872 38.495C35.0338 38.4638 35.1852 38.4639 35.3317 38.4953C35.4782 38.5267 35.6164 38.5886 35.7373 38.677C35.8582 38.7655 35.9591 38.8785 36.0333 39.0086C36.1076 39.1387 36.1535 39.283 36.1682 39.4321C36.1828 39.5811 36.1659 39.7316 36.1184 39.8737C36.0709 40.0158 35.9939 40.1462 35.8926 40.2565C35.7912 40.3668 35.6677 40.4545 35.5302 40.5138C35.3926 40.5731 35.2441 40.6027 35.0943 40.6007L35.0955 40.6018ZM34.9586 38.8389C34.8137 38.8677 34.6814 38.9408 34.5798 39.048C34.4782 39.1552 34.4124 39.2913 34.3915 39.4375C34.3705 39.5837 34.3954 39.7328 34.4628 39.8643C34.5302 39.9957 34.6367 40.103 34.7676 40.1714C34.8985 40.2397 35.0474 40.2658 35.1938 40.2459C35.3401 40.2261 35.4767 40.1613 35.5847 40.0605C35.6927 39.9598 35.7667 39.828 35.7967 39.6834C35.8266 39.5387 35.8109 39.3884 35.7517 39.253C35.6852 39.105 35.5708 38.9836 35.4269 38.9085C35.2831 38.8334 35.1181 38.8089 34.9586 38.8389Z" fill="#EC1C23"/>
<path d="M45.1291 37.7435C45.1995 37.9124 45.3203 38.0554 45.475 38.1531C45.6298 38.2507 45.8109 38.2981 45.9936 38.2888C46.1763 38.2796 46.3518 38.2141 46.4959 38.1014C46.6399 37.9886 46.7457 37.8341 46.7986 37.659C46.8516 37.4838 46.8491 37.2966 46.7916 37.1229C46.7341 36.9493 46.6243 36.7976 46.4773 36.6887C46.3303 36.5797 46.1532 36.5189 45.9703 36.5144C45.7874 36.51 45.6076 36.5621 45.4555 36.6638C45.2849 36.7785 45.1593 36.9487 45.0998 37.1455C45.0403 37.3422 45.0507 37.5535 45.1291 37.7435Z" fill="#EC1C23"/>
<path d="M45.9514 38.4675C45.6748 38.4644 45.4106 38.3519 45.2166 38.1546C45.0226 37.9574 44.9146 37.6914 44.9162 37.4147C44.9177 37.138 45.0287 36.8732 45.2249 36.6781C45.421 36.483 45.6865 36.3735 45.9631 36.3735C46.2398 36.3735 46.5052 36.483 46.7014 36.6781C46.8976 36.8732 47.0086 37.138 47.0101 37.4147C47.0117 37.6914 46.9036 37.9574 46.7097 38.1546C46.5157 38.3519 46.2515 38.4644 45.9748 38.4675H45.9514ZM45.9514 36.6928C45.8336 36.6902 45.717 36.7174 45.6124 36.7717C45.5078 36.8261 45.4186 36.9059 45.353 37.0038C45.2874 37.1017 45.2475 37.2145 45.237 37.3319C45.2264 37.4493 45.2457 37.5675 45.2928 37.6755C45.3349 37.7742 45.3988 37.8621 45.4796 37.9327C45.5604 38.0034 45.6561 38.0548 45.7595 38.0834C45.863 38.1119 45.9715 38.1167 46.0771 38.0975C46.1827 38.0782 46.2826 38.0354 46.3693 37.9722C46.4561 37.909 46.5274 37.8271 46.5781 37.7325C46.6288 37.6379 46.6575 37.5331 46.6621 37.4259C46.6667 37.3187 46.647 37.2118 46.6046 37.1133C46.5622 37.0147 46.4981 36.927 46.417 36.8566C46.2858 36.7476 46.1197 36.6894 45.9491 36.6928H45.9514Z" fill="#EC1C23"/>
<path d="M15.992 47.8007C15.9233 47.635 15.8062 47.4939 15.6559 47.3961C15.5056 47.2982 15.3293 47.248 15.1499 47.2522C14.9706 47.2564 14.7968 47.3147 14.6512 47.4195C14.5057 47.5242 14.3952 47.6706 14.3343 47.8393C14.0548 48.6137 14.9368 49.3261 15.6375 48.898C15.8161 48.7859 15.9496 48.6145 16.0144 48.4138C16.0792 48.2132 16.0713 47.9961 15.992 47.8007Z" fill="#EC1C23"/>
<path d="M15.1849 49.2035C14.9362 49.2023 14.6957 49.1151 14.504 48.9567C14.3338 48.8205 14.2101 48.6348 14.15 48.4252C14.0898 48.2157 14.0962 47.9926 14.1683 47.7869C14.2436 47.5814 14.3801 47.404 14.5593 47.2785C14.7386 47.153 14.952 47.0855 15.1708 47.085C15.3808 47.0872 15.5855 47.1505 15.7602 47.267C15.9349 47.3835 16.0719 47.5483 16.1546 47.7412C16.251 47.9758 16.261 48.237 16.1828 48.4782C16.1046 48.7194 15.9433 48.9251 15.7277 49.0585C15.5635 49.1558 15.3757 49.206 15.1849 49.2035ZM15.1708 47.4277C15.0248 47.4292 14.8827 47.4747 14.7629 47.5581C14.6431 47.6416 14.5513 47.7592 14.4993 47.8957C14.4537 48.0343 14.4513 48.1835 14.4924 48.3235C14.5335 48.4636 14.6161 48.5879 14.7293 48.6799C14.8425 48.772 14.9811 48.8275 15.1265 48.8391C15.272 48.8507 15.4176 48.8179 15.544 48.745C15.6873 48.6549 15.7945 48.5174 15.8469 48.3564C15.8993 48.1955 15.8935 48.0212 15.8306 47.8641C15.7745 47.7354 15.6824 47.6257 15.5653 47.5482C15.4482 47.4708 15.3112 47.4289 15.1708 47.4277Z" fill="#EC1C23"/>
<path d="M17.3105 41.5127C17.1276 41.5488 16.9608 41.6414 16.8334 41.7775C16.7061 41.9136 16.6247 42.0862 16.6008 42.271C16.577 42.4558 16.6117 42.6435 16.7003 42.8074C16.7888 42.9714 16.9267 43.1034 17.0943 43.1848C17.262 43.2662 17.4509 43.2928 17.6346 43.261C17.8182 43.2291 17.9871 43.1404 18.1176 43.0073C18.248 42.8742 18.3333 42.7035 18.3615 42.5193C18.3896 42.335 18.3591 42.1466 18.2744 41.9807C18.1853 41.8095 18.0434 41.6715 17.8698 41.5873C17.6962 41.503 17.5001 41.4769 17.3105 41.5127Z" fill="#EC1C23"/>
<path d="M17.4776 43.447C17.3193 43.4475 17.163 43.4123 17.0202 43.3441C16.8192 43.2471 16.6538 43.0893 16.5473 42.8931C16.4409 42.697 16.3988 42.4723 16.427 42.2509C16.4552 42.0295 16.5522 41.8226 16.7045 41.6594C16.8567 41.4962 17.0563 41.3849 17.2752 41.3413C17.4212 41.3119 17.5718 41.3134 17.7172 41.3458C17.8625 41.3783 17.9995 41.4409 18.1191 41.5296C18.2387 41.6183 18.3384 41.7312 18.4116 41.8609C18.4848 41.9906 18.53 42.1343 18.5442 42.2825C18.5583 42.4308 18.5412 42.5804 18.4938 42.7216C18.4465 42.8629 18.37 42.9926 18.2694 43.1023C18.1687 43.2121 18.0461 43.2995 17.9095 43.3589C17.7729 43.4183 17.6254 43.4483 17.4764 43.447H17.4776ZM17.3454 41.6853C17.1986 41.7143 17.0647 41.7887 16.9625 41.898C16.8603 42.0073 16.7951 42.1459 16.776 42.2943C16.7569 42.4427 16.7849 42.5934 16.8561 42.725C16.9274 42.8565 17.0381 42.9624 17.1728 43.0276C17.3075 43.0928 17.4592 43.114 17.6066 43.0883C17.754 43.0625 17.8896 42.9911 17.9941 42.884C18.0987 42.777 18.167 42.6398 18.1893 42.4919C18.2117 42.344 18.187 42.1927 18.1187 42.0596C18.047 41.9225 17.9332 41.812 17.7939 41.7446C17.6547 41.6772 17.4974 41.6564 17.3454 41.6853Z" fill="#EC1C23"/>
</svg>
