<svg width="59" height="65" viewBox="0 0 59 65" fill="none" xmlns="http://www.w3.org/2000/svg">
<path d="M55.0118 54.9269V31.6533C55.0084 28.0479 53.5746 24.5912 51.0252 22.0418C48.4758 19.4924 45.0191 18.0586 41.4137 18.0551H40.2527C39.6091 17.4252 38.8558 16.9182 38.0299 16.5594L38.8562 13.4527C38.8939 13.321 38.905 13.1831 38.8889 13.0471C38.8727 12.9111 38.8297 12.7796 38.7623 12.6604C38.6949 12.5411 38.6044 12.4365 38.4962 12.3525C38.388 12.2686 38.2641 12.207 38.1319 12.1713H38.1188L35.0854 11.3555L35.9013 8.32203C36.1262 8.22881 36.3447 8.12047 36.555 7.99777C37.1523 7.65638 37.6754 7.19932 38.0939 6.65332C38.5124 6.10732 38.8178 5.48334 38.9922 4.8179C39.0628 4.55163 39.0255 4.26828 38.8884 4.02935C38.7513 3.79042 38.5255 3.61522 38.26 3.54177L28.1608 0.831301C28.0271 0.795986 27.8878 0.787353 27.7508 0.805895C27.6138 0.824436 27.4818 0.86979 27.3623 0.939364C27.2428 1.00894 27.1382 1.10137 27.0545 1.21138C26.9707 1.32139 26.9095 1.44682 26.8742 1.58051C26.6955 2.24313 26.6497 2.93456 26.7395 3.61496C26.8293 4.29536 27.0528 4.95126 27.3972 5.54488C27.5239 5.75228 27.6637 5.95142 27.8156 6.1411L26.9997 9.19545L23.9663 8.37956C23.6986 8.30936 23.414 8.3481 23.1748 8.4873C22.9356 8.6265 22.7614 8.85481 22.6902 9.12223L17.2718 29.3246C17.2359 29.4558 17.2262 29.5927 17.2433 29.7277C17.2603 29.8626 17.3038 29.9929 17.3712 30.111C17.4385 30.2291 17.5285 30.3328 17.636 30.4162C17.7435 30.4995 17.8663 30.5609 17.9975 30.5968H18.0145L20.0333 31.1407L19.2279 34.1741C19.1533 34.4412 19.1872 34.7269 19.322 34.9691C19.4657 35.2049 19.6939 35.377 19.9601 35.4503L20.9747 35.7222L20.1588 38.7557C20.0883 39.0241 20.1259 39.3095 20.2634 39.5506C20.3321 39.6695 20.424 39.7734 20.5336 39.856C20.6432 39.9387 20.7683 39.9985 20.9015 40.0318L24.9391 41.1236C25.0282 41.1445 25.1195 41.155 25.2111 41.1549C25.3941 41.1604 25.5751 41.1151 25.7341 41.0242C25.8541 40.9556 25.9594 40.8639 26.0437 40.7544C26.1281 40.6449 26.19 40.5197 26.2257 40.3861L27.0311 37.3527L28.0457 37.6247C28.1331 37.6549 28.2253 37.669 28.3177 37.6665C28.5019 37.665 28.6824 37.6144 28.8407 37.5201C28.9595 37.4538 29.0635 37.364 29.1462 37.256C29.229 37.1481 29.2887 37.0244 29.3219 36.8925L30.1378 33.859L32.1565 34.3925C32.2443 34.4214 32.3362 34.4356 32.4285 34.4343C32.6593 34.4353 32.884 34.36 33.0675 34.22C33.2511 34.08 33.3831 33.8832 33.4431 33.6603L34.2695 30.5536C34.5577 30.5868 34.8475 30.6042 35.1377 30.6059C37.0446 30.5973 38.8734 29.8471 40.237 28.5139H41.4137C42.2452 28.5163 43.042 28.8477 43.63 29.4357C44.2179 30.0237 44.5493 30.8204 44.5518 31.6519V47.3055L34.0917 47.3434V46.2974C34.0917 46.02 33.9815 45.7539 33.7853 45.5577C33.5891 45.3616 33.3231 45.2514 33.0457 45.2514H14.2175C13.9401 45.2514 13.674 45.3616 13.4779 45.5577C13.2817 45.7539 13.1715 46.02 13.1715 46.2974V50.4814C13.1715 50.7588 13.2817 51.0249 13.4779 51.2211C13.674 51.4172 13.9401 51.5274 14.2175 51.5274H33.0457C33.3231 51.5274 33.5891 51.4172 33.7853 51.2211C33.9815 51.0249 34.0917 50.7588 34.0917 50.4814V49.4354L44.5518 49.404V53.6194H7.94145C6.00026 53.6219 4.13927 54.3941 2.76664 55.7667C1.39401 57.1393 0.621807 59.0003 0.619385 60.9415L0.619385 63.0335C0.619385 63.3109 0.729589 63.577 0.925754 63.7732C1.12192 63.9693 1.38797 64.0795 1.66539 64.0795H57.1039C57.3813 64.0795 57.6473 63.9693 57.8435 63.7732C58.0397 63.577 58.1499 63.3109 58.1499 63.0335V60.9415C58.1498 59.7604 57.8644 58.5967 57.3181 57.5496C56.7717 56.5024 55.9806 55.6027 55.0118 54.9269ZM36.5393 5.24154C36.2713 5.62715 35.9212 5.94865 35.5142 6.18294C35.1592 6.39052 34.7663 6.52518 34.3586 6.57907C33.9509 6.63295 33.5366 6.60496 33.1398 6.49675L31.121 5.95282C30.4931 5.78736 29.9322 5.43061 29.5161 4.93206C29.1 4.43351 28.8493 3.81784 28.7989 3.17044L36.5393 5.24154ZM33.6314 8.67637L33.0666 10.8102L29.0133 9.73284L29.5886 7.60944C29.905 7.75992 30.234 7.88243 30.5718 7.97554L32.5906 8.51947C32.931 8.60855 33.2799 8.66114 33.6314 8.67637ZM24.4684 38.8328L22.4548 38.2889L22.9987 36.2701L24.6201 36.6989L25.0123 36.814L24.4684 38.8328ZM27.575 35.3287L21.5186 33.7074L22.0521 31.6886L28.119 33.3099L27.575 35.3287ZM31.6963 32.0965L19.5626 28.8539L24.437 10.6638L36.5602 13.9169L36.0059 16.0193C34.2559 15.8041 32.487 16.2283 31.0249 17.2139C29.5629 18.1994 28.506 19.6799 28.049 21.3828C27.5919 23.0857 27.7653 24.8964 28.5374 26.4816C29.3094 28.0668 30.6281 29.3197 32.2507 30.0097L31.6963 32.0965ZM40.1951 24.628C39.9298 25.6294 39.373 26.5294 38.5954 27.2139C37.8179 27.8984 36.8545 28.3366 35.8276 28.4729C34.8007 28.6091 33.7564 28.4374 32.8272 27.9794C31.898 27.5213 31.1258 26.7977 30.6085 25.9002C30.2615 25.3076 30.0365 24.6516 29.9467 23.9708C29.8569 23.29 29.9041 22.5981 30.0854 21.9358C30.3827 20.8229 31.039 19.8392 31.9525 19.1375C32.8661 18.4358 33.9857 18.0553 35.1377 18.0551C35.5935 18.0526 36.0474 18.1125 36.487 18.233C37.4879 18.4983 38.3873 19.0554 39.0707 19.8334V19.8438C39.2981 20.0974 39.498 20.3744 39.6669 20.6702C40.0137 21.2628 40.2386 21.9188 40.3284 22.5996C40.4182 23.2804 40.3711 23.9722 40.1899 24.6345L40.1951 24.628ZM31.9996 49.4354H15.2635V47.3434H31.9996V49.4354ZM41.7275 26.4546C41.9312 26.0468 42.0925 25.6192 42.2087 25.1785C42.6669 23.5086 42.5071 21.7296 41.7589 20.1681C44.7467 20.2577 47.5823 21.5066 49.6654 23.6503C51.7486 25.7939 52.9157 28.6641 52.9198 31.6533V53.9162C52.2396 53.721 51.5355 53.6211 50.8278 53.6194H46.6438V31.6533C46.6398 30.3231 46.1293 29.0445 45.216 28.0775C44.3027 27.1105 43.0552 26.5279 41.7275 26.4481V26.4546ZM56.0578 61.9875H2.7114V60.9415C2.7114 59.5544 3.26242 58.2241 4.24325 57.2433C5.22407 56.2625 6.55435 55.7115 7.94145 55.7115H50.8278C52.2149 55.7115 53.5452 56.2625 54.526 57.2433C55.5068 58.2241 56.0578 59.5544 56.0578 60.9415V61.9875Z" fill="#EC1C23"/>
<path d="M35.1377 26.4235C34.517 26.4235 33.9103 26.2395 33.3943 25.8947C32.8782 25.5499 32.476 25.0598 32.2385 24.4864C32.001 23.913 31.9389 23.282 32.0599 22.6733C32.181 22.0646 32.4799 21.5054 32.9187 21.0666C33.3576 20.6277 33.9167 20.3288 34.5255 20.2078C35.1342 20.0867 35.7651 20.1488 36.3385 20.3863C36.9119 20.6238 37.402 21.026 37.7468 21.5421C38.0916 22.0581 38.2757 22.6648 38.2757 23.2855C38.2757 24.1177 37.9451 24.9159 37.3566 25.5044C36.7681 26.0929 35.9699 26.4235 35.1377 26.4235ZM35.1377 22.2395C34.9308 22.2395 34.7285 22.3008 34.5565 22.4158C34.3845 22.5307 34.2504 22.6941 34.1713 22.8852C34.0921 23.0763 34.0714 23.2867 34.1118 23.4896C34.1521 23.6925 34.2517 23.8788 34.398 24.0251C34.5443 24.1714 34.7307 24.271 34.9336 24.3114C35.1365 24.3518 35.3468 24.331 35.538 24.2519C35.7291 24.1727 35.8925 24.0386 36.0074 23.8666C36.1223 23.6946 36.1837 23.4924 36.1837 23.2855C36.1837 23.0081 36.0735 22.742 35.8773 22.5458C35.6811 22.3497 35.4151 22.2395 35.1377 22.2395Z" fill="#EC1C23"/>
</svg>
