<svg width="26" height="19" viewBox="0 0 26 19" fill="none" xmlns="http://www.w3.org/2000/svg">
<path d="M25.3337 3.61572C25.0525 2.49072 24.1619 1.6001 23.0837 1.31885C21.0681 0.756348 13.0994 0.756348 13.0994 0.756348C13.0994 0.756348 5.08374 0.756348 3.06812 1.31885C1.98999 1.6001 1.09937 2.49072 0.818115 3.61572C0.255615 5.58447 0.255615 9.80322 0.255615 9.80322C0.255615 9.80322 0.255615 13.9751 0.818115 15.9907C1.09937 17.1157 1.98999 17.9595 3.06812 18.2407C5.08374 18.7563 13.0994 18.7563 13.0994 18.7563C13.0994 18.7563 21.0681 18.7563 23.0837 18.2407C24.1619 17.9595 25.0525 17.1157 25.3337 15.9907C25.8962 13.9751 25.8962 9.80322 25.8962 9.80322C25.8962 9.80322 25.8962 5.58447 25.3337 3.61572ZM10.4744 13.6001V6.00635L17.1306 9.80322L10.4744 13.6001Z" fill="white"/>
</svg>
