<svg width="23" height="23" viewBox="0 0 23 23" fill="none" xmlns="http://www.w3.org/2000/svg">
<g clip-path="url(#clip0_3212_1021)">
<path d="M0.0759277 11.7563C0.0759277 5.6812 5.00078 0.756348 11.0759 0.756348C17.1511 0.756348 22.0759 5.6812 22.0759 11.7563C22.0759 17.8315 17.1511 22.7563 11.0759 22.7563C5.00078 22.7563 0.0759277 17.8315 0.0759277 11.7563Z" fill="#440005"/>
<path fill-rule="evenodd" clip-rule="evenodd" d="M10.8533 0.756348C10.8014 5.28183 10.5054 7.8145 8.81975 9.50017C7.13408 11.1858 4.60141 11.4818 0.0759277 11.5338V12.1905C4.60141 12.2424 7.13408 12.5384 8.81975 14.224C10.479 15.8833 10.7917 18.3631 10.8507 22.7563H11.5127C11.5716 18.3631 11.8844 15.8833 13.5436 14.224C15.2029 12.5648 17.6827 12.2521 22.0759 12.1931V11.5311C17.6827 11.4722 15.2029 11.1594 13.5436 9.50017C11.8579 7.8145 11.562 5.28183 11.5101 0.756348H10.8533Z" fill="white"/>
</g>
<defs>
<clipPath id="clip0_3212_1021">
<rect width="22" height="22" fill="white" transform="translate(0.0759277 0.756348)"/>
</clipPath>
</defs>
</svg>
